  0
SECTION
  2
BLOCKS
  0
ENDSEC
  0
SECTION
  2
ENTITIES
  0
LINE
  8
0
 10
-162
 20
-4.96922
 11
-161.264
 21
-4.90819
  0
LINE
  8
0
 10
-161.264
 20
-4.90819
 11
-160.359
 21
-4.51149
  0
LINE
  8
0
 10
-160.359
 20
-4.51149
 11
-159.804
 21
-4
  0
LINE
  8
0
 10
-159.804
 20
-4
 11
159.804
 21
-4
  0
LINE
  8
0
 10
159.804
 20
-4
 11
160.359
 21
-4.51149
  0
LINE
  8
0
 10
160.359
 20
-4.51149
 11
161.264
 21
-4.90819
  0
LINE
  8
0
 10
161.264
 20
-4.90819
 11
162
 21
-4.96922
  0
LINE
  8
0
 10
162
 20
-4.96922
 11
162
 21
-5
  0
LINE
  8
0
 10
162
 20
-5
 11
188
 21
-5
  0
LINE
  8
0
 10
188
 20
-5
 11
188
 21
-4.96922
  0
LINE
  8
0
 10
188
 20
-4.96922
 11
188.736
 21
-4.90819
  0
LINE
  8
0
 10
188.736
 20
-4.90819
 11
189.641
 21
-4.51149
  0
LINE
  8
0
 10
189.641
 20
-4.51149
 11
190.196
 21
-4
  0
LINE
  8
0
 10
190.196
 20
-4
 11
205
 21
-4
  0
LINE
  8
0
 10
205
 20
-4
 11
205
 21
-3.97083
  0
LINE
  8
0
 10
205
 20
-3.97083
 11
205.482
 21
-3.97083
  0
LINE
  8
0
 10
205.482
 20
-3.97083
 11
206.418
 21
-3.74005
  0
LINE
  8
0
 10
206.418
 20
-3.74005
 11
207.272
 21
-3.29193
  0
LINE
  8
0
 10
207.272
 20
-3.29193
 11
207.994
 21
-2.65248
  0
LINE
  8
0
 10
207.994
 20
-2.65248
 11
208.542
 21
-1.85889
  0
LINE
  8
0
 10
208.542
 20
-1.85889
 11
208.884
 21
-0.95726
  0
LINE
  8
0
 10
208.884
 20
-0.95726
 11
209
 21
0
  0
LINE
  8
0
 10
209
 20
0
 11
208.884
 21
0.95726
  0
LINE
  8
0
 10
208.884
 20
0.95726
 11
208.542
 21
1.85889
  0
LINE
  8
0
 10
208.542
 20
1.85889
 11
207.994
 21
2.65248
  0
LINE
  8
0
 10
207.994
 20
2.65248
 11
207.272
 21
3.29193
  0
LINE
  8
0
 10
207.272
 20
3.29193
 11
206.418
 21
3.74005
  0
LINE
  8
0
 10
206.418
 20
3.74005
 11
205.482
 21
3.97083
  0
LINE
  8
0
 10
205.482
 20
3.97083
 11
205
 21
3.97083
  0
LINE
  8
0
 10
205
 20
3.97083
 11
205
 21
4
  0
LINE
  8
0
 10
205
 20
4
 11
197
 21
4
  0
LINE
  8
0
 10
197
 20
4
 11
197
 21
7.23268
  0
LINE
  8
0
 10
197
 20
7.23268
 11
197.659
 21
7.04523
  0
LINE
  8
0
 10
197.659
 20
7.04523
 11
198.471
 21
6.70145
  0
LINE
  8
0
 10
198.471
 20
6.70145
 11
198.358
 21
7.48605
  0
LINE
  8
0
 10
198.358
 20
7.48605
 11
197.944
 21
8.39224
  0
LINE
  8
0
 10
197.944
 20
8.39224
 11
197.292
 21
9.14511
  0
LINE
  8
0
 10
197.292
 20
9.14511
 11
196.454
 21
9.6837
  0
LINE
  8
0
 10
196.454
 20
9.6837
 11
195.498
 21
9.96437
  0
LINE
  8
0
 10
195.498
 20
9.96437
 11
194.502
 21
9.96437
  0
LINE
  8
0
 10
194.502
 20
9.96437
 11
193.546
 21
9.6837
  0
LINE
  8
0
 10
193.546
 20
9.6837
 11
192.708
 21
9.14511
  0
LINE
  8
0
 10
192.708
 20
9.14511
 11
192.056
 21
8.39224
  0
LINE
  8
0
 10
192.056
 20
8.39224
 11
191.642
 21
7.48605
  0
LINE
  8
0
 10
191.642
 20
7.48605
 11
191.527
 21
6.69083
  0
LINE
  8
0
 10
191.527
 20
6.69083
 11
191.882
 21
6.86723
  0
LINE
  8
0
 10
191.882
 20
6.86723
 11
192.811
 21
7.1946
  0
LINE
  8
0
 10
192.811
 20
7.1946
 11
193
 21
7.23605
  0
LINE
  8
0
 10
193
 20
7.23605
 11
193
 21
4
  0
LINE
  8
0
 10
193
 20
4
 11
190.196
 21
4
  0
LINE
  8
0
 10
190.196
 20
4
 11
189.641
 21
4.51149
  0
LINE
  8
0
 10
189.641
 20
4.51149
 11
188.736
 21
4.90819
  0
LINE
  8
0
 10
188.736
 20
4.90819
 11
188
 21
4.96922
  0
LINE
  8
0
 10
188
 20
4.96922
 11
188
 21
5
  0
LINE
  8
0
 10
188
 20
5
 11
162
 21
5
  0
LINE
  8
0
 10
162
 20
5
 11
162
 21
4.96922
  0
LINE
  8
0
 10
162
 20
4.96922
 11
161.264
 21
4.90819
  0
LINE
  8
0
 10
161.264
 20
4.90819
 11
160.359
 21
4.51149
  0
LINE
  8
0
 10
160.359
 20
4.51149
 11
159.804
 21
4
  0
LINE
  8
0
 10
159.804
 20
4
 11
120.5
 21
4
  0
LINE
  8
0
 10
120.5
 20
4
 11
120.5
 21
7.23268
  0
LINE
  8
0
 10
120.5
 20
7.23268
 11
121.159
 21
7.04523
  0
LINE
  8
0
 10
121.159
 20
7.04523
 11
121.971
 21
6.70145
  0
LINE
  8
0
 10
121.971
 20
6.70145
 11
121.858
 21
7.48605
  0
LINE
  8
0
 10
121.858
 20
7.48605
 11
121.444
 21
8.39224
  0
LINE
  8
0
 10
121.444
 20
8.39224
 11
120.792
 21
9.14511
  0
LINE
  8
0
 10
120.792
 20
9.14511
 11
119.954
 21
9.6837
  0
LINE
  8
0
 10
119.954
 20
9.6837
 11
118.998
 21
9.96437
  0
LINE
  8
0
 10
118.998
 20
9.96437
 11
118.002
 21
9.96437
  0
LINE
  8
0
 10
118.002
 20
9.96437
 11
117.046
 21
9.6837
  0
LINE
  8
0
 10
117.046
 20
9.6837
 11
116.208
 21
9.14511
  0
LINE
  8
0
 10
116.208
 20
9.14511
 11
115.556
 21
8.39224
  0
LINE
  8
0
 10
115.556
 20
8.39224
 11
115.142
 21
7.48605
  0
LINE
  8
0
 10
115.142
 20
7.48605
 11
115.027
 21
6.69083
  0
LINE
  8
0
 10
115.027
 20
6.69083
 11
115.382
 21
6.86723
  0
LINE
  8
0
 10
115.382
 20
6.86723
 11
116.311
 21
7.1946
  0
LINE
  8
0
 10
116.311
 20
7.1946
 11
116.5
 21
7.23605
  0
LINE
  8
0
 10
116.5
 20
7.23605
 11
116.5
 21
4
  0
LINE
  8
0
 10
116.5
 20
4
 11
41.5
 21
4
  0
LINE
  8
0
 10
41.5
 20
4
 11
41.5
 21
7.23268
  0
LINE
  8
0
 10
41.5
 20
7.23268
 11
42.1588
 21
7.04523
  0
LINE
  8
0
 10
42.1588
 20
7.04523
 11
42.971
 21
6.70145
  0
LINE
  8
0
 10
42.971
 20
6.70145
 11
42.8582
 21
7.48605
  0
LINE
  8
0
 10
42.8582
 20
7.48605
 11
42.4444
 21
8.39224
  0
LINE
  8
0
 10
42.4444
 20
8.39224
 11
41.792
 21
9.14511
  0
LINE
  8
0
 10
41.792
 20
9.14511
 11
40.9539
 21
9.6837
  0
LINE
  8
0
 10
40.9539
 20
9.6837
 11
39.9981
 21
9.96437
  0
LINE
  8
0
 10
39.9981
 20
9.96437
 11
39.0019
 21
9.96437
  0
LINE
  8
0
 10
39.0019
 20
9.96437
 11
38.046
 21
9.6837
  0
LINE
  8
0
 10
38.046
 20
9.6837
 11
37.208
 21
9.14511
  0
LINE
  8
0
 10
37.208
 20
9.14511
 11
36.5556
 21
8.39224
  0
LINE
  8
0
 10
36.5556
 20
8.39224
 11
36.1418
 21
7.48605
  0
LINE
  8
0
 10
36.1418
 20
7.48605
 11
36.0274
 21
6.69083
  0
LINE
  8
0
 10
36.0274
 20
6.69083
 11
36.3817
 21
6.86723
  0
LINE
  8
0
 10
36.3817
 20
6.86723
 11
37.3107
 21
7.1946
  0
LINE
  8
0
 10
37.3107
 20
7.1946
 11
37.5
 21
7.23605
  0
LINE
  8
0
 10
37.5
 20
7.23605
 11
37.5
 21
4
  0
LINE
  8
0
 10
37.5
 20
4
 11
-37.5
 21
4
  0
LINE
  8
0
 10
-37.5
 20
4
 11
-37.5
 21
7.23268
  0
LINE
  8
0
 10
-37.5
 20
7.23268
 11
-36.8412
 21
7.04523
  0
LINE
  8
0
 10
-36.8412
 20
7.04523
 11
-36.029
 21
6.70145
  0
LINE
  8
0
 10
-36.029
 20
6.70145
 11
-36.1418
 21
7.48605
  0
LINE
  8
0
 10
-36.1418
 20
7.48605
 11
-36.5556
 21
8.39224
  0
LINE
  8
0
 10
-36.5556
 20
8.39224
 11
-37.208
 21
9.14511
  0
LINE
  8
0
 10
-37.208
 20
9.14511
 11
-38.046
 21
9.6837
  0
LINE
  8
0
 10
-38.046
 20
9.6837
 11
-39.0019
 21
9.96437
  0
LINE
  8
0
 10
-39.0019
 20
9.96437
 11
-39.9981
 21
9.96437
  0
LINE
  8
0
 10
-39.9981
 20
9.96437
 11
-40.9539
 21
9.6837
  0
LINE
  8
0
 10
-40.9539
 20
9.6837
 11
-41.792
 21
9.14511
  0
LINE
  8
0
 10
-41.792
 20
9.14511
 11
-42.4444
 21
8.39224
  0
LINE
  8
0
 10
-42.4444
 20
8.39224
 11
-42.8582
 21
7.48605
  0
LINE
  8
0
 10
-42.8582
 20
7.48605
 11
-42.9725
 21
6.69083
  0
LINE
  8
0
 10
-42.9725
 20
6.69083
 11
-42.6183
 21
6.86723
  0
LINE
  8
0
 10
-42.6183
 20
6.86723
 11
-41.6893
 21
7.1946
  0
LINE
  8
0
 10
-41.6893
 20
7.1946
 11
-41.5
 21
7.23605
  0
LINE
  8
0
 10
-41.5
 20
7.23605
 11
-41.5
 21
4
  0
LINE
  8
0
 10
-41.5
 20
4
 11
-116.5
 21
4
  0
LINE
  8
0
 10
-116.5
 20
4
 11
-116.5
 21
7.23268
  0
LINE
  8
0
 10
-116.5
 20
7.23268
 11
-115.841
 21
7.04523
  0
LINE
  8
0
 10
-115.841
 20
7.04523
 11
-115.029
 21
6.70145
  0
LINE
  8
0
 10
-115.029
 20
6.70145
 11
-115.142
 21
7.48605
  0
LINE
  8
0
 10
-115.142
 20
7.48605
 11
-115.556
 21
8.39224
  0
LINE
  8
0
 10
-115.556
 20
8.39224
 11
-116.208
 21
9.14511
  0
LINE
  8
0
 10
-116.208
 20
9.14511
 11
-117.046
 21
9.6837
  0
LINE
  8
0
 10
-117.046
 20
9.6837
 11
-118.002
 21
9.96437
  0
LINE
  8
0
 10
-118.002
 20
9.96437
 11
-118.998
 21
9.96437
  0
LINE
  8
0
 10
-118.998
 20
9.96437
 11
-119.954
 21
9.6837
  0
LINE
  8
0
 10
-119.954
 20
9.6837
 11
-120.792
 21
9.14511
  0
LINE
  8
0
 10
-120.792
 20
9.14511
 11
-121.444
 21
8.39224
  0
LINE
  8
0
 10
-121.444
 20
8.39224
 11
-121.858
 21
7.48605
  0
LINE
  8
0
 10
-121.858
 20
7.48605
 11
-121.973
 21
6.69083
  0
LINE
  8
0
 10
-121.973
 20
6.69083
 11
-121.618
 21
6.86723
  0
LINE
  8
0
 10
-121.618
 20
6.86723
 11
-120.689
 21
7.1946
  0
LINE
  8
0
 10
-120.689
 20
7.1946
 11
-120.5
 21
7.23605
  0
LINE
  8
0
 10
-120.5
 20
7.23605
 11
-120.5
 21
4
  0
LINE
  8
0
 10
-120.5
 20
4
 11
-159.804
 21
4
  0
LINE
  8
0
 10
-159.804
 20
4
 11
-160.359
 21
4.51149
  0
LINE
  8
0
 10
-160.359
 20
4.51149
 11
-161.264
 21
4.90819
  0
LINE
  8
0
 10
-161.264
 20
4.90819
 11
-162
 21
4.96922
  0
LINE
  8
0
 10
-162
 20
4.96922
 11
-162
 21
5
  0
LINE
  8
0
 10
-162
 20
5
 11
-188
 21
5
  0
LINE
  8
0
 10
-188
 20
5
 11
-188
 21
4.96922
  0
LINE
  8
0
 10
-188
 20
4.96922
 11
-188.736
 21
4.90819
  0
LINE
  8
0
 10
-188.736
 20
4.90819
 11
-189.641
 21
4.51149
  0
LINE
  8
0
 10
-189.641
 20
4.51149
 11
-190.196
 21
4
  0
LINE
  8
0
 10
-190.196
 20
4
 11
-193
 21
4
  0
LINE
  8
0
 10
-193
 20
4
 11
-193
 21
7.23268
  0
LINE
  8
0
 10
-193
 20
7.23268
 11
-192.341
 21
7.04523
  0
LINE
  8
0
 10
-192.341
 20
7.04523
 11
-191.529
 21
6.70145
  0
LINE
  8
0
 10
-191.529
 20
6.70145
 11
-191.642
 21
7.48605
  0
LINE
  8
0
 10
-191.642
 20
7.48605
 11
-192.056
 21
8.39224
  0
LINE
  8
0
 10
-192.056
 20
8.39224
 11
-192.708
 21
9.14511
  0
LINE
  8
0
 10
-192.708
 20
9.14511
 11
-193.546
 21
9.6837
  0
LINE
  8
0
 10
-193.546
 20
9.6837
 11
-194.502
 21
9.96437
  0
LINE
  8
0
 10
-194.502
 20
9.96437
 11
-195.498
 21
9.96437
  0
LINE
  8
0
 10
-195.498
 20
9.96437
 11
-196.454
 21
9.6837
  0
LINE
  8
0
 10
-196.454
 20
9.6837
 11
-197.292
 21
9.14511
  0
LINE
  8
0
 10
-197.292
 20
9.14511
 11
-197.944
 21
8.39224
  0
LINE
  8
0
 10
-197.944
 20
8.39224
 11
-198.358
 21
7.48605
  0
LINE
  8
0
 10
-198.358
 20
7.48605
 11
-198.473
 21
6.69083
  0
LINE
  8
0
 10
-198.473
 20
6.69083
 11
-198.118
 21
6.86723
  0
LINE
  8
0
 10
-198.118
 20
6.86723
 11
-197.189
 21
7.1946
  0
LINE
  8
0
 10
-197.189
 20
7.1946
 11
-197
 21
7.23605
  0
LINE
  8
0
 10
-197
 20
7.23605
 11
-197
 21
4
  0
LINE
  8
0
 10
-197
 20
4
 11
-205
 21
4
  0
LINE
  8
0
 10
-205
 20
4
 11
-205
 21
3.97083
  0
LINE
  8
0
 10
-205
 20
3.97083
 11
-205.482
 21
3.97083
  0
LINE
  8
0
 10
-205.482
 20
3.97083
 11
-206.418
 21
3.74005
  0
LINE
  8
0
 10
-206.418
 20
3.74005
 11
-207.272
 21
3.29193
  0
LINE
  8
0
 10
-207.272
 20
3.29193
 11
-207.994
 21
2.65248
  0
LINE
  8
0
 10
-207.994
 20
2.65248
 11
-208.542
 21
1.85889
  0
LINE
  8
0
 10
-208.542
 20
1.85889
 11
-208.884
 21
0.95726
  0
LINE
  8
0
 10
-208.884
 20
0.95726
 11
-209
 21
0
  0
LINE
  8
0
 10
-209
 20
0
 11
-208.884
 21
-0.95726
  0
LINE
  8
0
 10
-208.884
 20
-0.95726
 11
-208.542
 21
-1.85889
  0
LINE
  8
0
 10
-208.542
 20
-1.85889
 11
-207.994
 21
-2.65248
  0
LINE
  8
0
 10
-207.994
 20
-2.65248
 11
-207.272
 21
-3.29193
  0
LINE
  8
0
 10
-207.272
 20
-3.29193
 11
-206.418
 21
-3.74005
  0
LINE
  8
0
 10
-206.418
 20
-3.74005
 11
-205.482
 21
-3.97083
  0
LINE
  8
0
 10
-205.482
 20
-3.97083
 11
-205
 21
-3.97083
  0
LINE
  8
0
 10
-205
 20
-3.97083
 11
-205
 21
-4
  0
LINE
  8
0
 10
-205
 20
-4
 11
-190.196
 21
-4
  0
LINE
  8
0
 10
-190.196
 20
-4
 11
-189.641
 21
-4.51149
  0
LINE
  8
0
 10
-189.641
 20
-4.51149
 11
-188.736
 21
-4.90819
  0
LINE
  8
0
 10
-188.736
 20
-4.90819
 11
-188
 21
-4.96922
  0
LINE
  8
0
 10
-188
 20
-4.96922
 11
-188
 21
-5
  0
LINE
  8
0
 10
-188
 20
-5
 11
-162
 21
-5
  0
LINE
  8
0
 10
-162
 20
-5
 11
-162
 21
-4.96922
  0
LINE
  8
0
 10
-165.49
 20
-2.14484
 11
-166.372
 21
-1.72002
  0
LINE
  8
0
 10
-166.372
 20
-1.72002
 11
-166.982
 21
-0.954544
  0
LINE
  8
0
 10
-166.982
 20
-0.954544
 11
-167.2
 21
0
  0
LINE
  8
0
 10
-167.2
 20
0
 11
-166.982
 21
0.954544
  0
LINE
  8
0
 10
-166.982
 20
0.954544
 11
-166.372
 21
1.72002
  0
LINE
  8
0
 10
-166.372
 20
1.72002
 11
-165.49
 21
2.14484
  0
LINE
  8
0
 10
-165.49
 20
2.14484
 11
-164.51
 21
2.14484
  0
LINE
  8
0
 10
-164.51
 20
2.14484
 11
-163.628
 21
1.72002
  0
LINE
  8
0
 10
-163.628
 20
1.72002
 11
-163.018
 21
0.954544
  0
LINE
  8
0
 10
-163.018
 20
0.954544
 11
-162.8
 21
0
  0
LINE
  8
0
 10
-162.8
 20
0
 11
-163.018
 21
-0.954544
  0
LINE
  8
0
 10
-163.018
 20
-0.954544
 11
-163.628
 21
-1.72002
  0
LINE
  8
0
 10
-163.628
 20
-1.72002
 11
-164.51
 21
-2.14484
  0
LINE
  8
0
 10
-164.51
 20
-2.14484
 11
-165.49
 21
-2.14484
  0
LINE
  8
0
 10
-185.49
 20
-2.14484
 11
-186.372
 21
-1.72002
  0
LINE
  8
0
 10
-186.372
 20
-1.72002
 11
-186.982
 21
-0.954544
  0
LINE
  8
0
 10
-186.982
 20
-0.954544
 11
-187.2
 21
0
  0
LINE
  8
0
 10
-187.2
 20
0
 11
-186.982
 21
0.954544
  0
LINE
  8
0
 10
-186.982
 20
0.954544
 11
-186.372
 21
1.72002
  0
LINE
  8
0
 10
-186.372
 20
1.72002
 11
-185.49
 21
2.14484
  0
LINE
  8
0
 10
-185.49
 20
2.14484
 11
-184.51
 21
2.14484
  0
LINE
  8
0
 10
-184.51
 20
2.14484
 11
-183.628
 21
1.72002
  0
LINE
  8
0
 10
-183.628
 20
1.72002
 11
-183.018
 21
0.954544
  0
LINE
  8
0
 10
-183.018
 20
0.954544
 11
-182.8
 21
0
  0
LINE
  8
0
 10
-182.8
 20
0
 11
-183.018
 21
-0.954544
  0
LINE
  8
0
 10
-183.018
 20
-0.954544
 11
-183.628
 21
-1.72002
  0
LINE
  8
0
 10
-183.628
 20
-1.72002
 11
-184.51
 21
-2.14484
  0
LINE
  8
0
 10
-184.51
 20
-2.14484
 11
-185.49
 21
-2.14484
  0
LINE
  8
0
 10
184.51
 20
-2.14484
 11
183.628
 21
-1.72002
  0
LINE
  8
0
 10
183.628
 20
-1.72002
 11
183.018
 21
-0.954544
  0
LINE
  8
0
 10
183.018
 20
-0.954544
 11
182.8
 21
0
  0
LINE
  8
0
 10
182.8
 20
0
 11
183.018
 21
0.954544
  0
LINE
  8
0
 10
183.018
 20
0.954544
 11
183.628
 21
1.72002
  0
LINE
  8
0
 10
183.628
 20
1.72002
 11
184.51
 21
2.14484
  0
LINE
  8
0
 10
184.51
 20
2.14484
 11
185.49
 21
2.14484
  0
LINE
  8
0
 10
185.49
 20
2.14484
 11
186.372
 21
1.72002
  0
LINE
  8
0
 10
186.372
 20
1.72002
 11
186.982
 21
0.954544
  0
LINE
  8
0
 10
186.982
 20
0.954544
 11
187.2
 21
0
  0
LINE
  8
0
 10
187.2
 20
0
 11
186.982
 21
-0.954544
  0
LINE
  8
0
 10
186.982
 20
-0.954544
 11
186.372
 21
-1.72002
  0
LINE
  8
0
 10
186.372
 20
-1.72002
 11
185.49
 21
-2.14484
  0
LINE
  8
0
 10
185.49
 20
-2.14484
 11
184.51
 21
-2.14484
  0
LINE
  8
0
 10
164.51
 20
-2.14484
 11
163.628
 21
-1.72002
  0
LINE
  8
0
 10
163.628
 20
-1.72002
 11
163.018
 21
-0.954544
  0
LINE
  8
0
 10
163.018
 20
-0.954544
 11
162.8
 21
0
  0
LINE
  8
0
 10
162.8
 20
0
 11
163.018
 21
0.954544
  0
LINE
  8
0
 10
163.018
 20
0.954544
 11
163.628
 21
1.72002
  0
LINE
  8
0
 10
163.628
 20
1.72002
 11
164.51
 21
2.14484
  0
LINE
  8
0
 10
164.51
 20
2.14484
 11
165.49
 21
2.14484
  0
LINE
  8
0
 10
165.49
 20
2.14484
 11
166.372
 21
1.72002
  0
LINE
  8
0
 10
166.372
 20
1.72002
 11
166.982
 21
0.954544
  0
LINE
  8
0
 10
166.982
 20
0.954544
 11
167.2
 21
0
  0
LINE
  8
0
 10
167.2
 20
0
 11
166.982
 21
-0.954544
  0
LINE
  8
0
 10
166.982
 20
-0.954544
 11
166.372
 21
-1.72002
  0
LINE
  8
0
 10
166.372
 20
-1.72002
 11
165.49
 21
-2.14484
  0
LINE
  8
0
 10
165.49
 20
-2.14484
 11
164.51
 21
-2.14484
  0
LINE
  8
0
 10
-205.709
 20
-1.87003
 11
-206.497
 21
-1.32623
  0
LINE
  8
0
 10
-206.497
 20
-1.32623
 11
-206.942
 21
-0.478622
  0
LINE
  8
0
 10
-206.942
 20
-0.478622
 11
-206.942
 21
0.478622
  0
LINE
  8
0
 10
-206.942
 20
0.478622
 11
-206.497
 21
1.32623
  0
LINE
  8
0
 10
-206.497
 20
1.32623
 11
-205.709
 21
1.87003
  0
LINE
  8
0
 10
-205.709
 20
1.87003
 11
-204.759
 21
1.98541
  0
LINE
  8
0
 10
-204.759
 20
1.98541
 11
-203.864
 21
1.64597
  0
LINE
  8
0
 10
-203.864
 20
1.64597
 11
-203.229
 21
0.929443
  0
LINE
  8
0
 10
-203.229
 20
0.929443
 11
-203
 21
0
  0
LINE
  8
0
 10
-203
 20
0
 11
-203.229
 21
-0.929443
  0
LINE
  8
0
 10
-203.229
 20
-0.929443
 11
-203.864
 21
-1.64597
  0
LINE
  8
0
 10
-203.864
 20
-1.64597
 11
-204.759
 21
-1.98541
  0
LINE
  8
0
 10
-204.759
 20
-1.98541
 11
-205.709
 21
-1.87003
  0
LINE
  8
0
 10
204.291
 20
-1.87003
 11
203.503
 21
-1.32623
  0
LINE
  8
0
 10
203.503
 20
-1.32623
 11
203.058
 21
-0.478622
  0
LINE
  8
0
 10
203.058
 20
-0.478622
 11
203.058
 21
0.478622
  0
LINE
  8
0
 10
203.058
 20
0.478622
 11
203.503
 21
1.32623
  0
LINE
  8
0
 10
203.503
 20
1.32623
 11
204.291
 21
1.87003
  0
LINE
  8
0
 10
204.291
 20
1.87003
 11
205.241
 21
1.98541
  0
LINE
  8
0
 10
205.241
 20
1.98541
 11
206.136
 21
1.64597
  0
LINE
  8
0
 10
206.136
 20
1.64597
 11
206.771
 21
0.929443
  0
LINE
  8
0
 10
206.771
 20
0.929443
 11
207
 21
0
  0
LINE
  8
0
 10
207
 20
0
 11
206.771
 21
-0.929443
  0
LINE
  8
0
 10
206.771
 20
-0.929443
 11
206.136
 21
-1.64597
  0
LINE
  8
0
 10
206.136
 20
-1.64597
 11
205.241
 21
-1.98541
  0
LINE
  8
0
 10
205.241
 20
-1.98541
 11
204.291
 21
-1.87003
  0
LINE
  8
0
 10
160
 20
-23.9708
 11
160.482
 21
-23.9708
  0
LINE
  8
0
 10
160.482
 20
-23.9708
 11
161.418
 21
-23.7401
  0
LINE
  8
0
 10
161.418
 20
-23.7401
 11
162.272
 21
-23.2919
  0
LINE
  8
0
 10
162.272
 20
-23.2919
 11
162.994
 21
-22.6525
  0
LINE
  8
0
 10
162.994
 20
-22.6525
 11
163.542
 21
-21.8589
  0
LINE
  8
0
 10
163.542
 20
-21.8589
 11
163.884
 21
-20.9573
  0
LINE
  8
0
 10
163.884
 20
-20.9573
 11
164
 21
-20
  0
LINE
  8
0
 10
164
 20
-20
 11
163.884
 21
-19.0427
  0
LINE
  8
0
 10
163.884
 20
-19.0427
 11
163.542
 21
-18.1411
  0
LINE
  8
0
 10
163.542
 20
-18.1411
 11
162.994
 21
-17.3475
  0
LINE
  8
0
 10
162.994
 20
-17.3475
 11
162.272
 21
-16.7081
  0
LINE
  8
0
 10
162.272
 20
-16.7081
 11
161.418
 21
-16.2599
  0
LINE
  8
0
 10
161.418
 20
-16.2599
 11
160.482
 21
-16.0292
  0
LINE
  8
0
 10
160.482
 20
-16.0292
 11
160
 21
-16.0292
  0
LINE
  8
0
 10
160
 20
-16.0292
 11
160
 21
-16
  0
LINE
  8
0
 10
160
 20
-16
 11
-160
 21
-16
  0
LINE
  8
0
 10
-160
 20
-16
 11
-160
 21
-16.0292
  0
LINE
  8
0
 10
-160
 20
-16.0292
 11
-160.482
 21
-16.0292
  0
LINE
  8
0
 10
-160.482
 20
-16.0292
 11
-161.418
 21
-16.2599
  0
LINE
  8
0
 10
-161.418
 20
-16.2599
 11
-162.272
 21
-16.7081
  0
LINE
  8
0
 10
-162.272
 20
-16.7081
 11
-162.994
 21
-17.3475
  0
LINE
  8
0
 10
-162.994
 20
-17.3475
 11
-163.542
 21
-18.1411
  0
LINE
  8
0
 10
-163.542
 20
-18.1411
 11
-163.884
 21
-19.0427
  0
LINE
  8
0
 10
-163.884
 20
-19.0427
 11
-164
 21
-20
  0
LINE
  8
0
 10
-164
 20
-20
 11
-163.884
 21
-20.9573
  0
LINE
  8
0
 10
-163.884
 20
-20.9573
 11
-163.542
 21
-21.8589
  0
LINE
  8
0
 10
-163.542
 20
-21.8589
 11
-162.994
 21
-22.6525
  0
LINE
  8
0
 10
-162.994
 20
-22.6525
 11
-162.272
 21
-23.2919
  0
LINE
  8
0
 10
-162.272
 20
-23.2919
 11
-161.418
 21
-23.7401
  0
LINE
  8
0
 10
-161.418
 20
-23.7401
 11
-160.482
 21
-23.9708
  0
LINE
  8
0
 10
-160.482
 20
-23.9708
 11
-160
 21
-23.9708
  0
LINE
  8
0
 10
-160
 20
-23.9708
 11
-160
 21
-24
  0
LINE
  8
0
 10
-160
 20
-24
 11
160
 21
-24
  0
LINE
  8
0
 10
160
 20
-24
 11
160
 21
-23.9708
  0
LINE
  8
0
 10
159.51
 20
-22.1448
 11
158.628
 21
-21.72
  0
LINE
  8
0
 10
158.628
 20
-21.72
 11
158.018
 21
-20.9545
  0
LINE
  8
0
 10
158.018
 20
-20.9545
 11
157.8
 21
-20
  0
LINE
  8
0
 10
157.8
 20
-20
 11
158.018
 21
-19.0455
  0
LINE
  8
0
 10
158.018
 20
-19.0455
 11
158.628
 21
-18.28
  0
LINE
  8
0
 10
158.628
 20
-18.28
 11
159.51
 21
-17.8551
  0
LINE
  8
0
 10
159.51
 20
-17.8551
 11
160.49
 21
-17.8551
  0
LINE
  8
0
 10
160.49
 20
-17.8551
 11
161.372
 21
-18.28
  0
LINE
  8
0
 10
161.372
 20
-18.28
 11
161.982
 21
-19.0455
  0
LINE
  8
0
 10
161.982
 20
-19.0455
 11
162.2
 21
-20
  0
LINE
  8
0
 10
162.2
 20
-20
 11
161.982
 21
-20.9545
  0
LINE
  8
0
 10
161.982
 20
-20.9545
 11
161.372
 21
-21.72
  0
LINE
  8
0
 10
161.372
 20
-21.72
 11
160.49
 21
-22.1448
  0
LINE
  8
0
 10
160.49
 20
-22.1448
 11
159.51
 21
-22.1448
  0
LINE
  8
0
 10
-160.49
 20
-22.1448
 11
-161.372
 21
-21.72
  0
LINE
  8
0
 10
-161.372
 20
-21.72
 11
-161.982
 21
-20.9545
  0
LINE
  8
0
 10
-161.982
 20
-20.9545
 11
-162.2
 21
-20
  0
LINE
  8
0
 10
-162.2
 20
-20
 11
-161.982
 21
-19.0455
  0
LINE
  8
0
 10
-161.982
 20
-19.0455
 11
-161.372
 21
-18.28
  0
LINE
  8
0
 10
-161.372
 20
-18.28
 11
-160.49
 21
-17.8551
  0
LINE
  8
0
 10
-160.49
 20
-17.8551
 11
-159.51
 21
-17.8551
  0
LINE
  8
0
 10
-159.51
 20
-17.8551
 11
-158.628
 21
-18.28
  0
LINE
  8
0
 10
-158.628
 20
-18.28
 11
-158.018
 21
-19.0455
  0
LINE
  8
0
 10
-158.018
 20
-19.0455
 11
-157.8
 21
-20
  0
LINE
  8
0
 10
-157.8
 20
-20
 11
-158.018
 21
-20.9545
  0
LINE
  8
0
 10
-158.018
 20
-20.9545
 11
-158.628
 21
-21.72
  0
LINE
  8
0
 10
-158.628
 20
-21.72
 11
-159.51
 21
-22.1448
  0
LINE
  8
0
 10
-159.51
 20
-22.1448
 11
-160.49
 21
-22.1448
  0
LINE
  8
0
 10
139.51
 20
-22.1448
 11
138.628
 21
-21.72
  0
LINE
  8
0
 10
138.628
 20
-21.72
 11
138.018
 21
-20.9545
  0
LINE
  8
0
 10
138.018
 20
-20.9545
 11
137.8
 21
-20
  0
LINE
  8
0
 10
137.8
 20
-20
 11
138.018
 21
-19.0455
  0
LINE
  8
0
 10
138.018
 20
-19.0455
 11
138.628
 21
-18.28
  0
LINE
  8
0
 10
138.628
 20
-18.28
 11
139.51
 21
-17.8551
  0
LINE
  8
0
 10
139.51
 20
-17.8551
 11
140.49
 21
-17.8551
  0
LINE
  8
0
 10
140.49
 20
-17.8551
 11
141.372
 21
-18.28
  0
LINE
  8
0
 10
141.372
 20
-18.28
 11
141.982
 21
-19.0455
  0
LINE
  8
0
 10
141.982
 20
-19.0455
 11
142.2
 21
-20
  0
LINE
  8
0
 10
142.2
 20
-20
 11
141.982
 21
-20.9545
  0
LINE
  8
0
 10
141.982
 20
-20.9545
 11
141.372
 21
-21.72
  0
LINE
  8
0
 10
141.372
 20
-21.72
 11
140.49
 21
-22.1448
  0
LINE
  8
0
 10
140.49
 20
-22.1448
 11
139.51
 21
-22.1448
  0
LINE
  8
0
 10
-140.49
 20
-22.1448
 11
-141.372
 21
-21.72
  0
LINE
  8
0
 10
-141.372
 20
-21.72
 11
-141.982
 21
-20.9545
  0
LINE
  8
0
 10
-141.982
 20
-20.9545
 11
-142.2
 21
-20
  0
LINE
  8
0
 10
-142.2
 20
-20
 11
-141.982
 21
-19.0455
  0
LINE
  8
0
 10
-141.982
 20
-19.0455
 11
-141.372
 21
-18.28
  0
LINE
  8
0
 10
-141.372
 20
-18.28
 11
-140.49
 21
-17.8551
  0
LINE
  8
0
 10
-140.49
 20
-17.8551
 11
-139.51
 21
-17.8551
  0
LINE
  8
0
 10
-139.51
 20
-17.8551
 11
-138.628
 21
-18.28
  0
LINE
  8
0
 10
-138.628
 20
-18.28
 11
-138.018
 21
-19.0455
  0
LINE
  8
0
 10
-138.018
 20
-19.0455
 11
-137.8
 21
-20
  0
LINE
  8
0
 10
-137.8
 20
-20
 11
-138.018
 21
-20.9545
  0
LINE
  8
0
 10
-138.018
 20
-20.9545
 11
-138.628
 21
-21.72
  0
LINE
  8
0
 10
-138.628
 20
-21.72
 11
-139.51
 21
-22.1448
  0
LINE
  8
0
 10
-139.51
 20
-22.1448
 11
-140.49
 21
-22.1448
  0
ENDSEC
  0
SECTION
  2
OBJECTS
  0
DICTIONARY
  0
ENDSEC
  0
EOF
