<?xml version="1.0" standalone="no"?>
<!DOCTYPE svg PUBLIC "-//W3C//DTD SVG 1.1//EN" "http://www.w3.org/Graphics/SVG/1.1/DTD/svg11.dtd">
<svg width="418mm" height="34mm" viewBox="-209 -10 418 34" xmlns="http://www.w3.org/2000/svg" version="1.1">
<title>OpenSCAD Model</title>
<path d="
M -162,4.96922 L -161.264,4.90819 L -160.359,4.51149 L -159.804,4 L 159.804,4 L 160.359,4.51149
 L 161.264,4.90819 L 162,4.96922 L 162,5 L 188,5 L 188,4.96922 L 188.736,4.90819
 L 189.641,4.51149 L 190.196,4 L 205,4 L 205,3.97083 L 205.482,3.97083 L 206.418,3.74005
 L 207.272,3.29193 L 207.994,2.65248 L 208.542,1.85889 L 208.884,0.95726 L 209,-0 L 208.884,-0.95726
 L 208.542,-1.85889 L 207.994,-2.65248 L 207.272,-3.29193 L 206.418,-3.74005 L 205.482,-3.97083 L 205,-3.97083
 L 205,-4 L 197,-4 L 197,-7.23268 L 197.659,-7.04523 L 198.471,-6.70145 L 198.358,-7.48605
 L 197.944,-8.39224 L 197.292,-9.14511 L 196.454,-9.6837 L 195.498,-9.96437 L 194.502,-9.96437 L 193.546,-9.6837
 L 192.708,-9.14511 L 192.056,-8.39224 L 191.642,-7.48605 L 191.527,-6.69083 L 191.882,-6.86723 L 192.811,-7.1946
 L 193,-7.23605 L 193,-4 L 190.196,-4 L 189.641,-4.51149 L 188.736,-4.90819 L 188,-4.96922
 L 188,-5 L 162,-5 L 162,-4.96922 L 161.264,-4.90819 L 160.359,-4.51149 L 159.804,-4
 L 120.5,-4 L 120.5,-7.23268 L 121.159,-7.04523 L 121.971,-6.70145 L 121.858,-7.48605 L 121.444,-8.39224
 L 120.792,-9.14511 L 119.954,-9.6837 L 118.998,-9.96437 L 118.002,-9.96437 L 117.046,-9.6837 L 116.208,-9.14511
 L 115.556,-8.39224 L 115.142,-7.48605 L 115.027,-6.69083 L 115.382,-6.86723 L 116.311,-7.1946 L 116.5,-7.23605
 L 116.5,-4 L 41.5,-4 L 41.5,-7.23268 L 42.1588,-7.04523 L 42.971,-6.70145 L 42.8582,-7.48605
 L 42.4444,-8.39224 L 41.792,-9.14511 L 40.9539,-9.6837 L 39.9981,-9.96437 L 39.0019,-9.96437 L 38.046,-9.6837
 L 37.208,-9.14511 L 36.5556,-8.39224 L 36.1418,-7.48605 L 36.0274,-6.69083 L 36.3817,-6.86723 L 37.3107,-7.1946
 L 37.5,-7.23605 L 37.5,-4 L -37.5,-4 L -37.5,-7.23268 L -36.8412,-7.04523 L -36.029,-6.70145
 L -36.1418,-7.48605 L -36.5556,-8.39224 L -37.208,-9.14511 L -38.046,-9.6837 L -39.0019,-9.96437 L -39.9981,-9.96437
 L -40.9539,-9.6837 L -41.792,-9.14511 L -42.4444,-8.39224 L -42.8582,-7.48605 L -42.9725,-6.69083 L -42.6183,-6.86723
 L -41.6893,-7.1946 L -41.5,-7.23605 L -41.5,-4 L -116.5,-4 L -116.5,-7.23268 L -115.841,-7.04523
 L -115.029,-6.70145 L -115.142,-7.48605 L -115.556,-8.39224 L -116.208,-9.14511 L -117.046,-9.6837 L -118.002,-9.96437
 L -118.998,-9.96437 L -119.954,-9.6837 L -120.792,-9.14511 L -121.444,-8.39224 L -121.858,-7.48605 L -121.973,-6.69083
 L -121.618,-6.86723 L -120.689,-7.1946 L -120.5,-7.23605 L -120.5,-4 L -159.804,-4 L -160.359,-4.51149
 L -161.264,-4.90819 L -162,-4.96922 L -162,-5 L -188,-5 L -188,-4.96922 L -188.736,-4.90819
 L -189.641,-4.51149 L -190.196,-4 L -193,-4 L -193,-7.23268 L -192.341,-7.04523 L -191.529,-6.70145
 L -191.642,-7.48605 L -192.056,-8.39224 L -192.708,-9.14511 L -193.546,-9.6837 L -194.502,-9.96437 L -195.498,-9.96437
 L -196.454,-9.6837 L -197.292,-9.14511 L -197.944,-8.39224 L -198.358,-7.48605 L -198.473,-6.69083 L -198.118,-6.86723
 L -197.189,-7.1946 L -197,-7.23605 L -197,-4 L -205,-4 L -205,-3.97083 L -205.482,-3.97083
 L -206.418,-3.74005 L -207.272,-3.29193 L -207.994,-2.65248 L -208.542,-1.85889 L -208.884,-0.95726 L -209,-0
 L -208.884,0.95726 L -208.542,1.85889 L -207.994,2.65248 L -207.272,3.29193 L -206.418,3.74005 L -205.482,3.97083
 L -205,3.97083 L -205,4 L -190.196,4 L -189.641,4.51149 L -188.736,4.90819 L -188,4.96922
 L -188,5 L -162,5 z
M -165.49,2.14484 L -166.372,1.72002 L -166.982,0.954544 L -167.2,-0 L -166.982,-0.954544 L -166.372,-1.72002
 L -165.49,-2.14484 L -164.51,-2.14484 L -163.628,-1.72002 L -163.018,-0.954544 L -162.8,-0 L -163.018,0.954544
 L -163.628,1.72002 L -164.51,2.14484 z
M -185.49,2.14484 L -186.372,1.72002 L -186.982,0.954544 L -187.2,-0 L -186.982,-0.954544 L -186.372,-1.72002
 L -185.49,-2.14484 L -184.51,-2.14484 L -183.628,-1.72002 L -183.018,-0.954544 L -182.8,-0 L -183.018,0.954544
 L -183.628,1.72002 L -184.51,2.14484 z
M 184.51,2.14484 L 183.628,1.72002 L 183.018,0.954544 L 182.8,-0 L 183.018,-0.954544 L 183.628,-1.72002
 L 184.51,-2.14484 L 185.49,-2.14484 L 186.372,-1.72002 L 186.982,-0.954544 L 187.2,-0 L 186.982,0.954544
 L 186.372,1.72002 L 185.49,2.14484 z
M 164.51,2.14484 L 163.628,1.72002 L 163.018,0.954544 L 162.8,-0 L 163.018,-0.954544 L 163.628,-1.72002
 L 164.51,-2.14484 L 165.49,-2.14484 L 166.372,-1.72002 L 166.982,-0.954544 L 167.2,-0 L 166.982,0.954544
 L 166.372,1.72002 L 165.49,2.14484 z
M -205.709,1.87003 L -206.497,1.32623 L -206.942,0.478622 L -206.942,-0.478622 L -206.497,-1.32623 L -205.709,-1.87003
 L -204.759,-1.98541 L -203.864,-1.64597 L -203.229,-0.929443 L -203,-0 L -203.229,0.929443 L -203.864,1.64597
 L -204.759,1.98541 z
M 204.291,1.87003 L 203.503,1.32623 L 203.058,0.478622 L 203.058,-0.478622 L 203.503,-1.32623 L 204.291,-1.87003
 L 205.241,-1.98541 L 206.136,-1.64597 L 206.771,-0.929443 L 207,-0 L 206.771,0.929443 L 206.136,1.64597
 L 205.241,1.98541 z
M 160,23.9708 L 160.482,23.9708 L 161.418,23.7401 L 162.272,23.2919 L 162.994,22.6525 L 163.542,21.8589
 L 163.884,20.9573 L 164,20 L 163.884,19.0427 L 163.542,18.1411 L 162.994,17.3475 L 162.272,16.7081
 L 161.418,16.2599 L 160.482,16.0292 L 160,16.0292 L 160,16 L -160,16 L -160,16.0292
 L -160.482,16.0292 L -161.418,16.2599 L -162.272,16.7081 L -162.994,17.3475 L -163.542,18.1411 L -163.884,19.0427
 L -164,20 L -163.884,20.9573 L -163.542,21.8589 L -162.994,22.6525 L -162.272,23.2919 L -161.418,23.7401
 L -160.482,23.9708 L -160,23.9708 L -160,24 L 160,24 z
M 159.51,22.1448 L 158.628,21.72 L 158.018,20.9545 L 157.8,20 L 158.018,19.0455 L 158.628,18.28
 L 159.51,17.8551 L 160.49,17.8551 L 161.372,18.28 L 161.982,19.0455 L 162.2,20 L 161.982,20.9545
 L 161.372,21.72 L 160.49,22.1448 z
M -160.49,22.1448 L -161.372,21.72 L -161.982,20.9545 L -162.2,20 L -161.982,19.0455 L -161.372,18.28
 L -160.49,17.8551 L -159.51,17.8551 L -158.628,18.28 L -158.018,19.0455 L -157.8,20 L -158.018,20.9545
 L -158.628,21.72 L -159.51,22.1448 z
M 139.51,22.1448 L 138.628,21.72 L 138.018,20.9545 L 137.8,20 L 138.018,19.0455 L 138.628,18.28
 L 139.51,17.8551 L 140.49,17.8551 L 141.372,18.28 L 141.982,19.0455 L 142.2,20 L 141.982,20.9545
 L 141.372,21.72 L 140.49,22.1448 z
M -140.49,22.1448 L -141.372,21.72 L -141.982,20.9545 L -142.2,20 L -141.982,19.0455 L -141.372,18.28
 L -140.49,17.8551 L -139.51,17.8551 L -138.628,18.28 L -138.018,19.0455 L -137.8,20 L -138.018,20.9545
 L -138.628,21.72 L -139.51,22.1448 z
" stroke="black" fill="lightgray" stroke-width="0.5"/>
</svg>
