  0
SECTION
  2
BLOCKS
  0
ENDSEC
  0
SECTION
  2
ENTITIES
  0
LINE
  8
0
 10
-138.5
 20
-8.96922
 11
-137.764
 21
-8.90819
  0
LINE
  8
0
 10
-137.764
 20
-8.90819
 11
-136.859
 21
-8.51149
  0
LINE
  8
0
 10
-136.859
 20
-8.51149
 11
-136.133
 21
-7.84264
  0
LINE
  8
0
 10
-136.133
 20
-7.84264
 11
-135.663
 21
-6.97409
  0
LINE
  8
0
 10
-135.663
 20
-6.97409
 11
-135.5
 21
-6
  0
LINE
  8
0
 10
-135.5
 20
-6
 11
-135.5
 21
-3
  0
LINE
  8
0
 10
-135.5
 20
-3
 11
135.5
 21
-3
  0
LINE
  8
0
 10
135.5
 20
-3
 11
135.5
 21
-6
  0
LINE
  8
0
 10
135.5
 20
-6
 11
135.663
 21
-6.97409
  0
LINE
  8
0
 10
135.663
 20
-6.97409
 11
136.133
 21
-7.84264
  0
LINE
  8
0
 10
136.133
 20
-7.84264
 11
136.859
 21
-8.51149
  0
LINE
  8
0
 10
136.859
 20
-8.51149
 11
137.764
 21
-8.90819
  0
LINE
  8
0
 10
137.764
 20
-8.90819
 11
138.5
 21
-8.96922
  0
LINE
  8
0
 10
138.5
 20
-8.96922
 11
138.5
 21
-9
  0
LINE
  8
0
 10
138.5
 20
-9
 11
186.5
 21
-9
  0
LINE
  8
0
 10
186.5
 20
-9
 11
186.5
 21
-8.96922
  0
LINE
  8
0
 10
186.5
 20
-8.96922
 11
187.236
 21
-8.90819
  0
LINE
  8
0
 10
187.236
 20
-8.90819
 11
188.141
 21
-8.51149
  0
LINE
  8
0
 10
188.141
 20
-8.51149
 11
188.867
 21
-7.84264
  0
LINE
  8
0
 10
188.867
 20
-7.84264
 11
189.337
 21
-6.97409
  0
LINE
  8
0
 10
189.337
 20
-6.97409
 11
189.5
 21
-6
  0
LINE
  8
0
 10
189.5
 20
-6
 11
189.5
 21
-3
  0
LINE
  8
0
 10
189.5
 20
-3
 11
312
 21
-3
  0
LINE
  8
0
 10
312
 20
-3
 11
312
 21
-2.97951
  0
LINE
  8
0
 10
312
 20
-2.97951
 11
312.495
 21
-2.97951
  0
LINE
  8
0
 10
312.495
 20
-2.97951
 11
313.473
 21
-2.81639
  0
LINE
  8
0
 10
313.473
 20
-2.81639
 11
313.544
 21
-2.79207
  0
LINE
  8
0
 10
313.544
 20
-2.79207
 11
313.581
 21
-2.91341
  0
LINE
  8
0
 10
313.581
 20
-2.91341
 11
314.043
 21
-3.77785
  0
LINE
  8
0
 10
314.043
 20
-3.77785
 11
314.664
 21
-4.53552
  0
LINE
  8
0
 10
314.664
 20
-4.53552
 11
315.422
 21
-5.15735
  0
LINE
  8
0
 10
315.422
 20
-5.15735
 11
316.287
 21
-5.61938
  0
LINE
  8
0
 10
316.287
 20
-5.61938
 11
317.225
 21
-5.90392
  0
LINE
  8
0
 10
317.225
 20
-5.90392
 11
318.2
 21
-6
  0
LINE
  8
0
 10
318.2
 20
-6
 11
368.2
 21
-6
  0
LINE
  8
0
 10
368.2
 20
-6
 11
369.175
 21
-5.90392
  0
LINE
  8
0
 10
369.175
 20
-5.90392
 11
370.113
 21
-5.61938
  0
LINE
  8
0
 10
370.113
 20
-5.61938
 11
370.978
 21
-5.15735
  0
LINE
  8
0
 10
370.978
 20
-5.15735
 11
371.736
 21
-4.53552
  0
LINE
  8
0
 10
371.736
 20
-4.53552
 11
372.357
 21
-3.77785
  0
LINE
  8
0
 10
372.357
 20
-3.77785
 11
372.819
 21
-2.91341
  0
LINE
  8
0
 10
372.819
 20
-2.91341
 11
373.104
 21
-1.97545
  0
LINE
  8
0
 10
373.104
 20
-1.97545
 11
373.2
 21
-1
  0
LINE
  8
0
 10
373.2
 20
-1
 11
373.2
 21
7
  0
LINE
  8
0
 10
373.2
 20
7
 11
373.104
 21
7.97545
  0
LINE
  8
0
 10
373.104
 20
7.97545
 11
372.819
 21
8.91341
  0
LINE
  8
0
 10
372.819
 20
8.91341
 11
372.357
 21
9.77785
  0
LINE
  8
0
 10
372.357
 20
9.77785
 11
371.736
 21
10.5355
  0
LINE
  8
0
 10
371.736
 20
10.5355
 11
370.978
 21
11.1573
  0
LINE
  8
0
 10
370.978
 20
11.1573
 11
370.113
 21
11.6194
  0
LINE
  8
0
 10
370.113
 20
11.6194
 11
369.175
 21
11.9039
  0
LINE
  8
0
 10
369.175
 20
11.9039
 11
368.2
 21
12
  0
LINE
  8
0
 10
368.2
 20
12
 11
318.2
 21
12
  0
LINE
  8
0
 10
318.2
 20
12
 11
317.225
 21
11.9039
  0
LINE
  8
0
 10
317.225
 20
11.9039
 11
316.287
 21
11.6194
  0
LINE
  8
0
 10
316.287
 20
11.6194
 11
315.422
 21
11.1573
  0
LINE
  8
0
 10
315.422
 20
11.1573
 11
314.664
 21
10.5355
  0
LINE
  8
0
 10
314.664
 20
10.5355
 11
314.043
 21
9.77785
  0
LINE
  8
0
 10
314.043
 20
9.77785
 11
313.581
 21
8.91341
  0
LINE
  8
0
 10
313.581
 20
8.91341
 11
313.544
 21
8.79207
  0
LINE
  8
0
 10
313.544
 20
8.79207
 11
313.473
 21
8.81639
  0
LINE
  8
0
 10
313.473
 20
8.81639
 11
312.495
 21
8.97951
  0
LINE
  8
0
 10
312.495
 20
8.97951
 11
312
 21
8.97951
  0
LINE
  8
0
 10
312
 20
8.97951
 11
312
 21
9
  0
LINE
  8
0
 10
312
 20
9
 11
199.5
 21
9
  0
LINE
  8
0
 10
199.5
 20
9
 11
199.5
 21
12.2327
  0
LINE
  8
0
 10
199.5
 20
12.2327
 11
200.159
 21
12.0452
  0
LINE
  8
0
 10
200.159
 20
12.0452
 11
201.066
 21
11.6613
  0
LINE
  8
0
 10
201.066
 20
11.6613
 11
201.49
 21
11.4165
  0
LINE
  8
0
 10
201.49
 20
11.4165
 11
201.5
 21
11.5
  0
LINE
  8
0
 10
201.5
 20
11.5
 11
201.384
 21
12.4573
  0
LINE
  8
0
 10
201.384
 20
12.4573
 11
201.042
 21
13.3589
  0
LINE
  8
0
 10
201.042
 20
13.3589
 11
200.494
 21
14.1525
  0
LINE
  8
0
 10
200.494
 20
14.1525
 11
199.772
 21
14.7919
  0
LINE
  8
0
 10
199.772
 20
14.7919
 11
198.918
 21
15.2401
  0
LINE
  8
0
 10
198.918
 20
15.2401
 11
197.982
 21
15.4708
  0
LINE
  8
0
 10
197.982
 20
15.4708
 11
197.018
 21
15.4708
  0
LINE
  8
0
 10
197.018
 20
15.4708
 11
196.082
 21
15.2401
  0
LINE
  8
0
 10
196.082
 20
15.2401
 11
195.228
 21
14.7919
  0
LINE
  8
0
 10
195.228
 20
14.7919
 11
194.506
 21
14.1525
  0
LINE
  8
0
 10
194.506
 20
14.1525
 11
193.958
 21
13.3589
  0
LINE
  8
0
 10
193.958
 20
13.3589
 11
193.616
 21
12.4573
  0
LINE
  8
0
 10
193.616
 20
12.4573
 11
193.5
 21
11.5
  0
LINE
  8
0
 10
193.5
 20
11.5
 11
193.508
 21
11.4323
  0
LINE
  8
0
 10
193.508
 20
11.4323
 11
194.382
 21
11.8672
  0
LINE
  8
0
 10
194.382
 20
11.8672
 11
195.311
 21
12.1946
  0
LINE
  8
0
 10
195.311
 20
12.1946
 11
195.5
 21
12.2361
  0
LINE
  8
0
 10
195.5
 20
12.2361
 11
195.5
 21
9
  0
LINE
  8
0
 10
195.5
 20
9
 11
120.5
 21
9
  0
LINE
  8
0
 10
120.5
 20
9
 11
120.5
 21
12.2327
  0
LINE
  8
0
 10
120.5
 20
12.2327
 11
121.159
 21
12.0452
  0
LINE
  8
0
 10
121.159
 20
12.0452
 11
122.066
 21
11.6613
  0
LINE
  8
0
 10
122.066
 20
11.6613
 11
122.49
 21
11.4165
  0
LINE
  8
0
 10
122.49
 20
11.4165
 11
122.5
 21
11.5
  0
LINE
  8
0
 10
122.5
 20
11.5
 11
122.384
 21
12.4573
  0
LINE
  8
0
 10
122.384
 20
12.4573
 11
122.042
 21
13.3589
  0
LINE
  8
0
 10
122.042
 20
13.3589
 11
121.494
 21
14.1525
  0
LINE
  8
0
 10
121.494
 20
14.1525
 11
120.772
 21
14.7919
  0
LINE
  8
0
 10
120.772
 20
14.7919
 11
119.918
 21
15.2401
  0
LINE
  8
0
 10
119.918
 20
15.2401
 11
118.982
 21
15.4708
  0
LINE
  8
0
 10
118.982
 20
15.4708
 11
118.018
 21
15.4708
  0
LINE
  8
0
 10
118.018
 20
15.4708
 11
117.082
 21
15.2401
  0
LINE
  8
0
 10
117.082
 20
15.2401
 11
116.228
 21
14.7919
  0
LINE
  8
0
 10
116.228
 20
14.7919
 11
115.506
 21
14.1525
  0
LINE
  8
0
 10
115.506
 20
14.1525
 11
114.958
 21
13.3589
  0
LINE
  8
0
 10
114.958
 20
13.3589
 11
114.616
 21
12.4573
  0
LINE
  8
0
 10
114.616
 20
12.4573
 11
114.5
 21
11.5
  0
LINE
  8
0
 10
114.5
 20
11.5
 11
114.508
 21
11.4323
  0
LINE
  8
0
 10
114.508
 20
11.4323
 11
115.382
 21
11.8672
  0
LINE
  8
0
 10
115.382
 20
11.8672
 11
116.311
 21
12.1946
  0
LINE
  8
0
 10
116.311
 20
12.1946
 11
116.5
 21
12.2361
  0
LINE
  8
0
 10
116.5
 20
12.2361
 11
116.5
 21
9
  0
LINE
  8
0
 10
116.5
 20
9
 11
41.5
 21
9
  0
LINE
  8
0
 10
41.5
 20
9
 11
41.5
 21
12.2327
  0
LINE
  8
0
 10
41.5
 20
12.2327
 11
42.1588
 21
12.0452
  0
LINE
  8
0
 10
42.1588
 20
12.0452
 11
43.0659
 21
11.6613
  0
LINE
  8
0
 10
43.0659
 20
11.6613
 11
43.4899
 21
11.4165
  0
LINE
  8
0
 10
43.4899
 20
11.4165
 11
43.5
 21
11.5
  0
LINE
  8
0
 10
43.5
 20
11.5
 11
43.3838
 21
12.4573
  0
LINE
  8
0
 10
43.3838
 20
12.4573
 11
43.0418
 21
13.3589
  0
LINE
  8
0
 10
43.0418
 20
13.3589
 11
42.494
 21
14.1525
  0
LINE
  8
0
 10
42.494
 20
14.1525
 11
41.7722
 21
14.7919
  0
LINE
  8
0
 10
41.7722
 20
14.7919
 11
40.9184
 21
15.2401
  0
LINE
  8
0
 10
40.9184
 20
15.2401
 11
39.9821
 21
15.4708
  0
LINE
  8
0
 10
39.9821
 20
15.4708
 11
39.0179
 21
15.4708
  0
LINE
  8
0
 10
39.0179
 20
15.4708
 11
38.0816
 21
15.2401
  0
LINE
  8
0
 10
38.0816
 20
15.2401
 11
37.2277
 21
14.7919
  0
LINE
  8
0
 10
37.2277
 20
14.7919
 11
36.506
 21
14.1525
  0
LINE
  8
0
 10
36.506
 20
14.1525
 11
35.9582
 21
13.3589
  0
LINE
  8
0
 10
35.9582
 20
13.3589
 11
35.6162
 21
12.4573
  0
LINE
  8
0
 10
35.6162
 20
12.4573
 11
35.5
 21
11.5
  0
LINE
  8
0
 10
35.5
 20
11.5
 11
35.5082
 21
11.4323
  0
LINE
  8
0
 10
35.5082
 20
11.4323
 11
36.3817
 21
11.8672
  0
LINE
  8
0
 10
36.3817
 20
11.8672
 11
37.3107
 21
12.1946
  0
LINE
  8
0
 10
37.3107
 20
12.1946
 11
37.5
 21
12.2361
  0
LINE
  8
0
 10
37.5
 20
12.2361
 11
37.5
 21
9
  0
LINE
  8
0
 10
37.5
 20
9
 11
-37.5
 21
9
  0
LINE
  8
0
 10
-37.5
 20
9
 11
-37.5
 21
12.2327
  0
LINE
  8
0
 10
-37.5
 20
12.2327
 11
-36.8412
 21
12.0452
  0
LINE
  8
0
 10
-36.8412
 20
12.0452
 11
-35.9341
 21
11.6613
  0
LINE
  8
0
 10
-35.9341
 20
11.6613
 11
-35.5101
 21
11.4165
  0
LINE
  8
0
 10
-35.5101
 20
11.4165
 11
-35.5
 21
11.5
  0
LINE
  8
0
 10
-35.5
 20
11.5
 11
-35.6162
 21
12.4573
  0
LINE
  8
0
 10
-35.6162
 20
12.4573
 11
-35.9582
 21
13.3589
  0
LINE
  8
0
 10
-35.9582
 20
13.3589
 11
-36.506
 21
14.1525
  0
LINE
  8
0
 10
-36.506
 20
14.1525
 11
-37.2277
 21
14.7919
  0
LINE
  8
0
 10
-37.2277
 20
14.7919
 11
-38.0816
 21
15.2401
  0
LINE
  8
0
 10
-38.0816
 20
15.2401
 11
-39.0179
 21
15.4708
  0
LINE
  8
0
 10
-39.0179
 20
15.4708
 11
-39.9821
 21
15.4708
  0
LINE
  8
0
 10
-39.9821
 20
15.4708
 11
-40.9184
 21
15.2401
  0
LINE
  8
0
 10
-40.9184
 20
15.2401
 11
-41.7722
 21
14.7919
  0
LINE
  8
0
 10
-41.7722
 20
14.7919
 11
-42.494
 21
14.1525
  0
LINE
  8
0
 10
-42.494
 20
14.1525
 11
-43.0418
 21
13.3589
  0
LINE
  8
0
 10
-43.0418
 20
13.3589
 11
-43.3838
 21
12.4573
  0
LINE
  8
0
 10
-43.3838
 20
12.4573
 11
-43.5
 21
11.5
  0
LINE
  8
0
 10
-43.5
 20
11.5
 11
-43.4918
 21
11.4323
  0
LINE
  8
0
 10
-43.4918
 20
11.4323
 11
-42.6183
 21
11.8672
  0
LINE
  8
0
 10
-42.6183
 20
11.8672
 11
-41.6893
 21
12.1946
  0
LINE
  8
0
 10
-41.6893
 20
12.1946
 11
-41.5
 21
12.2361
  0
LINE
  8
0
 10
-41.5
 20
12.2361
 11
-41.5
 21
9
  0
LINE
  8
0
 10
-41.5
 20
9
 11
-116.5
 21
9
  0
LINE
  8
0
 10
-116.5
 20
9
 11
-116.5
 21
12.2327
  0
LINE
  8
0
 10
-116.5
 20
12.2327
 11
-115.841
 21
12.0452
  0
LINE
  8
0
 10
-115.841
 20
12.0452
 11
-114.934
 21
11.6613
  0
LINE
  8
0
 10
-114.934
 20
11.6613
 11
-114.51
 21
11.4165
  0
LINE
  8
0
 10
-114.51
 20
11.4165
 11
-114.5
 21
11.5
  0
LINE
  8
0
 10
-114.5
 20
11.5
 11
-114.616
 21
12.4573
  0
LINE
  8
0
 10
-114.616
 20
12.4573
 11
-114.958
 21
13.3589
  0
LINE
  8
0
 10
-114.958
 20
13.3589
 11
-115.506
 21
14.1525
  0
LINE
  8
0
 10
-115.506
 20
14.1525
 11
-116.228
 21
14.7919
  0
LINE
  8
0
 10
-116.228
 20
14.7919
 11
-117.082
 21
15.2401
  0
LINE
  8
0
 10
-117.082
 20
15.2401
 11
-118.018
 21
15.4708
  0
LINE
  8
0
 10
-118.018
 20
15.4708
 11
-118.982
 21
15.4708
  0
LINE
  8
0
 10
-118.982
 20
15.4708
 11
-119.918
 21
15.2401
  0
LINE
  8
0
 10
-119.918
 20
15.2401
 11
-120.772
 21
14.7919
  0
LINE
  8
0
 10
-120.772
 20
14.7919
 11
-121.494
 21
14.1525
  0
LINE
  8
0
 10
-121.494
 20
14.1525
 11
-122.042
 21
13.3589
  0
LINE
  8
0
 10
-122.042
 20
13.3589
 11
-122.384
 21
12.4573
  0
LINE
  8
0
 10
-122.384
 20
12.4573
 11
-122.5
 21
11.5
  0
LINE
  8
0
 10
-122.5
 20
11.5
 11
-122.492
 21
11.4323
  0
LINE
  8
0
 10
-122.492
 20
11.4323
 11
-121.618
 21
11.8672
  0
LINE
  8
0
 10
-121.618
 20
11.8672
 11
-120.689
 21
12.1946
  0
LINE
  8
0
 10
-120.689
 20
12.1946
 11
-120.5
 21
12.2361
  0
LINE
  8
0
 10
-120.5
 20
12.2361
 11
-120.5
 21
9
  0
LINE
  8
0
 10
-120.5
 20
9
 11
-195.5
 21
9
  0
LINE
  8
0
 10
-195.5
 20
9
 11
-195.5
 21
12.2327
  0
LINE
  8
0
 10
-195.5
 20
12.2327
 11
-194.841
 21
12.0452
  0
LINE
  8
0
 10
-194.841
 20
12.0452
 11
-193.934
 21
11.6613
  0
LINE
  8
0
 10
-193.934
 20
11.6613
 11
-193.51
 21
11.4165
  0
LINE
  8
0
 10
-193.51
 20
11.4165
 11
-193.5
 21
11.5
  0
LINE
  8
0
 10
-193.5
 20
11.5
 11
-193.616
 21
12.4573
  0
LINE
  8
0
 10
-193.616
 20
12.4573
 11
-193.958
 21
13.3589
  0
LINE
  8
0
 10
-193.958
 20
13.3589
 11
-194.506
 21
14.1525
  0
LINE
  8
0
 10
-194.506
 20
14.1525
 11
-195.228
 21
14.7919
  0
LINE
  8
0
 10
-195.228
 20
14.7919
 11
-196.082
 21
15.2401
  0
LINE
  8
0
 10
-196.082
 20
15.2401
 11
-197.018
 21
15.4708
  0
LINE
  8
0
 10
-197.018
 20
15.4708
 11
-197.982
 21
15.4708
  0
LINE
  8
0
 10
-197.982
 20
15.4708
 11
-198.918
 21
15.2401
  0
LINE
  8
0
 10
-198.918
 20
15.2401
 11
-199.772
 21
14.7919
  0
LINE
  8
0
 10
-199.772
 20
14.7919
 11
-200.494
 21
14.1525
  0
LINE
  8
0
 10
-200.494
 20
14.1525
 11
-201.042
 21
13.3589
  0
LINE
  8
0
 10
-201.042
 20
13.3589
 11
-201.384
 21
12.4573
  0
LINE
  8
0
 10
-201.384
 20
12.4573
 11
-201.5
 21
11.5
  0
LINE
  8
0
 10
-201.5
 20
11.5
 11
-201.492
 21
11.4323
  0
LINE
  8
0
 10
-201.492
 20
11.4323
 11
-200.618
 21
11.8672
  0
LINE
  8
0
 10
-200.618
 20
11.8672
 11
-199.689
 21
12.1946
  0
LINE
  8
0
 10
-199.689
 20
12.1946
 11
-199.5
 21
12.2361
  0
LINE
  8
0
 10
-199.5
 20
12.2361
 11
-199.5
 21
9
  0
LINE
  8
0
 10
-199.5
 20
9
 11
-384
 21
9
  0
LINE
  8
0
 10
-384
 20
9
 11
-384
 21
8.97951
  0
LINE
  8
0
 10
-384
 20
8.97951
 11
-384.495
 21
8.97951
  0
LINE
  8
0
 10
-384.495
 20
8.97951
 11
-385.473
 21
8.81639
  0
LINE
  8
0
 10
-385.473
 20
8.81639
 11
-386.41
 21
8.49463
  0
LINE
  8
0
 10
-386.41
 20
8.49463
 11
-387.282
 21
8.02299
  0
LINE
  8
0
 10
-387.282
 20
8.02299
 11
-388.064
 21
7.41434
  0
LINE
  8
0
 10
-388.064
 20
7.41434
 11
-388.735
 21
6.68527
  0
LINE
  8
0
 10
-388.735
 20
6.68527
 11
-389.277
 21
5.85568
  0
LINE
  8
0
 10
-389.277
 20
5.85568
 11
-389.675
 21
4.9482
  0
LINE
  8
0
 10
-389.675
 20
4.9482
 11
-389.918
 21
3.98756
  0
LINE
  8
0
 10
-389.918
 20
3.98756
 11
-390
 21
3
  0
LINE
  8
0
 10
-390
 20
3
 11
-389.918
 21
2.01242
  0
LINE
  8
0
 10
-389.918
 20
2.01242
 11
-389.675
 21
1.05179
  0
LINE
  8
0
 10
-389.675
 20
1.05179
 11
-389.277
 21
0.144302
  0
LINE
  8
0
 10
-389.277
 20
0.144302
 11
-388.735
 21
-0.685272
  0
LINE
  8
0
 10
-388.735
 20
-0.685272
 11
-388.064
 21
-1.41434
  0
LINE
  8
0
 10
-388.064
 20
-1.41434
 11
-387.282
 21
-2.02299
  0
LINE
  8
0
 10
-387.282
 20
-2.02299
 11
-386.41
 21
-2.49463
  0
LINE
  8
0
 10
-386.41
 20
-2.49463
 11
-385.473
 21
-2.81639
  0
LINE
  8
0
 10
-385.473
 20
-2.81639
 11
-384.495
 21
-2.97951
  0
LINE
  8
0
 10
-384.495
 20
-2.97951
 11
-384
 21
-2.97951
  0
LINE
  8
0
 10
-384
 20
-2.97951
 11
-384
 21
-3
  0
LINE
  8
0
 10
-384
 20
-3
 11
-189.5
 21
-3
  0
LINE
  8
0
 10
-189.5
 20
-3
 11
-189.5
 21
-6
  0
LINE
  8
0
 10
-189.5
 20
-6
 11
-189.337
 21
-6.97409
  0
LINE
  8
0
 10
-189.337
 20
-6.97409
 11
-188.867
 21
-7.84264
  0
LINE
  8
0
 10
-188.867
 20
-7.84264
 11
-188.141
 21
-8.51149
  0
LINE
  8
0
 10
-188.141
 20
-8.51149
 11
-187.236
 21
-8.90819
  0
LINE
  8
0
 10
-187.236
 20
-8.90819
 11
-186.5
 21
-8.96922
  0
LINE
  8
0
 10
-186.5
 20
-8.96922
 11
-186.5
 21
-9
  0
LINE
  8
0
 10
-186.5
 20
-9
 11
-138.5
 21
-9
  0
LINE
  8
0
 10
-138.5
 20
-9
 11
-138.5
 21
-8.96922
  0
LINE
  8
0
 10
338.2
 20
8.92413
 11
338.2
 21
9
  0
LINE
  8
0
 10
338.2
 20
9
 11
348.2
 21
9
  0
LINE
  8
0
 10
348.2
 20
9
 11
348.2
 21
8.92413
  0
LINE
  8
0
 10
348.2
 20
8.92413
 11
348.823
 21
8.78183
  0
LINE
  8
0
 10
348.823
 20
8.78183
 11
349.2
 21
8
  0
LINE
  8
0
 10
349.2
 20
8
 11
349.2
 21
-2
  0
LINE
  8
0
 10
349.2
 20
-2
 11
348.823
 21
-2.78183
  0
LINE
  8
0
 10
348.823
 20
-2.78183
 11
348.2
 21
-2.92413
  0
LINE
  8
0
 10
348.2
 20
-2.92413
 11
348.2
 21
-3
  0
LINE
  8
0
 10
348.2
 20
-3
 11
338.2
 21
-3
  0
LINE
  8
0
 10
338.2
 20
-3
 11
338.2
 21
-2.92413
  0
LINE
  8
0
 10
338.2
 20
-2.92413
 11
337.577
 21
-2.78183
  0
LINE
  8
0
 10
337.577
 20
-2.78183
 11
337.2
 21
-2
  0
LINE
  8
0
 10
337.2
 20
-2
 11
337.2
 21
8
  0
LINE
  8
0
 10
337.2
 20
8
 11
337.577
 21
8.78183
  0
LINE
  8
0
 10
337.577
 20
8.78183
 11
338.2
 21
8.92413
  0
LINE
  8
0
 10
356.2
 20
-3
 11
356.2
 21
-2.92413
  0
LINE
  8
0
 10
356.2
 20
-2.92413
 11
355.577
 21
-2.78183
  0
LINE
  8
0
 10
355.577
 20
-2.78183
 11
355.2
 21
-2
  0
LINE
  8
0
 10
355.2
 20
-2
 11
355.2
 21
8
  0
LINE
  8
0
 10
355.2
 20
8
 11
355.577
 21
8.78183
  0
LINE
  8
0
 10
355.577
 20
8.78183
 11
356.2
 21
8.92413
  0
LINE
  8
0
 10
356.2
 20
8.92413
 11
356.2
 21
9
  0
LINE
  8
0
 10
356.2
 20
9
 11
366.2
 21
9
  0
LINE
  8
0
 10
366.2
 20
9
 11
366.2
 21
8.92413
  0
LINE
  8
0
 10
366.2
 20
8.92413
 11
366.823
 21
8.78183
  0
LINE
  8
0
 10
366.823
 20
8.78183
 11
367.2
 21
8
  0
LINE
  8
0
 10
367.2
 20
8
 11
367.2
 21
6
  0
LINE
  8
0
 10
367.2
 20
6
 11
363.2
 21
6
  0
LINE
  8
0
 10
363.2
 20
6
 11
363.2
 21
5.95615
  0
LINE
  8
0
 10
363.2
 20
5.95615
 11
362.959
 21
5.98541
  0
LINE
  8
0
 10
362.959
 20
5.98541
 11
362.064
 21
5.64597
  0
LINE
  8
0
 10
362.064
 20
5.64597
 11
361.429
 21
4.92944
  0
LINE
  8
0
 10
361.429
 20
4.92944
 11
361.2
 21
4
  0
LINE
  8
0
 10
361.2
 20
4
 11
361.2
 21
2
  0
LINE
  8
0
 10
361.2
 20
2
 11
361.429
 21
1.07054
  0
LINE
  8
0
 10
361.429
 20
1.07054
 11
362.064
 21
0.354019
  0
LINE
  8
0
 10
362.064
 20
0.354019
 11
362.959
 21
0.0145721
  0
LINE
  8
0
 10
362.959
 20
0.0145721
 11
363.2
 21
0.0438385
  0
LINE
  8
0
 10
363.2
 20
0.0438385
 11
363.2
 21
0
  0
LINE
  8
0
 10
363.2
 20
0
 11
367.2
 21
0
  0
LINE
  8
0
 10
367.2
 20
0
 11
367.2
 21
-2
  0
LINE
  8
0
 10
367.2
 20
-2
 11
366.823
 21
-2.78183
  0
LINE
  8
0
 10
366.823
 20
-2.78183
 11
366.2
 21
-2.92413
  0
LINE
  8
0
 10
366.2
 20
-2.92413
 11
366.2
 21
-3
  0
LINE
  8
0
 10
366.2
 20
-3
 11
356.2
 21
-3
  0
LINE
  8
0
 10
-286
 20
0
 11
-286
 21
0.0746613
  0
LINE
  8
0
 10
-286
 20
0.0746613
 11
-286.155
 21
0.0244598
  0
LINE
  8
0
 10
-286.155
 20
0.0244598
 11
-286.5
 21
0.5
  0
LINE
  8
0
 10
-286.5
 20
0.5
 11
-286.5
 21
5.5
  0
LINE
  8
0
 10
-286.5
 20
5.5
 11
-286.155
 21
5.97552
  0
LINE
  8
0
 10
-286.155
 20
5.97552
 11
-286
 21
5.92532
  0
LINE
  8
0
 10
-286
 20
5.92532
 11
-286
 21
6
  0
LINE
  8
0
 10
-286
 20
6
 11
-278
 21
6
  0
LINE
  8
0
 10
-278
 20
6
 11
-278
 21
5.92532
  0
LINE
  8
0
 10
-278
 20
5.92532
 11
-277.845
 21
5.97552
  0
LINE
  8
0
 10
-277.845
 20
5.97552
 11
-277.5
 21
5.5
  0
LINE
  8
0
 10
-277.5
 20
5.5
 11
-277.5
 21
0.5
  0
LINE
  8
0
 10
-277.5
 20
0.5
 11
-277.845
 21
0.0244598
  0
LINE
  8
0
 10
-277.845
 20
0.0244598
 11
-278
 21
0.0746613
  0
LINE
  8
0
 10
-278
 20
0.0746613
 11
-278
 21
0
  0
LINE
  8
0
 10
-278
 20
0
 11
-286
 21
0
  0
LINE
  8
0
 10
-376
 20
0
 11
-376
 21
0.0746613
  0
LINE
  8
0
 10
-376
 20
0.0746613
 11
-376.155
 21
0.0244598
  0
LINE
  8
0
 10
-376.155
 20
0.0244598
 11
-376.5
 21
0.5
  0
LINE
  8
0
 10
-376.5
 20
0.5
 11
-376.5
 21
5.5
  0
LINE
  8
0
 10
-376.5
 20
5.5
 11
-376.155
 21
5.97552
  0
LINE
  8
0
 10
-376.155
 20
5.97552
 11
-376
 21
5.92532
  0
LINE
  8
0
 10
-376
 20
5.92532
 11
-376
 21
6
  0
LINE
  8
0
 10
-376
 20
6
 11
-368
 21
6
  0
LINE
  8
0
 10
-368
 20
6
 11
-368
 21
5.92532
  0
LINE
  8
0
 10
-368
 20
5.92532
 11
-367.845
 21
5.97552
  0
LINE
  8
0
 10
-367.845
 20
5.97552
 11
-367.5
 21
5.5
  0
LINE
  8
0
 10
-367.5
 20
5.5
 11
-367.5
 21
0.5
  0
LINE
  8
0
 10
-367.5
 20
0.5
 11
-367.845
 21
0.0244598
  0
LINE
  8
0
 10
-367.845
 20
0.0244598
 11
-368
 21
0.0746613
  0
LINE
  8
0
 10
-368
 20
0.0746613
 11
-368
 21
0
  0
LINE
  8
0
 10
-368
 20
0
 11
-376
 21
0
  0
LINE
  8
0
 10
-358
 20
0
 11
-358
 21
0.0746613
  0
LINE
  8
0
 10
-358
 20
0.0746613
 11
-358.155
 21
0.0244598
  0
LINE
  8
0
 10
-358.155
 20
0.0244598
 11
-358.5
 21
0.5
  0
LINE
  8
0
 10
-358.5
 20
0.5
 11
-358.5
 21
5.5
  0
LINE
  8
0
 10
-358.5
 20
5.5
 11
-358.155
 21
5.97552
  0
LINE
  8
0
 10
-358.155
 20
5.97552
 11
-358
 21
5.92532
  0
LINE
  8
0
 10
-358
 20
5.92532
 11
-358
 21
6
  0
LINE
  8
0
 10
-358
 20
6
 11
-350
 21
6
  0
LINE
  8
0
 10
-350
 20
6
 11
-350
 21
5.92532
  0
LINE
  8
0
 10
-350
 20
5.92532
 11
-349.845
 21
5.97552
  0
LINE
  8
0
 10
-349.845
 20
5.97552
 11
-349.5
 21
5.5
  0
LINE
  8
0
 10
-349.5
 20
5.5
 11
-349.5
 21
0.5
  0
LINE
  8
0
 10
-349.5
 20
0.5
 11
-349.845
 21
0.0244598
  0
LINE
  8
0
 10
-349.845
 20
0.0244598
 11
-350
 21
0.0746613
  0
LINE
  8
0
 10
-350
 20
0.0746613
 11
-350
 21
0
  0
LINE
  8
0
 10
-350
 20
0
 11
-358
 21
0
  0
LINE
  8
0
 10
-232
 20
5.92532
 11
-232
 21
6
  0
LINE
  8
0
 10
-232
 20
6
 11
-224
 21
6
  0
LINE
  8
0
 10
-224
 20
6
 11
-224
 21
5.92532
  0
LINE
  8
0
 10
-224
 20
5.92532
 11
-223.845
 21
5.97552
  0
LINE
  8
0
 10
-223.845
 20
5.97552
 11
-223.5
 21
5.5
  0
LINE
  8
0
 10
-223.5
 20
5.5
 11
-223.5
 21
0.5
  0
LINE
  8
0
 10
-223.5
 20
0.5
 11
-223.845
 21
0.0244598
  0
LINE
  8
0
 10
-223.845
 20
0.0244598
 11
-224
 21
0.0746613
  0
LINE
  8
0
 10
-224
 20
0.0746613
 11
-224
 21
0
  0
LINE
  8
0
 10
-224
 20
0
 11
-232
 21
0
  0
LINE
  8
0
 10
-232
 20
0
 11
-232
 21
0.0746613
  0
LINE
  8
0
 10
-232
 20
0.0746613
 11
-232.155
 21
0.0244598
  0
LINE
  8
0
 10
-232.155
 20
0.0244598
 11
-232.5
 21
0.5
  0
LINE
  8
0
 10
-232.5
 20
0.5
 11
-232.5
 21
5.5
  0
LINE
  8
0
 10
-232.5
 20
5.5
 11
-232.155
 21
5.97552
  0
LINE
  8
0
 10
-232.155
 20
5.97552
 11
-232
 21
5.92532
  0
LINE
  8
0
 10
-322
 20
5.92532
 11
-322
 21
6
  0
LINE
  8
0
 10
-322
 20
6
 11
-314
 21
6
  0
LINE
  8
0
 10
-314
 20
6
 11
-314
 21
5.92532
  0
LINE
  8
0
 10
-314
 20
5.92532
 11
-313.845
 21
5.97552
  0
LINE
  8
0
 10
-313.845
 20
5.97552
 11
-313.5
 21
5.5
  0
LINE
  8
0
 10
-313.5
 20
5.5
 11
-313.5
 21
0.5
  0
LINE
  8
0
 10
-313.5
 20
0.5
 11
-313.845
 21
0.0244598
  0
LINE
  8
0
 10
-313.845
 20
0.0244598
 11
-314
 21
0.0746613
  0
LINE
  8
0
 10
-314
 20
0.0746613
 11
-314
 21
0
  0
LINE
  8
0
 10
-314
 20
0
 11
-322
 21
0
  0
LINE
  8
0
 10
-322
 20
0
 11
-322
 21
0.0746613
  0
LINE
  8
0
 10
-322
 20
0.0746613
 11
-322.155
 21
0.0244598
  0
LINE
  8
0
 10
-322.155
 20
0.0244598
 11
-322.5
 21
0.5
  0
LINE
  8
0
 10
-322.5
 20
0.5
 11
-322.5
 21
5.5
  0
LINE
  8
0
 10
-322.5
 20
5.5
 11
-322.155
 21
5.97552
  0
LINE
  8
0
 10
-322.155
 20
5.97552
 11
-322
 21
5.92532
  0
LINE
  8
0
 10
-304
 20
0
 11
-304
 21
0.0746613
  0
LINE
  8
0
 10
-304
 20
0.0746613
 11
-304.155
 21
0.0244598
  0
LINE
  8
0
 10
-304.155
 20
0.0244598
 11
-304.5
 21
0.5
  0
LINE
  8
0
 10
-304.5
 20
0.5
 11
-304.5
 21
5.5
  0
LINE
  8
0
 10
-304.5
 20
5.5
 11
-304.155
 21
5.97552
  0
LINE
  8
0
 10
-304.155
 20
5.97552
 11
-304
 21
5.92532
  0
LINE
  8
0
 10
-304
 20
5.92532
 11
-304
 21
6
  0
LINE
  8
0
 10
-304
 20
6
 11
-296
 21
6
  0
LINE
  8
0
 10
-296
 20
6
 11
-296
 21
5.92532
  0
LINE
  8
0
 10
-296
 20
5.92532
 11
-295.845
 21
5.97552
  0
LINE
  8
0
 10
-295.845
 20
5.97552
 11
-295.5
 21
5.5
  0
LINE
  8
0
 10
-295.5
 20
5.5
 11
-295.5
 21
0.5
  0
LINE
  8
0
 10
-295.5
 20
0.5
 11
-295.845
 21
0.0244598
  0
LINE
  8
0
 10
-295.845
 20
0.0244598
 11
-296
 21
0.0746613
  0
LINE
  8
0
 10
-296
 20
0.0746613
 11
-296
 21
0
  0
LINE
  8
0
 10
-296
 20
0
 11
-304
 21
0
  0
LINE
  8
0
 10
-157.5
 20
4.42532
 11
-157.5
 21
4.5
  0
LINE
  8
0
 10
-157.5
 20
4.5
 11
-140.5
 21
4.5
  0
LINE
  8
0
 10
-140.5
 20
4.5
 11
-140.5
 21
4.42532
  0
LINE
  8
0
 10
-140.5
 20
4.42532
 11
-140.345
 21
4.47552
  0
LINE
  8
0
 10
-140.345
 20
4.47552
 11
-140
 21
4
  0
LINE
  8
0
 10
-140
 20
4
 11
-140
 21
-4
  0
LINE
  8
0
 10
-140
 20
-4
 11
-140.345
 21
-4.47552
  0
LINE
  8
0
 10
-140.345
 20
-4.47552
 11
-140.5
 21
-4.42532
  0
LINE
  8
0
 10
-140.5
 20
-4.42532
 11
-140.5
 21
-4.5
  0
LINE
  8
0
 10
-140.5
 20
-4.5
 11
-157.5
 21
-4.5
  0
LINE
  8
0
 10
-157.5
 20
-4.5
 11
-157.5
 21
-4.42532
  0
LINE
  8
0
 10
-157.5
 20
-4.42532
 11
-157.655
 21
-4.47552
  0
LINE
  8
0
 10
-157.655
 20
-4.47552
 11
-158
 21
-4
  0
LINE
  8
0
 10
-158
 20
-4
 11
-158
 21
4
  0
LINE
  8
0
 10
-158
 20
4
 11
-157.655
 21
4.47552
  0
LINE
  8
0
 10
-157.655
 20
4.47552
 11
-157.5
 21
4.42532
  0
LINE
  8
0
 10
167.5
 20
-4.5
 11
167.5
 21
-4.42532
  0
LINE
  8
0
 10
167.5
 20
-4.42532
 11
167.345
 21
-4.47552
  0
LINE
  8
0
 10
167.345
 20
-4.47552
 11
167
 21
-4
  0
LINE
  8
0
 10
167
 20
-4
 11
167
 21
4
  0
LINE
  8
0
 10
167
 20
4
 11
167.345
 21
4.47552
  0
LINE
  8
0
 10
167.345
 20
4.47552
 11
167.5
 21
4.42532
  0
LINE
  8
0
 10
167.5
 20
4.42532
 11
167.5
 21
4.5
  0
LINE
  8
0
 10
167.5
 20
4.5
 11
184.5
 21
4.5
  0
LINE
  8
0
 10
184.5
 20
4.5
 11
184.5
 21
4.42532
  0
LINE
  8
0
 10
184.5
 20
4.42532
 11
184.655
 21
4.47552
  0
LINE
  8
0
 10
184.655
 20
4.47552
 11
185
 21
4
  0
LINE
  8
0
 10
185
 20
4
 11
185
 21
-4
  0
LINE
  8
0
 10
185
 20
-4
 11
184.655
 21
-4.47552
  0
LINE
  8
0
 10
184.655
 20
-4.47552
 11
184.5
 21
-4.42532
  0
LINE
  8
0
 10
184.5
 20
-4.42532
 11
184.5
 21
-4.5
  0
LINE
  8
0
 10
184.5
 20
-4.5
 11
167.5
 21
-4.5
  0
LINE
  8
0
 10
140.5
 20
-4.5
 11
140.5
 21
-4.42532
  0
LINE
  8
0
 10
140.5
 20
-4.42532
 11
140.345
 21
-4.47552
  0
LINE
  8
0
 10
140.345
 20
-4.47552
 11
140
 21
-4
  0
LINE
  8
0
 10
140
 20
-4
 11
140
 21
4
  0
LINE
  8
0
 10
140
 20
4
 11
140.345
 21
4.47552
  0
LINE
  8
0
 10
140.345
 20
4.47552
 11
140.5
 21
4.42532
  0
LINE
  8
0
 10
140.5
 20
4.42532
 11
140.5
 21
4.5
  0
LINE
  8
0
 10
140.5
 20
4.5
 11
157.5
 21
4.5
  0
LINE
  8
0
 10
157.5
 20
4.5
 11
157.5
 21
4.42532
  0
LINE
  8
0
 10
157.5
 20
4.42532
 11
157.655
 21
4.47552
  0
LINE
  8
0
 10
157.655
 20
4.47552
 11
158
 21
4
  0
LINE
  8
0
 10
158
 20
4
 11
158
 21
-4
  0
LINE
  8
0
 10
158
 20
-4
 11
157.655
 21
-4.47552
  0
LINE
  8
0
 10
157.655
 20
-4.47552
 11
157.5
 21
-4.42532
  0
LINE
  8
0
 10
157.5
 20
-4.42532
 11
157.5
 21
-4.5
  0
LINE
  8
0
 10
157.5
 20
-4.5
 11
140.5
 21
-4.5
  0
LINE
  8
0
 10
330.823
 20
-2.78183
 11
330.2
 21
-2.92413
  0
LINE
  8
0
 10
330.2
 20
-2.92413
 11
330.2
 21
-3
  0
LINE
  8
0
 10
330.2
 20
-3
 11
320.2
 21
-3
  0
LINE
  8
0
 10
320.2
 20
-3
 11
320.2
 21
-2.92413
  0
LINE
  8
0
 10
320.2
 20
-2.92413
 11
319.577
 21
-2.78183
  0
LINE
  8
0
 10
319.577
 20
-2.78183
 11
319.2
 21
-2
  0
LINE
  8
0
 10
319.2
 20
-2
 11
319.2
 21
8
  0
LINE
  8
0
 10
319.2
 20
8
 11
319.577
 21
8.78183
  0
LINE
  8
0
 10
319.577
 20
8.78183
 11
320.2
 21
8.92413
  0
LINE
  8
0
 10
320.2
 20
8.92413
 11
320.2
 21
9
  0
LINE
  8
0
 10
320.2
 20
9
 11
330.2
 21
9
  0
LINE
  8
0
 10
330.2
 20
9
 11
330.2
 21
8.92413
  0
LINE
  8
0
 10
330.2
 20
8.92413
 11
330.823
 21
8.78183
  0
LINE
  8
0
 10
330.823
 20
8.78183
 11
331.2
 21
8
  0
LINE
  8
0
 10
331.2
 20
8
 11
331.2
 21
-2
  0
LINE
  8
0
 10
331.2
 20
-2
 11
330.823
 21
-2.78183
  0
LINE
  8
0
 10
-331.845
 20
0.0244598
 11
-332
 21
0.0746613
  0
LINE
  8
0
 10
-332
 20
0.0746613
 11
-332
 21
0
  0
LINE
  8
0
 10
-332
 20
0
 11
-340
 21
0
  0
LINE
  8
0
 10
-340
 20
0
 11
-340
 21
0.0746613
  0
LINE
  8
0
 10
-340
 20
0.0746613
 11
-340.155
 21
0.0244598
  0
LINE
  8
0
 10
-340.155
 20
0.0244598
 11
-340.5
 21
0.5
  0
LINE
  8
0
 10
-340.5
 20
0.5
 11
-340.5
 21
5.5
  0
LINE
  8
0
 10
-340.5
 20
5.5
 11
-340.155
 21
5.97552
  0
LINE
  8
0
 10
-340.155
 20
5.97552
 11
-340
 21
5.92532
  0
LINE
  8
0
 10
-340
 20
5.92532
 11
-340
 21
6
  0
LINE
  8
0
 10
-340
 20
6
 11
-332
 21
6
  0
LINE
  8
0
 10
-332
 20
6
 11
-332
 21
5.92532
  0
LINE
  8
0
 10
-332
 20
5.92532
 11
-331.845
 21
5.97552
  0
LINE
  8
0
 10
-331.845
 20
5.97552
 11
-331.5
 21
5.5
  0
LINE
  8
0
 10
-331.5
 20
5.5
 11
-331.5
 21
0.5
  0
LINE
  8
0
 10
-331.5
 20
0.5
 11
-331.845
 21
0.0244598
  0
LINE
  8
0
 10
-241.845
 20
0.0244598
 11
-242
 21
0.0746613
  0
LINE
  8
0
 10
-242
 20
0.0746613
 11
-242
 21
0
  0
LINE
  8
0
 10
-242
 20
0
 11
-250
 21
0
  0
LINE
  8
0
 10
-250
 20
0
 11
-250
 21
0.0746613
  0
LINE
  8
0
 10
-250
 20
0.0746613
 11
-250.155
 21
0.0244598
  0
LINE
  8
0
 10
-250.155
 20
0.0244598
 11
-250.5
 21
0.5
  0
LINE
  8
0
 10
-250.5
 20
0.5
 11
-250.5
 21
5.5
  0
LINE
  8
0
 10
-250.5
 20
5.5
 11
-250.155
 21
5.97552
  0
LINE
  8
0
 10
-250.155
 20
5.97552
 11
-250
 21
5.92532
  0
LINE
  8
0
 10
-250
 20
5.92532
 11
-250
 21
6
  0
LINE
  8
0
 10
-250
 20
6
 11
-242
 21
6
  0
LINE
  8
0
 10
-242
 20
6
 11
-242
 21
5.92532
  0
LINE
  8
0
 10
-242
 20
5.92532
 11
-241.845
 21
5.97552
  0
LINE
  8
0
 10
-241.845
 20
5.97552
 11
-241.5
 21
5.5
  0
LINE
  8
0
 10
-241.5
 20
5.5
 11
-241.5
 21
0.5
  0
LINE
  8
0
 10
-241.5
 20
0.5
 11
-241.845
 21
0.0244598
  0
LINE
  8
0
 10
-259.845
 20
0.0244598
 11
-260
 21
0.0746613
  0
LINE
  8
0
 10
-260
 20
0.0746613
 11
-260
 21
0
  0
LINE
  8
0
 10
-260
 20
0
 11
-268
 21
0
  0
LINE
  8
0
 10
-268
 20
0
 11
-268
 21
0.0746613
  0
LINE
  8
0
 10
-268
 20
0.0746613
 11
-268.155
 21
0.0244598
  0
LINE
  8
0
 10
-268.155
 20
0.0244598
 11
-268.5
 21
0.5
  0
LINE
  8
0
 10
-268.5
 20
0.5
 11
-268.5
 21
5.5
  0
LINE
  8
0
 10
-268.5
 20
5.5
 11
-268.155
 21
5.97552
  0
LINE
  8
0
 10
-268.155
 20
5.97552
 11
-268
 21
5.92532
  0
LINE
  8
0
 10
-268
 20
5.92532
 11
-268
 21
6
  0
LINE
  8
0
 10
-268
 20
6
 11
-260
 21
6
  0
LINE
  8
0
 10
-260
 20
6
 11
-260
 21
5.92532
  0
LINE
  8
0
 10
-260
 20
5.92532
 11
-259.845
 21
5.97552
  0
LINE
  8
0
 10
-259.845
 20
5.97552
 11
-259.5
 21
5.5
  0
LINE
  8
0
 10
-259.5
 20
5.5
 11
-259.5
 21
0.5
  0
LINE
  8
0
 10
-259.5
 20
0.5
 11
-259.845
 21
0.0244598
  0
LINE
  8
0
 10
-167.345
 20
-4.47552
 11
-167.5
 21
-4.42532
  0
LINE
  8
0
 10
-167.5
 20
-4.42532
 11
-167.5
 21
-4.5
  0
LINE
  8
0
 10
-167.5
 20
-4.5
 11
-184.5
 21
-4.5
  0
LINE
  8
0
 10
-184.5
 20
-4.5
 11
-184.5
 21
-4.42532
  0
LINE
  8
0
 10
-184.5
 20
-4.42532
 11
-184.655
 21
-4.47552
  0
LINE
  8
0
 10
-184.655
 20
-4.47552
 11
-185
 21
-4
  0
LINE
  8
0
 10
-185
 20
-4
 11
-185
 21
4
  0
LINE
  8
0
 10
-185
 20
4
 11
-184.655
 21
4.47552
  0
LINE
  8
0
 10
-184.655
 20
4.47552
 11
-184.5
 21
4.42532
  0
LINE
  8
0
 10
-184.5
 20
4.42532
 11
-184.5
 21
4.5
  0
LINE
  8
0
 10
-184.5
 20
4.5
 11
-167.5
 21
4.5
  0
LINE
  8
0
 10
-167.5
 20
4.5
 11
-167.5
 21
4.42532
  0
LINE
  8
0
 10
-167.5
 20
4.42532
 11
-167.345
 21
4.47552
  0
LINE
  8
0
 10
-167.345
 20
4.47552
 11
-167
 21
4
  0
LINE
  8
0
 10
-167
 20
4
 11
-167
 21
-4
  0
LINE
  8
0
 10
-167
 20
-4
 11
-167.345
 21
-4.47552
  0
LINE
  8
0
 10
-110
 20
-28.9241
 11
-109.377
 21
-28.7818
  0
LINE
  8
0
 10
-109.377
 20
-28.7818
 11
-109
 21
-28
  0
LINE
  8
0
 10
-109
 20
-28
 11
-109
 21
-24.5
  0
LINE
  8
0
 10
-109
 20
-24.5
 11
-100
 21
-24.5
  0
LINE
  8
0
 10
-100
 20
-24.5
 11
-100
 21
-28
  0
LINE
  8
0
 10
-100
 20
-28
 11
-99.6235
 21
-28.7818
  0
LINE
  8
0
 10
-99.6235
 20
-28.7818
 11
-99
 21
-28.9241
  0
LINE
  8
0
 10
-99
 20
-28.9241
 11
-99
 21
-29
  0
LINE
  8
0
 10
-99
 20
-29
 11
99
 21
-29
  0
LINE
  8
0
 10
99
 20
-29
 11
99
 21
-28.9241
  0
LINE
  8
0
 10
99
 20
-28.9241
 11
99.6235
 21
-28.7818
  0
LINE
  8
0
 10
99.6235
 20
-28.7818
 11
100
 21
-28
  0
LINE
  8
0
 10
100
 20
-28
 11
100
 21
-24.5
  0
LINE
  8
0
 10
100
 20
-24.5
 11
109
 21
-24.5
  0
LINE
  8
0
 10
109
 20
-24.5
 11
109
 21
-28
  0
LINE
  8
0
 10
109
 20
-28
 11
109.377
 21
-28.7818
  0
LINE
  8
0
 10
109.377
 20
-28.7818
 11
110
 21
-28.9241
  0
LINE
  8
0
 10
110
 20
-28.9241
 11
110
 21
-29
  0
LINE
  8
0
 10
110
 20
-29
 11
126
 21
-29
  0
LINE
  8
0
 10
126
 20
-29
 11
126
 21
-28.9241
  0
LINE
  8
0
 10
126
 20
-28.9241
 11
126.623
 21
-28.7818
  0
LINE
  8
0
 10
126.623
 20
-28.7818
 11
127
 21
-28
  0
LINE
  8
0
 10
127
 20
-28
 11
127
 21
-24.5
  0
LINE
  8
0
 10
127
 20
-24.5
 11
149.5
 21
-24.5
  0
LINE
  8
0
 10
149.5
 20
-24.5
 11
149.5
 21
-24.4802
  0
LINE
  8
0
 10
149.5
 20
-24.4802
 11
149.744
 21
-24.4934
  0
LINE
  8
0
 10
149.744
 20
-24.4934
 11
150.704
 21
-24.336
  0
LINE
  8
0
 10
150.704
 20
-24.336
 11
151.608
 21
-23.9758
  0
LINE
  8
0
 10
151.608
 20
-23.9758
 11
152.413
 21
-23.4297
  0
LINE
  8
0
 10
152.413
 20
-23.4297
 11
153.082
 21
-22.7233
  0
LINE
  8
0
 10
153.082
 20
-22.7233
 11
153.584
 21
-21.8895
  0
LINE
  8
0
 10
153.584
 20
-21.8895
 11
153.895
 21
-20.9674
  0
LINE
  8
0
 10
153.895
 20
-20.9674
 11
154
 21
-20
  0
LINE
  8
0
 10
154
 20
-20
 11
153.895
 21
-19.0326
  0
LINE
  8
0
 10
153.895
 20
-19.0326
 11
153.584
 21
-18.1105
  0
LINE
  8
0
 10
153.584
 20
-18.1105
 11
153.082
 21
-17.2767
  0
LINE
  8
0
 10
153.082
 20
-17.2767
 11
152.413
 21
-16.5703
  0
LINE
  8
0
 10
152.413
 20
-16.5703
 11
151.608
 21
-16.0242
  0
LINE
  8
0
 10
151.608
 20
-16.0242
 11
150.704
 21
-15.664
  0
LINE
  8
0
 10
150.704
 20
-15.664
 11
149.744
 21
-15.5066
  0
LINE
  8
0
 10
149.744
 20
-15.5066
 11
149.5
 21
-15.5198
  0
LINE
  8
0
 10
149.5
 20
-15.5198
 11
149.5
 21
-15.5
  0
LINE
  8
0
 10
149.5
 20
-15.5
 11
127
 21
-15.5
  0
LINE
  8
0
 10
127
 20
-15.5
 11
127
 21
-12
  0
LINE
  8
0
 10
127
 20
-12
 11
126.623
 21
-11.2182
  0
LINE
  8
0
 10
126.623
 20
-11.2182
 11
126
 21
-11.0759
  0
LINE
  8
0
 10
126
 20
-11.0759
 11
126
 21
-11
  0
LINE
  8
0
 10
126
 20
-11
 11
110
 21
-11
  0
LINE
  8
0
 10
110
 20
-11
 11
110
 21
-11.0759
  0
LINE
  8
0
 10
110
 20
-11.0759
 11
109.377
 21
-11.2182
  0
LINE
  8
0
 10
109.377
 20
-11.2182
 11
109
 21
-12
  0
LINE
  8
0
 10
109
 20
-12
 11
109
 21
-15.5
  0
LINE
  8
0
 10
109
 20
-15.5
 11
100
 21
-15.5
  0
LINE
  8
0
 10
100
 20
-15.5
 11
100
 21
-12
  0
LINE
  8
0
 10
100
 20
-12
 11
99.6235
 21
-11.2182
  0
LINE
  8
0
 10
99.6235
 20
-11.2182
 11
99
 21
-11.0759
  0
LINE
  8
0
 10
99
 20
-11.0759
 11
99
 21
-11
  0
LINE
  8
0
 10
99
 20
-11
 11
-99
 21
-11
  0
LINE
  8
0
 10
-99
 20
-11
 11
-99
 21
-11.0759
  0
LINE
  8
0
 10
-99
 20
-11.0759
 11
-99.6235
 21
-11.2182
  0
LINE
  8
0
 10
-99.6235
 20
-11.2182
 11
-100
 21
-12
  0
LINE
  8
0
 10
-100
 20
-12
 11
-100
 21
-15.5
  0
LINE
  8
0
 10
-100
 20
-15.5
 11
-109
 21
-15.5
  0
LINE
  8
0
 10
-109
 20
-15.5
 11
-109
 21
-12
  0
LINE
  8
0
 10
-109
 20
-12
 11
-109.377
 21
-11.2182
  0
LINE
  8
0
 10
-109.377
 20
-11.2182
 11
-110
 21
-11.0759
  0
LINE
  8
0
 10
-110
 20
-11.0759
 11
-110
 21
-11
  0
LINE
  8
0
 10
-110
 20
-11
 11
-126
 21
-11
  0
LINE
  8
0
 10
-126
 20
-11
 11
-126
 21
-11.0759
  0
LINE
  8
0
 10
-126
 20
-11.0759
 11
-126.623
 21
-11.2182
  0
LINE
  8
0
 10
-126.623
 20
-11.2182
 11
-127
 21
-12
  0
LINE
  8
0
 10
-127
 20
-12
 11
-127
 21
-15.5
  0
LINE
  8
0
 10
-127
 20
-15.5
 11
-149.5
 21
-15.5
  0
LINE
  8
0
 10
-149.5
 20
-15.5
 11
-149.5
 21
-15.5198
  0
LINE
  8
0
 10
-149.5
 20
-15.5198
 11
-149.744
 21
-15.5066
  0
LINE
  8
0
 10
-149.744
 20
-15.5066
 11
-150.704
 21
-15.664
  0
LINE
  8
0
 10
-150.704
 20
-15.664
 11
-151.608
 21
-16.0242
  0
LINE
  8
0
 10
-151.608
 20
-16.0242
 11
-152.413
 21
-16.5703
  0
LINE
  8
0
 10
-152.413
 20
-16.5703
 11
-153.082
 21
-17.2767
  0
LINE
  8
0
 10
-153.082
 20
-17.2767
 11
-153.584
 21
-18.1105
  0
LINE
  8
0
 10
-153.584
 20
-18.1105
 11
-153.895
 21
-19.0326
  0
LINE
  8
0
 10
-153.895
 20
-19.0326
 11
-154
 21
-20
  0
LINE
  8
0
 10
-154
 20
-20
 11
-153.895
 21
-20.9674
  0
LINE
  8
0
 10
-153.895
 20
-20.9674
 11
-153.584
 21
-21.8895
  0
LINE
  8
0
 10
-153.584
 20
-21.8895
 11
-153.082
 21
-22.7233
  0
LINE
  8
0
 10
-153.082
 20
-22.7233
 11
-152.413
 21
-23.4297
  0
LINE
  8
0
 10
-152.413
 20
-23.4297
 11
-151.608
 21
-23.9758
  0
LINE
  8
0
 10
-151.608
 20
-23.9758
 11
-150.704
 21
-24.336
  0
LINE
  8
0
 10
-150.704
 20
-24.336
 11
-149.744
 21
-24.4934
  0
LINE
  8
0
 10
-149.744
 20
-24.4934
 11
-149.5
 21
-24.4802
  0
LINE
  8
0
 10
-149.5
 20
-24.4802
 11
-149.5
 21
-24.5
  0
LINE
  8
0
 10
-149.5
 20
-24.5
 11
-127
 21
-24.5
  0
LINE
  8
0
 10
-127
 20
-24.5
 11
-127
 21
-28
  0
LINE
  8
0
 10
-127
 20
-28
 11
-126.623
 21
-28.7818
  0
LINE
  8
0
 10
-126.623
 20
-28.7818
 11
-126
 21
-28.9241
  0
LINE
  8
0
 10
-126
 20
-28.9241
 11
-126
 21
-29
  0
LINE
  8
0
 10
-126
 20
-29
 11
-110
 21
-29
  0
LINE
  8
0
 10
-110
 20
-29
 11
-110
 21
-28.9241
  0
LINE
  8
0
 10
29.4573
 20
-44.6605
 11
30.3589
 21
-44.2502
  0
LINE
  8
0
 10
30.3589
 20
-44.2502
 11
31.1525
 21
-43.5928
  0
LINE
  8
0
 10
31.1525
 20
-43.5928
 11
31.7919
 21
-42.7267
  0
LINE
  8
0
 10
31.7919
 20
-42.7267
 11
32.2401
 21
-41.7021
  0
LINE
  8
0
 10
32.2401
 20
-41.7021
 11
32.4708
 21
-40.5786
  0
LINE
  8
0
 10
32.4708
 20
-40.5786
 11
32.4708
 21
-39.4214
  0
LINE
  8
0
 10
32.4708
 20
-39.4214
 11
32.2401
 21
-38.2979
  0
LINE
  8
0
 10
32.2401
 20
-38.2979
 11
31.7919
 21
-37.2733
  0
LINE
  8
0
 10
31.7919
 20
-37.2733
 11
31.1525
 21
-36.4072
  0
LINE
  8
0
 10
31.1525
 20
-36.4072
 11
30.3589
 21
-35.7498
  0
LINE
  8
0
 10
30.3589
 20
-35.7498
 11
29.4573
 21
-35.3395
  0
LINE
  8
0
 10
29.4573
 20
-35.3395
 11
28.5
 21
-35.2
  0
LINE
  8
0
 10
28.5
 20
-35.2
 11
28.4323
 21
-35.2099
  0
LINE
  8
0
 10
28.4323
 20
-35.2099
 11
28.8672
 21
-36.2581
  0
LINE
  8
0
 10
28.8672
 20
-36.2581
 11
29.1946
 21
-37.3728
  0
LINE
  8
0
 10
29.1946
 20
-37.3728
 11
29.2361
 21
-37.6
  0
LINE
  8
0
 10
29.2361
 20
-37.6
 11
27.8768
 21
-37.6
  0
LINE
  8
0
 10
27.8768
 20
-37.6
 11
27.7709
 21
-37.0847
  0
LINE
  8
0
 10
27.7709
 20
-37.0847
 11
27.1361
 21
-36.2248
  0
LINE
  8
0
 10
27.1361
 20
-36.2248
 11
26.2411
 21
-35.8175
  0
LINE
  8
0
 10
26.2411
 20
-35.8175
 11
26
 21
-35.8526
  0
LINE
  8
0
 10
26
 20
-35.8526
 11
26
 21
-35.8
  0
LINE
  8
0
 10
26
 20
-35.8
 11
-26
 21
-35.8
  0
LINE
  8
0
 10
-26
 20
-35.8
 11
-26
 21
-35.8526
  0
LINE
  8
0
 10
-26
 20
-35.8526
 11
-26.2411
 21
-35.8175
  0
LINE
  8
0
 10
-26.2411
 20
-35.8175
 11
-27.1361
 21
-36.2248
  0
LINE
  8
0
 10
-27.1361
 20
-36.2248
 11
-27.7709
 21
-37.0847
  0
LINE
  8
0
 10
-27.7709
 20
-37.0847
 11
-27.8768
 21
-37.6
  0
LINE
  8
0
 10
-27.8768
 20
-37.6
 11
-29.2361
 21
-37.6
  0
LINE
  8
0
 10
-29.2361
 20
-37.6
 11
-29.1946
 21
-37.3728
  0
LINE
  8
0
 10
-29.1946
 20
-37.3728
 11
-28.8672
 21
-36.2581
  0
LINE
  8
0
 10
-28.8672
 20
-36.2581
 11
-28.4323
 21
-35.2099
  0
LINE
  8
0
 10
-28.4323
 20
-35.2099
 11
-28.5
 21
-35.2
  0
LINE
  8
0
 10
-28.5
 20
-35.2
 11
-29.4573
 21
-35.3395
  0
LINE
  8
0
 10
-29.4573
 20
-35.3395
 11
-30.3589
 21
-35.7498
  0
LINE
  8
0
 10
-30.3589
 20
-35.7498
 11
-31.1525
 21
-36.4072
  0
LINE
  8
0
 10
-31.1525
 20
-36.4072
 11
-31.7919
 21
-37.2733
  0
LINE
  8
0
 10
-31.7919
 20
-37.2733
 11
-32.2401
 21
-38.2979
  0
LINE
  8
0
 10
-32.2401
 20
-38.2979
 11
-32.4708
 21
-39.4214
  0
LINE
  8
0
 10
-32.4708
 20
-39.4214
 11
-32.4708
 21
-40.5786
  0
LINE
  8
0
 10
-32.4708
 20
-40.5786
 11
-32.2401
 21
-41.7021
  0
LINE
  8
0
 10
-32.2401
 20
-41.7021
 11
-31.7919
 21
-42.7267
  0
LINE
  8
0
 10
-31.7919
 20
-42.7267
 11
-31.1525
 21
-43.5928
  0
LINE
  8
0
 10
-31.1525
 20
-43.5928
 11
-30.3589
 21
-44.2502
  0
LINE
  8
0
 10
-30.3589
 20
-44.2502
 11
-29.4573
 21
-44.6605
  0
LINE
  8
0
 10
-29.4573
 20
-44.6605
 11
-28.5
 21
-44.8
  0
LINE
  8
0
 10
-28.5
 20
-44.8
 11
-28.4165
 21
-44.7878
  0
LINE
  8
0
 10
-28.4165
 20
-44.7878
 11
-28.6613
 21
-44.2791
  0
LINE
  8
0
 10
-28.6613
 20
-44.2791
 11
-29.0452
 21
-43.1906
  0
LINE
  8
0
 10
-29.0452
 20
-43.1906
 11
-29.2327
 21
-42.4
  0
LINE
  8
0
 10
-29.2327
 20
-42.4
 11
-27.8768
 21
-42.4
  0
LINE
  8
0
 10
-27.8768
 20
-42.4
 11
-27.7709
 21
-42.9153
  0
LINE
  8
0
 10
-27.7709
 20
-42.9153
 11
-27.1361
 21
-43.7752
  0
LINE
  8
0
 10
-27.1361
 20
-43.7752
 11
-26.2411
 21
-44.1825
  0
LINE
  8
0
 10
-26.2411
 20
-44.1825
 11
-26
 21
-44.1474
  0
LINE
  8
0
 10
-26
 20
-44.1474
 11
-26
 21
-44.2
  0
LINE
  8
0
 10
-26
 20
-44.2
 11
26
 21
-44.2
  0
LINE
  8
0
 10
26
 20
-44.2
 11
26
 21
-44.1474
  0
LINE
  8
0
 10
26
 20
-44.1474
 11
26.2411
 21
-44.1825
  0
LINE
  8
0
 10
26.2411
 20
-44.1825
 11
27.1361
 21
-43.7752
  0
LINE
  8
0
 10
27.1361
 20
-43.7752
 11
27.7709
 21
-42.9153
  0
LINE
  8
0
 10
27.7709
 20
-42.9153
 11
27.8768
 21
-42.4
  0
LINE
  8
0
 10
27.8768
 20
-42.4
 11
29.2327
 21
-42.4
  0
LINE
  8
0
 10
29.2327
 20
-42.4
 11
29.0452
 21
-43.1906
  0
LINE
  8
0
 10
29.0452
 20
-43.1906
 11
28.6613
 21
-44.2791
  0
LINE
  8
0
 10
28.6613
 20
-44.2791
 11
28.4165
 21
-44.7878
  0
LINE
  8
0
 10
28.4165
 20
-44.7878
 11
28.5
 21
-44.8
  0
LINE
  8
0
 10
28.5
 20
-44.8
 11
29.4573
 21
-44.6605
  0
ENDSEC
  0
SECTION
  2
OBJECTS
  0
DICTIONARY
  0
ENDSEC
  0
EOF
