<?xml version="1.0" standalone="no"?>
<!DOCTYPE svg PUBLIC "-//W3C//DTD SVG 1.1//EN" "http://www.w3.org/Graphics/SVG/1.1/DTD/svg11.dtd">
<svg width="764mm" height="136mm" viewBox="-390 -16 764 136" xmlns="http://www.w3.org/2000/svg" version="1.1">
<title>OpenSCAD Model</title>
<path d="
M -138.5,8.96922 L -137.764,8.90819 L -136.859,8.51149 L -136.133,7.84264 L -135.663,6.97409 L -135.5,6
 L -135.5,3 L -35,3 L -34.9182,3.98756 L -34.6749,4.9482 L -34.2768,5.85568 L -33.7348,6.68527
 L -33.0637,7.41434 L -32.2817,8.02299 L -31.4102,8.49463 L -30.4729,8.81639 L -29.4955,8.97951 L -29,8.97951
 L -29,9 L 29,9 L 29,8.97951 L 29.4955,8.97951 L 30.4729,8.81639 L 31.4102,8.49463
 L 32.2817,8.02299 L 33.0637,7.41434 L 33.7348,6.68527 L 34.2768,5.85568 L 34.6749,4.9482 L 34.9182,3.98756
 L 35,3 L 135.5,3 L 135.5,6 L 135.663,6.97409 L 136.133,7.84264 L 136.859,8.51149
 L 137.764,8.90819 L 138.5,8.96922 L 138.5,9 L 186.5,9 L 186.5,8.96922 L 187.236,8.90819
 L 188.141,8.51149 L 188.867,7.84264 L 189.337,6.97409 L 189.5,6 L 189.5,3 L 312,3
 L 312,2.97951 L 312.495,2.97951 L 313.473,2.81639 L 313.544,2.79207 L 313.581,2.91341 L 314.043,3.77785
 L 314.664,4.53552 L 315.422,5.15735 L 316.287,5.61938 L 317.225,5.90392 L 318.2,6 L 368.2,6
 L 369.175,5.90392 L 370.113,5.61938 L 370.978,5.15735 L 371.736,4.53552 L 372.357,3.77785 L 372.819,2.91341
 L 373.104,1.97545 L 373.2,1 L 373.2,-7 L 373.104,-7.97545 L 372.819,-8.91341 L 372.357,-9.77785
 L 371.736,-10.5355 L 370.978,-11.1573 L 370.113,-11.6194 L 369.175,-11.9039 L 368.2,-12 L 318.2,-12
 L 317.225,-11.9039 L 316.287,-11.6194 L 315.422,-11.1573 L 314.664,-10.5355 L 314.043,-9.77785 L 313.581,-8.91341
 L 313.544,-8.79207 L 313.473,-8.81639 L 312.495,-8.97951 L 312,-8.97951 L 312,-9 L 197,-9
 L 197,-12.2327 L 197.659,-12.0452 L 198.566,-11.6613 L 198.99,-11.4165 L 199,-11.5 L 198.884,-12.4573
 L 198.542,-13.3589 L 197.994,-14.1525 L 197.272,-14.7919 L 196.418,-15.2401 L 195.482,-15.4708 L 194.518,-15.4708
 L 193.582,-15.2401 L 192.728,-14.7919 L 192.006,-14.1525 L 191.458,-13.3589 L 191.116,-12.4573 L 191,-11.5
 L 191.008,-11.4323 L 191.882,-11.8672 L 192.811,-12.1946 L 193,-12.2361 L 193,-9 L 120.5,-9
 L 120.5,-12.2327 L 121.159,-12.0452 L 122.066,-11.6613 L 122.49,-11.4165 L 122.5,-11.5 L 122.384,-12.4573
 L 122.042,-13.3589 L 121.494,-14.1525 L 120.772,-14.7919 L 119.918,-15.2401 L 118.982,-15.4708 L 118.018,-15.4708
 L 117.082,-15.2401 L 116.228,-14.7919 L 115.506,-14.1525 L 114.958,-13.3589 L 114.616,-12.4573 L 114.5,-11.5
 L 114.508,-11.4323 L 115.382,-11.8672 L 116.311,-12.1946 L 116.5,-12.2361 L 116.5,-9 L 41.5,-9
 L 41.5,-12.2327 L 42.1588,-12.0452 L 43.0659,-11.6613 L 43.4899,-11.4165 L 43.5,-11.5 L 43.3838,-12.4573
 L 43.0418,-13.3589 L 42.494,-14.1525 L 41.7722,-14.7919 L 40.9184,-15.2401 L 39.9821,-15.4708 L 39.0179,-15.4708
 L 38.0816,-15.2401 L 37.2277,-14.7919 L 36.506,-14.1525 L 35.9582,-13.3589 L 35.6162,-12.4573 L 35.5,-11.5
 L 35.5082,-11.4323 L 36.3817,-11.8672 L 37.3107,-12.1946 L 37.5,-12.2361 L 37.5,-9 L -37.5,-9
 L -37.5,-12.2327 L -36.8412,-12.0452 L -35.9341,-11.6613 L -35.5101,-11.4165 L -35.5,-11.5 L -35.6162,-12.4573
 L -35.9582,-13.3589 L -36.506,-14.1525 L -37.2277,-14.7919 L -38.0816,-15.2401 L -39.0179,-15.4708 L -39.9821,-15.4708
 L -40.9184,-15.2401 L -41.7722,-14.7919 L -42.494,-14.1525 L -43.0418,-13.3589 L -43.3838,-12.4573 L -43.5,-11.5
 L -43.4918,-11.4323 L -42.6183,-11.8672 L -41.6893,-12.1946 L -41.5,-12.2361 L -41.5,-9 L -116.5,-9
 L -116.5,-12.2327 L -115.841,-12.0452 L -114.934,-11.6613 L -114.51,-11.4165 L -114.5,-11.5 L -114.616,-12.4573
 L -114.958,-13.3589 L -115.506,-14.1525 L -116.228,-14.7919 L -117.082,-15.2401 L -118.018,-15.4708 L -118.982,-15.4708
 L -119.918,-15.2401 L -120.772,-14.7919 L -121.494,-14.1525 L -122.042,-13.3589 L -122.384,-12.4573 L -122.5,-11.5
 L -122.492,-11.4323 L -121.618,-11.8672 L -120.689,-12.1946 L -120.5,-12.2361 L -120.5,-9 L -193,-9
 L -193,-12.2327 L -192.341,-12.0452 L -191.434,-11.6613 L -191.01,-11.4165 L -191,-11.5 L -191.116,-12.4573
 L -191.458,-13.3589 L -192.006,-14.1525 L -192.728,-14.7919 L -193.582,-15.2401 L -194.518,-15.4708 L -195.482,-15.4708
 L -196.418,-15.2401 L -197.272,-14.7919 L -197.994,-14.1525 L -198.542,-13.3589 L -198.884,-12.4573 L -199,-11.5
 L -198.992,-11.4323 L -198.118,-11.8672 L -197.189,-12.1946 L -197,-12.2361 L -197,-9 L -384,-9
 L -384,-8.97951 L -384.495,-8.97951 L -385.473,-8.81639 L -386.41,-8.49463 L -387.282,-8.02299 L -388.064,-7.41434
 L -388.735,-6.68527 L -389.277,-5.85568 L -389.675,-4.9482 L -389.918,-3.98756 L -390,-3 L -389.918,-2.01242
 L -389.675,-1.05179 L -389.277,-0.144302 L -388.735,0.685272 L -388.064,1.41434 L -387.282,2.02299 L -386.41,2.49463
 L -385.473,2.81639 L -384.495,2.97951 L -384,2.97951 L -384,3 L -189.5,3 L -189.5,6
 L -189.337,6.97409 L -188.867,7.84264 L -188.141,8.51149 L -187.236,8.90819 L -186.5,8.96922 L -186.5,9
 L -138.5,9 z
M 356.2,3 L 356.2,2.92413 L 355.577,2.78183 L 355.2,2 L 355.2,-8 L 355.577,-8.78183
 L 356.2,-8.92413 L 356.2,-9 L 366.2,-9 L 366.2,-8.92413 L 366.823,-8.78183 L 367.2,-8
 L 367.2,-6 L 363.2,-6 L 363.2,-5.95615 L 362.959,-5.98541 L 362.064,-5.64597 L 361.429,-4.92944
 L 361.2,-4 L 361.2,-2 L 361.429,-1.07054 L 362.064,-0.354019 L 362.959,-0.0145721 L 363.2,-0.0438385
 L 363.2,-0 L 367.2,-0 L 367.2,2 L 366.823,2.78183 L 366.2,2.92413 L 366.2,3
 z
M 320.2,3 L 320.2,2.92413 L 319.577,2.78183 L 319.2,2 L 319.2,-8 L 319.577,-8.78183
 L 320.2,-8.92413 L 320.2,-9 L 330.2,-9 L 330.2,-8.92413 L 330.823,-8.78183 L 331.2,-8
 L 331.2,2 L 330.823,2.78183 L 330.2,2.92413 L 330.2,3 z
M 338.2,3 L 338.2,2.92413 L 337.577,2.78183 L 337.2,2 L 337.2,-8 L 337.577,-8.78183
 L 338.2,-8.92413 L 338.2,-9 L 348.2,-9 L 348.2,-8.92413 L 348.823,-8.78183 L 349.2,-8
 L 349.2,2 L 348.823,2.78183 L 348.2,2.92413 L 348.2,3 z
M -322,-5.92532 L -322,-6 L -314,-6 L -314,-5.92532 L -313.845,-5.97552 L -313.5,-5.5
 L -313.5,-0.5 L -313.845,-0.0244598 L -314,-0.0746613 L -314,-0 L -322,-0 L -322,-0.0746613
 L -322.155,-0.0244598 L -322.5,-0.5 L -322.5,-5.5 L -322.155,-5.97552 z
M -214,-5.92532 L -214,-6 L -206,-6 L -206,-5.92532 L -205.845,-5.97552 L -205.5,-5.5
 L -205.5,-0.5 L -205.845,-0.0244598 L -206,-0.0746613 L -206,-0 L -214,-0 L -214,-0.0746613
 L -214.155,-0.0244598 L -214.5,-0.5 L -214.5,-5.5 L -214.155,-5.97552 z
M 167.5,4.5 L 167.5,4.42532 L 167.345,4.47552 L 167,4 L 167,-4 L 167.345,-4.47552
 L 167.5,-4.42532 L 167.5,-4.5 L 184.5,-4.5 L 184.5,-4.42532 L 184.655,-4.47552 L 185,-4
 L 185,4 L 184.655,4.47552 L 184.5,4.42532 L 184.5,4.5 z
M -184.5,4.5 L -184.5,4.42532 L -184.655,4.47552 L -185,4 L -185,-4 L -184.655,-4.47552
 L -184.5,-4.42532 L -184.5,-4.5 L -167.5,-4.5 L -167.5,-4.42532 L -167.345,-4.47552 L -167,-4
 L -167,4 L -167.345,4.47552 L -167.5,4.42532 L -167.5,4.5 z
M -157.5,4.5 L -157.5,4.42532 L -157.655,4.47552 L -158,4 L -158,-4 L -157.655,-4.47552
 L -157.5,-4.42532 L -157.5,-4.5 L -140.5,-4.5 L -140.5,-4.42532 L -140.345,-4.47552 L -140,-4
 L -140,4 L -140.345,4.47552 L -140.5,4.42532 L -140.5,4.5 z
M 140.5,4.5 L 140.5,4.42532 L 140.345,4.47552 L 140,4 L 140,-4 L 140.345,-4.47552
 L 140.5,-4.42532 L 140.5,-4.5 L 157.5,-4.5 L 157.5,-4.42532 L 157.655,-4.47552 L 158,-4
 L 158,4 L 157.655,4.47552 L 157.5,4.42532 L 157.5,4.5 z
M -22,3.75 L -22,3.67532 L -22.1545,3.72552 L -22.5,3.25 L -22.1545,2.77446 L -22,2.82466
 L -22,2.75 L -0.5,2.75 L -0.5,-2.75 L -22,-2.75 L -22,-2.82466 L -22.1545,-2.77446
 L -22.5,-3.25 L -22.1545,-3.72552 L -22,-3.67532 L -22,-3.75 L 22,-3.75 L 22,-3.67532
 L 22.1545,-3.72552 L 22.5,-3.25 L 22.1545,-2.77446 L 22,-2.82466 L 22,-2.75 L 0.5,-2.75
 L 0.5,2.75 L 22,2.75 L 22,2.82466 L 22.1545,2.77446 L 22.5,3.25 L 22.1545,3.72552
 L 22,3.67532 L 22,3.75 z
M 2.75,1.125 L 2.75,1.05032 L 2.59549,1.10052 L 2.25,0.625 L 2.25,-0.625 L 2.59549,-1.10052
 L 2.75,-1.05032 L 2.75,-1.125 L 6.25,-1.125 L 6.25,-1.05032 L 6.4045,-1.10052 L 6.75,-0.625
 L 6.75,0.625 L 6.4045,1.10052 L 6.25,1.05032 L 6.25,1.125 z
M -6.25,1.125 L -6.25,1.05032 L -6.4045,1.10052 L -6.75,0.625 L -6.75,-0.625 L -6.4045,-1.10052
 L -6.25,-1.05032 L -6.25,-1.125 L -2.75,-1.125 L -2.75,-1.05032 L -2.59549,-1.10052 L -2.25,-0.625
 L -2.25,0.625 L -2.59549,1.10052 L -2.75,1.05032 L -2.75,1.125 z
M -349.845,-0.0244598 L -350,-0.0746613 L -350,-0 L -358,-0 L -358,-0.0746613 L -358.155,-0.0244598
 L -358.5,-0.5 L -358.5,-5.5 L -358.155,-5.97552 L -358,-5.92532 L -358,-6 L -350,-6
 L -350,-5.92532 L -349.845,-5.97552 L -349.5,-5.5 L -349.5,-0.5 z
M -295.845,-0.0244598 L -296,-0.0746613 L -296,-0 L -304,-0 L -304,-0.0746613 L -304.155,-0.0244598
 L -304.5,-0.5 L -304.5,-5.5 L -304.155,-5.97552 L -304,-5.92532 L -304,-6 L -296,-6
 L -296,-5.92532 L -295.845,-5.97552 L -295.5,-5.5 L -295.5,-0.5 z
M -286,-5.92532 L -286,-6 L -278,-6 L -278,-5.92532 L -277.845,-5.97552 L -277.5,-5.5
 L -277.5,-0.5 L -277.845,-0.0244598 L -278,-0.0746613 L -278,-0 L -286,-0 L -286,-0.0746613
 L -286.155,-0.0244598 L -286.5,-0.5 L -286.5,-5.5 L -286.155,-5.97552 z
M -367.845,-0.0244598 L -368,-0.0746613 L -368,-0 L -376,-0 L -376,-0.0746613 L -376.155,-0.0244598
 L -376.5,-0.5 L -376.5,-5.5 L -376.155,-5.97552 L -376,-5.92532 L -376,-6 L -368,-6
 L -368,-5.92532 L -367.845,-5.97552 L -367.5,-5.5 L -367.5,-0.5 z
M -268,-5.92532 L -268,-6 L -260,-6 L -260,-5.92532 L -259.845,-5.97552 L -259.5,-5.5
 L -259.5,-0.5 L -259.845,-0.0244598 L -260,-0.0746613 L -260,-0 L -268,-0 L -268,-0.0746613
 L -268.155,-0.0244598 L -268.5,-0.5 L -268.5,-5.5 L -268.155,-5.97552 z
M -340,-5.92532 L -340,-6 L -332,-6 L -332,-5.92532 L -331.845,-5.97552 L -331.5,-5.5
 L -331.5,-0.5 L -331.845,-0.0244598 L -332,-0.0746613 L -332,-0 L -340,-0 L -340,-0.0746613
 L -340.155,-0.0244598 L -340.5,-0.5 L -340.5,-5.5 L -340.155,-5.97552 z
M -250,-5.92532 L -250,-6 L -242,-6 L -242,-5.92532 L -241.845,-5.97552 L -241.5,-5.5
 L -241.5,-0.5 L -241.845,-0.0244598 L -242,-0.0746613 L -242,-0 L -250,-0 L -250,-0.0746613
 L -250.155,-0.0244598 L -250.5,-0.5 L -250.5,-5.5 L -250.155,-5.97552 z
M -232,-5.92532 L -232,-6 L -224,-6 L -224,-5.92532 L -223.845,-5.97552 L -223.5,-5.5
 L -223.5,-0.5 L -223.845,-0.0244598 L -224,-0.0746613 L -224,-0 L -232,-0 L -232,-0.0746613
 L -232.155,-0.0244598 L -232.5,-0.5 L -232.5,-5.5 L -232.155,-5.97552 z
M -127,12 L -127,15.5 L -149.5,15.5 L -149.5,15.5198 L -149.744,15.5066 L -150.704,15.664
 L -151.608,16.0242 L -152.413,16.5703 L -153.082,17.2767 L -153.584,18.1105 L -153.895,19.0326 L -154,20
 L -153.895,20.9674 L -153.584,21.8895 L -153.082,22.7233 L -152.413,23.4297 L -151.608,23.9758 L -150.704,24.336
 L -149.744,24.4934 L -149.5,24.4802 L -149.5,24.5 L -127,24.5 L -127,28 L -126.623,28.7818
 L -126,28.9241 L -126,29 L -110,29 L -110,28.9241 L -109.377,28.7818 L -109,28
 L -109,24.5 L -100,24.5 L -100,28 L -99.6235,28.7818 L -99,28.9241 L -99,29
 L 99,29 L 99,28.9241 L 99.6235,28.7818 L 100,28 L 100,24.5 L 109,24.5
 L 109,28 L 109.377,28.7818 L 110,28.9241 L 110,29 L 126,29 L 126,28.9241
 L 126.623,28.7818 L 127,28 L 127,24.5 L 149.5,24.5 L 149.5,24.4802 L 149.744,24.4934
 L 150.704,24.336 L 151.608,23.9758 L 152.413,23.4297 L 153.082,22.7233 L 153.584,21.8895 L 153.895,20.9674
 L 154,20 L 153.895,19.0326 L 153.584,18.1105 L 153.082,17.2767 L 152.413,16.5703 L 151.608,16.0242
 L 150.704,15.664 L 149.744,15.5066 L 149.5,15.5198 L 149.5,15.5 L 127,15.5 L 127,12
 L 126.623,11.2182 L 126,11.0759 L 126,11 L 110,11 L 110,11.0759 L 109.377,11.2182
 L 109,12 L 109,15.5 L 100,15.5 L 100,12 L 99.6235,11.2182 L 99,11.0759
 L 99,11 L -99,11 L -99,11.0759 L -99.6235,11.2182 L -100,12 L -100,15.5
 L -109,15.5 L -109,12 L -109.377,11.2182 L -110,11.0759 L -110,11 L -126,11
 L -126,11.0759 L -126.623,11.2182 z
M -22,22.75 L -22,22.6753 L -22.1545,22.7255 L -22.5,22.25 L -22.1545,21.7745 L -22,21.8247
 L -22,21.75 L -6.75,21.75 L -6.75,21.625 L -6.4045,21.1495 L -6.25,21.1997 L -6.25,21.125
 L -2.75,21.125 L -2.75,21.1997 L -2.59549,21.1495 L -2.25,21.625 L -2.25,21.75 L -0.5,21.75
 L -0.5,18.25 L -2.25,18.25 L -2.25,18.375 L -2.59549,18.8505 L -2.75,18.8003 L -2.75,18.875
 L -6.25,18.875 L -6.25,18.8003 L -6.4045,18.8505 L -6.75,18.375 L -6.75,18.25 L -22,18.25
 L -22,18.1753 L -22.1545,18.2255 L -22.5,17.75 L -22.1545,17.2745 L -22,17.3247 L -22,17.25
 L 22,17.25 L 22,17.3247 L 22.1545,17.2745 L 22.5,17.75 L 22.1545,18.2255 L 22,18.1753
 L 22,18.25 L 6.75,18.25 L 6.75,18.375 L 6.4045,18.8505 L 6.25,18.8003 L 6.25,18.875
 L 2.75,18.875 L 2.75,18.8003 L 2.59549,18.8505 L 2.25,18.375 L 2.25,18.25 L 0.5,18.25
 L 0.5,21.75 L 2.25,21.75 L 2.25,21.625 L 2.59549,21.1495 L 2.75,21.1997 L 2.75,21.125
 L 6.25,21.125 L 6.25,21.1997 L 6.4045,21.1495 L 6.75,21.625 L 6.75,21.75 L 22,21.75
 L 22,21.8247 L 22.1545,21.7745 L 22.5,22.25 L 22.1545,22.7255 L 22,22.6753 L 22,22.75
 z
M 29.4573,44.6605 L 30.3589,44.2502 L 31.1525,43.5928 L 31.7919,42.7267 L 32.2401,41.7021 L 32.4708,40.5786
 L 32.4708,39.4214 L 32.2401,38.2979 L 31.7919,37.2733 L 31.1525,36.4072 L 30.3589,35.7498 L 29.4573,35.3395
 L 28.5,35.2 L 28.4323,35.2099 L 28.8672,36.2581 L 29.1946,37.3728 L 29.2361,37.6 L 27.8768,37.6
 L 27.7709,37.0847 L 27.1361,36.2248 L 26.2411,35.8175 L 26,35.8526 L 26,35.8 L -26,35.8
 L -26,35.8526 L -26.2411,35.8175 L -27.1361,36.2248 L -27.7709,37.0847 L -27.8768,37.6 L -29.2361,37.6
 L -29.1946,37.3728 L -28.8672,36.2581 L -28.4323,35.2099 L -28.5,35.2 L -29.4573,35.3395 L -30.3589,35.7498
 L -31.1525,36.4072 L -31.7919,37.2733 L -32.2401,38.2979 L -32.4708,39.4214 L -32.4708,40.5786 L -32.2401,41.7021
 L -31.7919,42.7267 L -31.1525,43.5928 L -30.3589,44.2502 L -29.4573,44.6605 L -28.5,44.8 L -28.4165,44.7878
 L -28.6613,44.2791 L -29.0452,43.1906 L -29.2327,42.4 L -27.8768,42.4 L -27.7709,42.9153 L -27.1361,43.7752
 L -26.2411,44.1825 L -26,44.1474 L -26,44.2 L 26,44.2 L 26,44.1474 L 26.2411,44.1825
 L 27.1361,43.7752 L 27.7709,42.9153 L 27.8768,42.4 L 29.2327,42.4 L 29.0452,43.1906 L 28.6613,44.2791
 L 28.4165,44.7878 L 28.5,44.8 z
M 130.05,117.902 L 117.098,104.95 L 102.862,93.422 L 99.209,91.0495 L 108.49,74.9737 L 108.757,74.0542
 L 108.565,73.1163 L 107.96,72.3748 L 107.736,72.2796 L 107.758,72.2417 L 85.2417,59.2417 L 85.2197,59.2796
 L 85.0256,59.1338 L 84.0807,58.9802 L 83.1727,59.2833 L 82.5096,59.9737 L 73.1728,76.1455 L 71.1789,75.1295
 L 54.078,68.5651 L 36.3845,63.8242 L 18.2925,60.9587 L 0,60 L -18.2925,60.9587 L -36.3845,63.8242
 L -54.078,68.5651 L -71.1789,75.1295 L -73.1728,76.1455 L -82.5096,59.9737 L -83.1727,59.2833 L -84.0807,58.9802
 L -85.0256,59.1338 L -85.2197,59.2796 L -85.2417,59.2417 L -107.758,72.2417 L -107.736,72.2796 L -107.96,72.3748
 L -108.565,73.1163 L -108.757,74.0542 L -108.49,74.9737 L -99.209,91.0495 L -102.862,93.422 L -117.098,104.95
 L -130.05,117.902 L -131.749,120 L 131.749,120 z
M -94.9772,87.3792 L -101.477,76.1208 L -101.542,75.2555 L -101.073,74.8205 L -100.462,74.632 L -99.7452,75.1208
 L -96.844,80.1459 L -96.3306,79.5171 L -96.1072,79.422 L -96.1292,79.384 L -84.8708,72.884 L -84.8489,72.922
 L -84.6548,72.7761 L -83.8536,72.6459 L -86.7548,67.6208 L -86.8197,66.7555 L -86.3508,66.3205 L -85.7397,66.132
 L -85.0228,66.6208 L -78.5228,77.8792 L -78.4579,78.7445 L -78.6823,78.9527 L -79.4352,79.3363 L -79.5378,79.368
 L -80.2548,78.8792 L -83.156,73.8541 L -83.6693,74.4828 L -83.8928,74.578 L -83.8708,74.616 L -95.1292,81.116
 L -95.1511,81.078 L -95.3452,81.2239 L -96.1464,81.3541 L -93.2452,86.3792 L -93.1882,87.1395 L -94.2845,87.8515
 z
M 93.1882,87.1395 L 93.2452,86.3792 L 96.1464,81.3541 L 95.3452,81.2239 L 95.1511,81.078 L 95.1292,81.116
 L 83.8708,74.616 L 83.8928,74.578 L 83.6693,74.4828 L 83.156,73.8541 L 80.2548,78.8792 L 79.5378,79.368
 L 79.4352,79.3363 L 78.6823,78.9527 L 78.4579,78.7445 L 78.5228,77.8792 L 85.0228,66.6208 L 85.7397,66.132
 L 86.3508,66.3205 L 86.8197,66.7555 L 86.7548,67.6208 L 83.8536,72.6459 L 84.6548,72.7761 L 84.8489,72.922
 L 84.8708,72.884 L 96.1292,79.384 L 96.1072,79.422 L 96.3306,79.5171 L 96.844,80.1459 L 99.7452,75.1208
 L 100.462,74.632 L 101.073,74.8205 L 101.542,75.2555 L 101.477,76.1208 L 94.9772,87.3792 L 94.2845,87.8515
 z
" stroke="black" fill="lightgray" stroke-width="0.5"/>
</svg>
