<?xml version="1.0" standalone="no"?>
<!DOCTYPE svg PUBLIC "-//W3C//DTD SVG 1.1//EN" "http://www.w3.org/Graphics/SVG/1.1/DTD/svg11.dtd">
<svg width="678mm" height="312mm" viewBox="-400 -12 678 312" xmlns="http://www.w3.org/2000/svg" version="1.1">
<title>OpenSCAD Model</title>
<path d="
M 273.123,11.9726 L 273.64,11.8907 L 274.145,11.7553 L 274.634,11.5677 L 275.1,11.3301 L 275.539,11.0451
 L 275.946,10.7157 L 276.316,10.3456 L 276.645,9.93892 L 276.93,9.5 L 277.168,9.03368 L 277.355,8.54507
 L 277.491,8.03955 L 277.573,7.52263 L 277.6,7 L 277.6,-7 L 277.573,-7.52263 L 277.491,-8.03955
 L 277.355,-8.54507 L 277.168,-9.03368 L 276.93,-9.5 L 276.645,-9.93892 L 276.316,-10.3456 L 275.946,-10.7157
 L 275.539,-11.0451 L 275.1,-11.3301 L 274.634,-11.5677 L 274.145,-11.7553 L 273.64,-11.8907 L 273.123,-11.9726
 L 272.6,-12 L 202.6,-12 L 202.077,-11.9726 L 201.56,-11.8907 L 201.055,-11.7553 L 200.566,-11.5677
 L 200.1,-11.3301 L 199.661,-11.0451 L 199.254,-10.7157 L 198.884,-10.3456 L 198.555,-9.93892 L 198.27,-9.5
 L 198.032,-9.03368 L 197.845,-8.54507 L 197.709,-8.03955 L 197.675,-7.82208 L 197.663,-7.82518 L 196.836,-7.95616
 L 196,-8 L -392,-8 L -392.836,-7.95616 L -393.663,-7.82518 L -394.472,-7.60844 L -395.254,-7.30835
 L -396,-6.92819 L -396.702,-6.47212 L -397.353,-5.94514 L -397.945,-5.35304 L -398.472,-4.70227 L -398.928,-4
 L -399.308,-3.25389 L -399.608,-2.47212 L -399.825,-1.66328 L -399.956,-0.836227 L -400,-0 L -399.956,0.836227
 L -399.825,1.66328 L -399.608,2.47212 L -399.308,3.25389 L -398.928,4 L -398.472,4.70227 L -397.945,5.35304
 L -397.353,5.94514 L -396.702,6.47212 L -396,6.92819 L -395.254,7.30835 L -394.472,7.60844 L -393.663,7.82518
 L -392.836,7.95616 L -392,8 L 196,8 L 196.836,7.95616 L 197.663,7.82518 L 197.675,7.82208
 L 197.709,8.03955 L 197.845,8.54507 L 198.032,9.03368 L 198.27,9.5 L 198.555,9.93892 L 198.884,10.3456
 L 199.254,10.7157 L 199.661,11.0451 L 200.1,11.3301 L 200.566,11.5677 L 201.055,11.7553 L 201.56,11.8907
 L 202.077,11.9726 L 202.6,12 L 272.6,12 z
M 237,8 L 237,7.97807 L 236.879,7.99271 L 236.432,7.82298 L 236.115,7.46472 L 236,7
 L 236,-7 L 236.115,-7.46472 L 236.432,-7.82298 L 236.879,-7.99271 L 237,-7.97807 L 237,-8
 L 238.2,-8 L 238.2,-7.97807 L 238.321,-7.99271 L 238.768,-7.82298 L 239.085,-7.46472 L 239.2,-7
 L 239.2,7 L 239.085,7.46472 L 238.768,7.82298 L 238.321,7.99271 L 238.2,7.97807 L 238.2,8
 z
M 254.6,8 L 254.6,7.97807 L 254.479,7.99271 L 254.032,7.82298 L 253.715,7.46472 L 253.6,7
 L 253.6,-7 L 253.715,-7.46472 L 254.032,-7.82298 L 254.479,-7.99271 L 254.6,-7.97807 L 254.6,-8
 L 268.6,-8 L 268.6,-7.97807 L 268.721,-7.99271 L 269.168,-7.82298 L 269.485,-7.46472 L 269.6,-7
 L 269.6,-2.66666 L 263.6,-2.66666 L 263.6,-2.65208 L 263.359,-2.65208 L 262.891,-2.5367 L 262.464,-2.31262
 L 262.103,-1.9929 L 261.829,-1.5961 L 261.658,-1.14529 L 261.6,-0.666656 L 261.6,0.666656 L 261.658,1.14529
 L 261.829,1.5961 L 262.103,1.9929 L 262.464,2.31262 L 262.891,2.5367 L 263.359,2.65208 L 263.6,2.65208
 L 263.6,2.66666 L 269.6,2.66666 L 269.6,7 L 269.485,7.46472 L 269.168,7.82298 L 268.721,7.99271
 L 268.6,7.97807 L 268.6,8 z
M 213,8 L 213,7.97807 L 212.879,7.99271 L 212.432,7.82298 L 212.115,7.46472 L 212,7
 L 212,-7 L 212.115,-7.46472 L 212.432,-7.82298 L 212.879,-7.99271 L 213,-7.97807 L 213,-8
 L 214.2,-8 L 214.2,-7.97807 L 214.321,-7.99271 L 214.768,-7.82298 L 215.085,-7.46472 L 215.2,-7
 L 215.2,7 L 215.085,7.46472 L 214.768,7.82298 L 214.321,7.99271 L 214.2,7.97807 L 214.2,8
 z
M -378.7,2.66666 L -378.7,2.62872 L -379.012,2.55757 L -379.2,2.16666 L -379.2,-2.16666 L -379.012,-2.55757
 L -378.7,-2.62872 L -378.7,-2.66666 L -373.3,-2.66666 L -373.3,-2.62872 L -372.988,-2.55757 L -372.8,-2.16666
 L -372.8,2.16666 L -372.988,2.55757 L -373.3,2.62872 L -373.3,2.66666 z
M -362.7,2.66666 L -362.7,2.62872 L -363.012,2.55757 L -363.2,2.16666 L -363.2,-2.16666 L -363.012,-2.55757
 L -362.7,-2.62872 L -362.7,-2.66666 L -357.3,-2.66666 L -357.3,-2.62872 L -356.988,-2.55757 L -356.8,-2.16666
 L -356.8,2.16666 L -356.988,2.55757 L -357.3,2.62872 L -357.3,2.66666 z
M -250.7,2.66666 L -250.7,2.62872 L -251.012,2.55757 L -251.2,2.16666 L -251.2,-2.16666 L -251.012,-2.55757
 L -250.7,-2.62872 L -250.7,-2.66666 L -245.3,-2.66666 L -245.3,-2.62872 L -244.988,-2.55757 L -244.8,-2.16666
 L -244.8,2.16666 L -244.988,2.55757 L -245.3,2.62872 L -245.3,2.66666 z
M -218.7,2.66666 L -218.7,2.62872 L -219.012,2.55757 L -219.2,2.16666 L -219.2,-2.16666 L -219.012,-2.55757
 L -218.7,-2.62872 L -218.7,-2.66666 L -213.3,-2.66666 L -213.3,-2.62872 L -212.988,-2.55757 L -212.8,-2.16666
 L -212.8,2.16666 L -212.988,2.55757 L -213.3,2.62872 L -213.3,2.66666 z
M -202.7,2.66666 L -202.7,2.62872 L -203.012,2.55757 L -203.2,2.16666 L -203.2,-2.16666 L -203.012,-2.55757
 L -202.7,-2.62872 L -202.7,-2.66666 L -197.3,-2.66666 L -197.3,-2.62872 L -196.988,-2.55757 L -196.8,-2.16666
 L -196.8,2.16666 L -196.988,2.55757 L -197.3,2.62872 L -197.3,2.66666 z
M -346.7,2.66666 L -346.7,2.62872 L -347.012,2.55757 L -347.2,2.16666 L -347.2,-2.16666 L -347.012,-2.55757
 L -346.7,-2.62872 L -346.7,-2.66666 L -341.3,-2.66666 L -341.3,-2.62872 L -340.988,-2.55757 L -340.8,-2.16666
 L -340.8,2.16666 L -340.988,2.55757 L -341.3,2.62872 L -341.3,2.66666 z
M -314.7,2.66666 L -314.7,2.62872 L -315.012,2.55757 L -315.2,2.16666 L -315.2,-2.16666 L -315.012,-2.55757
 L -314.7,-2.62872 L -314.7,-2.66666 L -309.3,-2.66666 L -309.3,-2.62872 L -308.988,-2.55757 L -308.8,-2.16666
 L -308.8,2.16666 L -308.988,2.55757 L -309.3,2.62872 L -309.3,2.66666 z
M -282.7,2.66666 L -282.7,2.62872 L -283.012,2.55757 L -283.2,2.16666 L -283.2,-2.16666 L -283.012,-2.55757
 L -282.7,-2.62872 L -282.7,-2.66666 L -277.3,-2.66666 L -277.3,-2.62872 L -276.988,-2.55757 L -276.8,-2.16666
 L -276.8,2.16666 L -276.988,2.55757 L -277.3,2.62872 L -277.3,2.66666 z
M -234.7,2.66666 L -234.7,2.62872 L -235.012,2.55757 L -235.2,2.16666 L -235.2,-2.16666 L -235.012,-2.55757
 L -234.7,-2.62872 L -234.7,-2.66666 L -229.3,-2.66666 L -229.3,-2.62872 L -228.988,-2.55757 L -228.8,-2.16666
 L -228.8,2.16666 L -228.988,2.55757 L -229.3,2.62872 L -229.3,2.66666 z
M -186.7,2.66666 L -186.7,2.62872 L -187.012,2.55757 L -187.2,2.16666 L -187.2,-2.16666 L -187.012,-2.55757
 L -186.7,-2.62872 L -186.7,-2.66666 L -181.3,-2.66666 L -181.3,-2.62872 L -180.988,-2.55757 L -180.8,-2.16666
 L -180.8,2.16666 L -180.988,2.55757 L -181.3,2.62872 L -181.3,2.66666 z
M -298.7,2.66666 L -298.7,2.62872 L -299.012,2.55757 L -299.2,2.16666 L -299.2,-2.16666 L -299.012,-2.55757
 L -298.7,-2.62872 L -298.7,-2.66666 L -293.3,-2.66666 L -293.3,-2.62872 L -292.988,-2.55757 L -292.8,-2.16666
 L -292.8,2.16666 L -292.988,2.55757 L -293.3,2.62872 L -293.3,2.66666 z
M -330.7,2.66666 L -330.7,2.62872 L -331.012,2.55757 L -331.2,2.16666 L -331.2,-2.16666 L -331.012,-2.55757
 L -330.7,-2.62872 L -330.7,-2.66666 L -325.3,-2.66666 L -325.3,-2.62872 L -324.988,-2.55757 L -324.8,-2.16666
 L -324.8,2.16666 L -324.988,2.55757 L -325.3,2.62872 L -325.3,2.66666 z
M -266.7,2.66666 L -266.7,2.62872 L -267.012,2.55757 L -267.2,2.16666 L -267.2,-2.16666 L -267.012,-2.55757
 L -266.7,-2.62872 L -266.7,-2.66666 L -261.3,-2.66666 L -261.3,-2.62872 L -260.988,-2.55757 L -260.8,-2.16666
 L -260.8,2.16666 L -260.988,2.55757 L -261.3,2.62872 L -261.3,2.66666 z
M -170.7,2.66666 L -170.7,2.62872 L -171.012,2.55757 L -171.2,2.16666 L -171.2,-2.16666 L -171.012,-2.55757
 L -170.7,-2.62872 L -170.7,-2.66666 L -165.3,-2.66666 L -165.3,-2.62872 L -164.988,-2.55757 L -164.8,-2.16666
 L -164.8,2.16666 L -164.988,2.55757 L -165.3,2.62872 L -165.3,2.66666 z
M 104.521,1.47414 L 104.089,1.25397 L 103.746,0.911057 L 103.526,0.478973 L 103.45,-0 L 103.526,-0.478973
 L 103.746,-0.911057 L 104.089,-1.25397 L 104.521,-1.47414 L 105,-1.54999 L 105.479,-1.47414 L 105.911,-1.25397
 L 106.254,-0.911057 L 106.474,-0.478973 L 106.55,-0 L 106.474,0.478973 L 106.254,0.911057 L 105.911,1.25397
 L 105.479,1.47414 L 105,1.54999 z
M -105.479,1.47414 L -105.911,1.25397 L -106.254,0.911057 L -106.474,0.478973 L -106.55,-0 L -106.474,-0.478973
 L -106.254,-0.911057 L -105.911,-1.25397 L -105.479,-1.47414 L -105,-1.54999 L -104.521,-1.47414 L -104.089,-1.25397
 L -103.746,-0.911057 L -103.526,-0.478973 L -103.45,-0 L -103.526,0.478973 L -103.746,0.911057 L -104.089,1.25397
 L -104.521,1.47414 L -105,1.54999 z
M 64.1811,299.781 L 68.3165,299.126 L 72.3607,298.042 L 76.2695,296.542 L 80,294.641 L 83.5114,292.361
 L 86.7652,289.726 L 89.7258,286.765 L 92.3607,283.511 L 94.641,280 L 96.5418,276.269 L 158.271,128.135
 L 159.021,126.18 L 159.563,124.158 L 159.89,122.091 L 160,120 L 160,80 L 159.945,78.9547
 L 159.781,77.9209 L 159.511,76.9098 L 159.135,75.9326 L 158.66,75 L 158.09,74.1221 L 157.431,73.3087
 L 156.691,72.5685 L 155.878,71.9098 L 155,71.3397 L 106.136,40.354 L 105.709,40.13 L 105.241,40.0146
 L 105.14,40.0146 L 105.121,40.0073 L 96,40 L 94.9547,40.0548 L 93.9209,40.2185 L 92.9098,40.4894
 L 91.9326,40.8645 L 91,41.3397 L 90.1221,41.9098 L 89.3087,42.5685 L 88.5685,43.3087 L 87.9098,44.1221
 L 87.3397,45 L 86.8645,45.9326 L 86.4894,46.9098 L 86.2185,47.9209 L 86.0548,48.9547 L 86,50
 L 86.0548,51.0453 L 86.2185,52.0791 L 86.4894,53.0902 L 86.8645,54.0674 L 92.8678,68.7184 L 93.0721,69.16
 L 100.916,80 L 99.6597,80 L 84.0451,57.0611 L 84,57.0054 L 84,54 L 83.9697,53.5084
 L 83.8792,53.0243 L 83.7299,52.555 L 83.524,52.1076 L 83.2648,51.6889 L 82.956,51.3052 L 82.6025,50.9624
 L 82.2095,50.6656 L 81.7829,50.4193 L 81.3294,50.2274 L 80.8557,50.0926 L 80.3691,50.0171 L 80,50.0057
 L 79.6309,50.0171 L 79.1443,50.0926 L 78.6706,50.2274 L 78.217,50.4193 L 77.7905,50.6656 L 77.3975,50.9624
 L 77.044,51.3052 L 76.7352,51.6889 L 76.476,52.1076 L 76.2701,52.555 L 76.1208,53.0243 L 76.0303,53.5084
 L 76,54 L 76,57.0054 L 75.9549,57.0611 L 60.3403,80 L 59.0848,80 L 66.7912,69.3616
 L 67.042,68.9447 L 73.1355,54.0674 L 73.5106,53.0902 L 73.7815,52.0791 L 73.9452,51.0453 L 74,50
 L 73.9452,48.9547 L 73.7815,47.9209 L 73.5106,46.9098 L 73.1355,45.9326 L 72.6602,45 L 72.0902,44.1221
 L 71.4314,43.3087 L 70.6913,42.5685 L 69.8779,41.9098 L 69,41.3397 L 68.0674,40.8645 L 67.0902,40.4894
 L 66.0791,40.2185 L 65.0453,40.0548 L 64,40 L 62.9547,40.0548 L 61.9209,40.2185 L 60.9098,40.4894
 L 55,42.1231 L 55,42.0343 L 41.5823,45.6295 L 20.9057,48.9044 L 0,50 L -20.9057,48.9044
 L -41.5823,45.6295 L -55,42.0343 L -55,42.1231 L -60.9098,40.4894 L -61.9209,40.2185 L -62.9547,40.0548
 L -64,40 L -65.0453,40.0548 L -66.0791,40.2185 L -67.0902,40.4894 L -68.0674,40.8645 L -69,41.3397
 L -69.8779,41.9098 L -70.6913,42.5685 L -71.4314,43.3087 L -72.0902,44.1221 L -72.6602,45 L -73.1355,45.9326
 L -73.5106,46.9098 L -73.7815,47.9209 L -73.9452,48.9547 L -74,50 L -73.9452,51.0453 L -73.7815,52.0791
 L -73.5106,53.0902 L -73.1355,54.0674 L -67.042,68.9447 L -66.7912,69.3616 L -59.0848,80 L -60.3403,80
 L -75.9549,57.0611 L -76,57.0054 L -76,54 L -76.0303,53.5084 L -76.1208,53.0243 L -76.2701,52.555
 L -76.476,52.1076 L -76.7352,51.6889 L -77.044,51.3052 L -77.3975,50.9624 L -77.7905,50.6656 L -78.217,50.4193
 L -78.6706,50.2274 L -79.1443,50.0926 L -79.6309,50.0171 L -80,50.0057 L -80.3691,50.0171 L -80.8557,50.0926
 L -81.3294,50.2274 L -81.7829,50.4193 L -82.2095,50.6656 L -82.6025,50.9624 L -82.956,51.3052 L -83.2648,51.6889
 L -83.524,52.1076 L -83.7299,52.555 L -83.8792,53.0243 L -83.9697,53.5084 L -84,54 L -84,57.0054
 L -84.0451,57.0611 L -99.6597,80 L -100.916,80 L -93.0721,69.16 L -92.8678,68.7184 L -86.8645,54.0674
 L -86.4894,53.0902 L -86.2185,52.0791 L -86.0548,51.0453 L -86,50 L -86.0548,48.9547 L -86.2185,47.9209
 L -86.4894,46.9098 L -86.8645,45.9326 L -87.3397,45 L -87.9098,44.1221 L -88.5685,43.3087 L -89.3087,42.5685
 L -90.1221,41.9098 L -91,41.3397 L -91.9326,40.8645 L -92.9098,40.4894 L -93.9209,40.2185 L -94.9547,40.0548
 L -96,40 L -105.121,40.0073 L -105.14,40.0146 L -105.241,40.0146 L -105.709,40.13 L -106.136,40.354
 L -155,71.3397 L -155.878,71.9098 L -156.691,72.5685 L -157.431,73.3087 L -158.09,74.1221 L -158.66,75
 L -159.135,75.9326 L -159.511,76.9098 L -159.781,77.9209 L -159.945,78.9547 L -160,80 L -160,120
 L -159.89,122.091 L -159.563,124.158 L -159.021,126.18 L -158.271,128.135 L -96.5418,276.269 L -94.641,280
 L -92.3607,283.511 L -89.7258,286.765 L -86.7652,289.726 L -83.5114,292.361 L -80,294.641 L -76.2695,296.542
 L -72.3607,298.042 L -68.3165,299.126 L -64.1811,299.781 L -60,300 L 60,300 z
M -62.5226,54.9726 L -63.0396,54.8907 L -63.5451,54.7553 L -64.0337,54.5677 L -64.5,54.3301 L -64.9389,54.0451
 L -65.3456,53.7157 L -65.7157,53.3456 L -66.0451,52.9389 L -66.3301,52.5 L -66.5677,52.0337 L -66.7553,51.5451
 L -66.8907,51.0396 L -66.9726,50.5226 L -67,50 L -66.9726,49.4774 L -66.8907,48.9604 L -66.7553,48.4549
 L -66.5677,47.9663 L -66.3301,47.5 L -66.0451,47.0611 L -65.7157,46.6543 L -65.3456,46.2843 L -64.9389,45.9549
 L -64.5,45.6699 L -64.0337,45.4323 L -63.5451,45.2447 L -63.0396,45.1093 L -62.5226,45.0274 L -62,45
 L -61.4774,45.0274 L -60.9604,45.1093 L -60.4549,45.2447 L -59.9663,45.4323 L -59.5,45.6699 L -59.0611,45.9549
 L -58.6543,46.2843 L -58.2843,46.6543 L -57.9549,47.0611 L -57.6699,47.5 L -57.4323,47.9663 L -57.2447,48.4549
 L -57.1093,48.9604 L -57.0274,49.4774 L -57,50 L -57.0274,50.5226 L -57.1093,51.0396 L -57.2447,51.5451
 L -57.4323,52.0337 L -57.6699,52.5 L -57.9549,52.9389 L -58.2843,53.3456 L -58.6543,53.7157 L -59.0611,54.0451
 L -59.5,54.3301 L -59.9663,54.5677 L -60.4549,54.7553 L -60.9604,54.8907 L -61.4774,54.9726 L -62,55
 z
M 97.4774,54.9726 L 96.9604,54.8907 L 96.4549,54.7553 L 95.9663,54.5677 L 95.5,54.3301 L 95.0611,54.0451
 L 94.6543,53.7157 L 94.2843,53.3456 L 93.9549,52.9389 L 93.6699,52.5 L 93.4323,52.0337 L 93.2447,51.5451
 L 93.1093,51.0396 L 93.0274,50.5226 L 93,50 L 93.0274,49.4774 L 93.1093,48.9604 L 93.2447,48.4549
 L 93.4323,47.9663 L 93.6699,47.5 L 93.9549,47.0611 L 94.2843,46.6543 L 94.6543,46.2843 L 95.0611,45.9549
 L 95.5,45.6699 L 95.9663,45.4323 L 96.4549,45.2447 L 96.9604,45.1093 L 97.4774,45.0274 L 98,45
 L 98.5226,45.0274 L 99.0396,45.1093 L 99.5451,45.2447 L 100.034,45.4323 L 100.5,45.6699 L 100.939,45.9549
 L 101.346,46.2843 L 101.716,46.6543 L 102.045,47.0611 L 102.33,47.5 L 102.568,47.9663 L 102.755,48.4549
 L 102.891,48.9604 L 102.973,49.4774 L 103,50 L 102.973,50.5226 L 102.891,51.0396 L 102.755,51.5451
 L 102.568,52.0337 L 102.33,52.5 L 102.045,52.9389 L 101.716,53.3456 L 101.346,53.7157 L 100.939,54.0451
 L 100.5,54.3301 L 100.034,54.5677 L 99.5451,54.7553 L 99.0396,54.8907 L 98.5226,54.9726 L 98,55
 z
M 61.4774,54.9726 L 60.9604,54.8907 L 60.4549,54.7553 L 59.9663,54.5677 L 59.5,54.3301 L 59.0611,54.0451
 L 58.6543,53.7157 L 58.2843,53.3456 L 57.9549,52.9389 L 57.6699,52.5 L 57.4323,52.0337 L 57.2447,51.5451
 L 57.1093,51.0396 L 57.0274,50.5226 L 57,50 L 57.0274,49.4774 L 57.1093,48.9604 L 57.2447,48.4549
 L 57.4323,47.9663 L 57.6699,47.5 L 57.9549,47.0611 L 58.2843,46.6543 L 58.6543,46.2843 L 59.0611,45.9549
 L 59.5,45.6699 L 59.9663,45.4323 L 60.4549,45.2447 L 60.9604,45.1093 L 61.4774,45.0274 L 62,45
 L 62.5226,45.0274 L 63.0396,45.1093 L 63.5451,45.2447 L 64.0337,45.4323 L 64.5,45.6699 L 64.9389,45.9549
 L 65.3456,46.2843 L 65.7157,46.6543 L 66.0451,47.0611 L 66.3301,47.5 L 66.5677,47.9663 L 66.7553,48.4549
 L 66.8907,48.9604 L 66.9726,49.4774 L 67,50 L 66.9726,50.5226 L 66.8907,51.0396 L 66.7553,51.5451
 L 66.5677,52.0337 L 66.3301,52.5 L 66.0451,52.9389 L 65.7157,53.3456 L 65.3456,53.7157 L 64.9389,54.0451
 L 64.5,54.3301 L 64.0337,54.5677 L 63.5451,54.7553 L 63.0396,54.8907 L 62.5226,54.9726 L 62,55
 z
M -98.5226,54.9726 L -99.0396,54.8907 L -99.5451,54.7553 L -100.034,54.5677 L -100.5,54.3301 L -100.939,54.0451
 L -101.346,53.7157 L -101.716,53.3456 L -102.045,52.9389 L -102.33,52.5 L -102.568,52.0337 L -102.755,51.5451
 L -102.891,51.0396 L -102.973,50.5226 L -103,50 L -102.973,49.4774 L -102.891,48.9604 L -102.755,48.4549
 L -102.568,47.9663 L -102.33,47.5 L -102.045,47.0611 L -101.716,46.6543 L -101.346,46.2843 L -100.939,45.9549
 L -100.5,45.6699 L -100.034,45.4323 L -99.5451,45.2447 L -99.0396,45.1093 L -98.5226,45.0274 L -98,45
 L -97.4774,45.0274 L -96.9604,45.1093 L -96.4549,45.2447 L -95.9663,45.4323 L -95.5,45.6699 L -95.0611,45.9549
 L -94.6543,46.2843 L -94.2843,46.6543 L -93.9549,47.0611 L -93.6699,47.5 L -93.4323,47.9663 L -93.2447,48.4549
 L -93.1093,48.9604 L -93.0274,49.4774 L -93,50 L -93.0274,50.5226 L -93.1093,51.0396 L -93.2447,51.5451
 L -93.4323,52.0337 L -93.6699,52.5 L -93.9549,52.9389 L -94.2843,53.3456 L -94.6543,53.7157 L -95.0611,54.0451
 L -95.5,54.3301 L -95.9663,54.5677 L -96.4549,54.7553 L -96.9604,54.8907 L -97.4774,54.9726 L -98,55
 z
M -146,108 L -146,107.978 L -146.121,107.993 L -146.568,107.823 L -146.885,107.465 L -147,107
 L -147,93 L -146.885,92.5353 L -146.568,92.177 L -146.121,92.0073 L -146,92.0219 L -146,92
 L -144,92 L -144,92.0219 L -143.879,92.0073 L -143.432,92.177 L -143.115,92.5353 L -143,93
 L -143,107 L -143.115,107.465 L -143.432,107.823 L -143.879,107.993 L -144,107.978 L -144,108
 z
M -126,108 L -126,107.978 L -126.121,107.993 L -126.568,107.823 L -126.885,107.465 L -127,107
 L -127,93 L -126.885,92.5353 L -126.568,92.177 L -126.121,92.0073 L -126,92.0219 L -126,92
 L -124,92 L -124,92.0219 L -123.879,92.0073 L -123.432,92.177 L -123.115,92.5353 L -123,93
 L -123,107 L -123.115,107.465 L -123.432,107.823 L -123.879,107.993 L -124,107.978 L -124,108
 z
M 124,108 L 124,107.978 L 123.879,107.993 L 123.432,107.823 L 123.115,107.465 L 123,107
 L 123,93 L 123.115,92.5353 L 123.432,92.177 L 123.879,92.0073 L 124,92.0219 L 124,92
 L 126,92 L 126,92.0219 L 126.121,92.0073 L 126.568,92.177 L 126.885,92.5353 L 127,93
 L 127,107 L 126.885,107.465 L 126.568,107.823 L 126.121,107.993 L 126,107.978 L 126,108
 z
M 144,108 L 144,107.978 L 143.879,107.993 L 143.432,107.823 L 143.115,107.465 L 143,107
 L 143,93 L 143.115,92.5353 L 143.432,92.177 L 143.879,92.0073 L 144,92.0219 L 144,92
 L 146,92 L 146,92.0219 L 146.121,92.0073 L 146.568,92.177 L 146.885,92.5353 L 147,93
 L 147,107 L 146.885,107.465 L 146.568,107.823 L 146.121,107.993 L 146,107.978 L 146,108
 z
M 134.521,101.474 L 134.089,101.254 L 133.746,100.911 L 133.526,100.479 L 133.45,100 L 133.526,99.521
 L 133.746,99.0889 L 134.089,98.746 L 134.521,98.5259 L 135,98.45 L 135.479,98.5259 L 135.911,98.746
 L 136.254,99.0889 L 136.474,99.521 L 136.55,100 L 136.474,100.479 L 136.254,100.911 L 135.911,101.254
 L 135.479,101.474 L 135,101.55 z
M -135.479,101.474 L -135.911,101.254 L -136.254,100.911 L -136.474,100.479 L -136.55,100 L -136.474,99.521
 L -136.254,99.0889 L -135.911,98.746 L -135.479,98.5259 L -135,98.45 L -134.521,98.5259 L -134.089,98.746
 L -133.746,99.0889 L -133.526,99.521 L -133.45,100 L -133.526,100.479 L -133.746,100.911 L -134.089,101.254
 L -134.521,101.474 L -135,101.55 z
" stroke="black" fill="lightgray" stroke-width="0.5"/>
</svg>
