  0
SECTION
  2
BLOCKS
  0
ENDSEC
  0
SECTION
  2
ENTITIES
  0
LINE
  8
0
 10
273.123
 20
-11.9726
 11
273.64
 21
-11.8907
  0
LINE
  8
0
 10
273.64
 20
-11.8907
 11
274.145
 21
-11.7553
  0
LINE
  8
0
 10
274.145
 20
-11.7553
 11
274.634
 21
-11.5677
  0
LINE
  8
0
 10
274.634
 20
-11.5677
 11
275.1
 21
-11.3301
  0
LINE
  8
0
 10
275.1
 20
-11.3301
 11
275.539
 21
-11.0451
  0
LINE
  8
0
 10
275.539
 20
-11.0451
 11
275.946
 21
-10.7157
  0
LINE
  8
0
 10
275.946
 20
-10.7157
 11
276.316
 21
-10.3456
  0
LINE
  8
0
 10
276.316
 20
-10.3456
 11
276.645
 21
-9.93892
  0
LINE
  8
0
 10
276.645
 20
-9.93892
 11
276.93
 21
-9.5
  0
LINE
  8
0
 10
276.93
 20
-9.5
 11
277.168
 21
-9.03368
  0
LINE
  8
0
 10
277.168
 20
-9.03368
 11
277.355
 21
-8.54507
  0
LINE
  8
0
 10
277.355
 20
-8.54507
 11
277.491
 21
-8.03955
  0
LINE
  8
0
 10
277.491
 20
-8.03955
 11
277.573
 21
-7.52263
  0
LINE
  8
0
 10
277.573
 20
-7.52263
 11
277.6
 21
-7
  0
LINE
  8
0
 10
277.6
 20
-7
 11
277.6
 21
7
  0
LINE
  8
0
 10
277.6
 20
7
 11
277.573
 21
7.52263
  0
LINE
  8
0
 10
277.573
 20
7.52263
 11
277.491
 21
8.03955
  0
LINE
  8
0
 10
277.491
 20
8.03955
 11
277.355
 21
8.54507
  0
LINE
  8
0
 10
277.355
 20
8.54507
 11
277.168
 21
9.03368
  0
LINE
  8
0
 10
277.168
 20
9.03368
 11
276.93
 21
9.5
  0
LINE
  8
0
 10
276.93
 20
9.5
 11
276.645
 21
9.93892
  0
LINE
  8
0
 10
276.645
 20
9.93892
 11
276.316
 21
10.3456
  0
LINE
  8
0
 10
276.316
 20
10.3456
 11
275.946
 21
10.7157
  0
LINE
  8
0
 10
275.946
 20
10.7157
 11
275.539
 21
11.0451
  0
LINE
  8
0
 10
275.539
 20
11.0451
 11
275.1
 21
11.3301
  0
LINE
  8
0
 10
275.1
 20
11.3301
 11
274.634
 21
11.5677
  0
LINE
  8
0
 10
274.634
 20
11.5677
 11
274.145
 21
11.7553
  0
LINE
  8
0
 10
274.145
 20
11.7553
 11
273.64
 21
11.8907
  0
LINE
  8
0
 10
273.64
 20
11.8907
 11
273.123
 21
11.9726
  0
LINE
  8
0
 10
273.123
 20
11.9726
 11
272.6
 21
12
  0
LINE
  8
0
 10
272.6
 20
12
 11
202.6
 21
12
  0
LINE
  8
0
 10
202.6
 20
12
 11
202.077
 21
11.9726
  0
LINE
  8
0
 10
202.077
 20
11.9726
 11
201.56
 21
11.8907
  0
LINE
  8
0
 10
201.56
 20
11.8907
 11
201.055
 21
11.7553
  0
LINE
  8
0
 10
201.055
 20
11.7553
 11
200.566
 21
11.5677
  0
LINE
  8
0
 10
200.566
 20
11.5677
 11
200.1
 21
11.3301
  0
LINE
  8
0
 10
200.1
 20
11.3301
 11
199.661
 21
11.0451
  0
LINE
  8
0
 10
199.661
 20
11.0451
 11
199.254
 21
10.7157
  0
LINE
  8
0
 10
199.254
 20
10.7157
 11
198.884
 21
10.3456
  0
LINE
  8
0
 10
198.884
 20
10.3456
 11
198.555
 21
9.93892
  0
LINE
  8
0
 10
198.555
 20
9.93892
 11
198.27
 21
9.5
  0
LINE
  8
0
 10
198.27
 20
9.5
 11
198.032
 21
9.03368
  0
LINE
  8
0
 10
198.032
 20
9.03368
 11
197.845
 21
8.54507
  0
LINE
  8
0
 10
197.845
 20
8.54507
 11
197.709
 21
8.03955
  0
LINE
  8
0
 10
197.709
 20
8.03955
 11
197.675
 21
7.82208
  0
LINE
  8
0
 10
197.675
 20
7.82208
 11
197.663
 21
7.82518
  0
LINE
  8
0
 10
197.663
 20
7.82518
 11
196.836
 21
7.95616
  0
LINE
  8
0
 10
196.836
 20
7.95616
 11
196
 21
8
  0
LINE
  8
0
 10
196
 20
8
 11
-392
 21
8
  0
LINE
  8
0
 10
-392
 20
8
 11
-392.836
 21
7.95616
  0
LINE
  8
0
 10
-392.836
 20
7.95616
 11
-393.663
 21
7.82518
  0
LINE
  8
0
 10
-393.663
 20
7.82518
 11
-394.472
 21
7.60844
  0
LINE
  8
0
 10
-394.472
 20
7.60844
 11
-395.254
 21
7.30835
  0
LINE
  8
0
 10
-395.254
 20
7.30835
 11
-396
 21
6.92819
  0
LINE
  8
0
 10
-396
 20
6.92819
 11
-396.702
 21
6.47212
  0
LINE
  8
0
 10
-396.702
 20
6.47212
 11
-397.353
 21
5.94514
  0
LINE
  8
0
 10
-397.353
 20
5.94514
 11
-397.945
 21
5.35304
  0
LINE
  8
0
 10
-397.945
 20
5.35304
 11
-398.472
 21
4.70227
  0
LINE
  8
0
 10
-398.472
 20
4.70227
 11
-398.928
 21
4
  0
LINE
  8
0
 10
-398.928
 20
4
 11
-399.308
 21
3.25389
  0
LINE
  8
0
 10
-399.308
 20
3.25389
 11
-399.608
 21
2.47212
  0
LINE
  8
0
 10
-399.608
 20
2.47212
 11
-399.825
 21
1.66328
  0
LINE
  8
0
 10
-399.825
 20
1.66328
 11
-399.956
 21
0.836227
  0
LINE
  8
0
 10
-399.956
 20
0.836227
 11
-400
 21
0
  0
LINE
  8
0
 10
-400
 20
0
 11
-399.956
 21
-0.836227
  0
LINE
  8
0
 10
-399.956
 20
-0.836227
 11
-399.825
 21
-1.66328
  0
LINE
  8
0
 10
-399.825
 20
-1.66328
 11
-399.608
 21
-2.47212
  0
LINE
  8
0
 10
-399.608
 20
-2.47212
 11
-399.308
 21
-3.25389
  0
LINE
  8
0
 10
-399.308
 20
-3.25389
 11
-398.928
 21
-4
  0
LINE
  8
0
 10
-398.928
 20
-4
 11
-398.472
 21
-4.70227
  0
LINE
  8
0
 10
-398.472
 20
-4.70227
 11
-397.945
 21
-5.35304
  0
LINE
  8
0
 10
-397.945
 20
-5.35304
 11
-397.353
 21
-5.94514
  0
LINE
  8
0
 10
-397.353
 20
-5.94514
 11
-396.702
 21
-6.47212
  0
LINE
  8
0
 10
-396.702
 20
-6.47212
 11
-396
 21
-6.92819
  0
LINE
  8
0
 10
-396
 20
-6.92819
 11
-395.254
 21
-7.30835
  0
LINE
  8
0
 10
-395.254
 20
-7.30835
 11
-394.472
 21
-7.60844
  0
LINE
  8
0
 10
-394.472
 20
-7.60844
 11
-393.663
 21
-7.82518
  0
LINE
  8
0
 10
-393.663
 20
-7.82518
 11
-392.836
 21
-7.95616
  0
LINE
  8
0
 10
-392.836
 20
-7.95616
 11
-392
 21
-8
  0
LINE
  8
0
 10
-392
 20
-8
 11
196
 21
-8
  0
LINE
  8
0
 10
196
 20
-8
 11
196.836
 21
-7.95616
  0
LINE
  8
0
 10
196.836
 20
-7.95616
 11
197.663
 21
-7.82518
  0
LINE
  8
0
 10
197.663
 20
-7.82518
 11
197.675
 21
-7.82208
  0
LINE
  8
0
 10
197.675
 20
-7.82208
 11
197.709
 21
-8.03955
  0
LINE
  8
0
 10
197.709
 20
-8.03955
 11
197.845
 21
-8.54507
  0
LINE
  8
0
 10
197.845
 20
-8.54507
 11
198.032
 21
-9.03368
  0
LINE
  8
0
 10
198.032
 20
-9.03368
 11
198.27
 21
-9.5
  0
LINE
  8
0
 10
198.27
 20
-9.5
 11
198.555
 21
-9.93892
  0
LINE
  8
0
 10
198.555
 20
-9.93892
 11
198.884
 21
-10.3456
  0
LINE
  8
0
 10
198.884
 20
-10.3456
 11
199.254
 21
-10.7157
  0
LINE
  8
0
 10
199.254
 20
-10.7157
 11
199.661
 21
-11.0451
  0
LINE
  8
0
 10
199.661
 20
-11.0451
 11
200.1
 21
-11.3301
  0
LINE
  8
0
 10
200.1
 20
-11.3301
 11
200.566
 21
-11.5677
  0
LINE
  8
0
 10
200.566
 20
-11.5677
 11
201.055
 21
-11.7553
  0
LINE
  8
0
 10
201.055
 20
-11.7553
 11
201.56
 21
-11.8907
  0
LINE
  8
0
 10
201.56
 20
-11.8907
 11
202.077
 21
-11.9726
  0
LINE
  8
0
 10
202.077
 20
-11.9726
 11
202.6
 21
-12
  0
LINE
  8
0
 10
202.6
 20
-12
 11
272.6
 21
-12
  0
LINE
  8
0
 10
272.6
 20
-12
 11
273.123
 21
-11.9726
  0
LINE
  8
0
 10
237
 20
-8
 11
237
 21
-7.97807
  0
LINE
  8
0
 10
237
 20
-7.97807
 11
236.879
 21
-7.99271
  0
LINE
  8
0
 10
236.879
 20
-7.99271
 11
236.432
 21
-7.82298
  0
LINE
  8
0
 10
236.432
 20
-7.82298
 11
236.115
 21
-7.46472
  0
LINE
  8
0
 10
236.115
 20
-7.46472
 11
236
 21
-7
  0
LINE
  8
0
 10
236
 20
-7
 11
236
 21
7
  0
LINE
  8
0
 10
236
 20
7
 11
236.115
 21
7.46472
  0
LINE
  8
0
 10
236.115
 20
7.46472
 11
236.432
 21
7.82298
  0
LINE
  8
0
 10
236.432
 20
7.82298
 11
236.879
 21
7.99271
  0
LINE
  8
0
 10
236.879
 20
7.99271
 11
237
 21
7.97807
  0
LINE
  8
0
 10
237
 20
7.97807
 11
237
 21
8
  0
LINE
  8
0
 10
237
 20
8
 11
238.2
 21
8
  0
LINE
  8
0
 10
238.2
 20
8
 11
238.2
 21
7.97807
  0
LINE
  8
0
 10
238.2
 20
7.97807
 11
238.321
 21
7.99271
  0
LINE
  8
0
 10
238.321
 20
7.99271
 11
238.768
 21
7.82298
  0
LINE
  8
0
 10
238.768
 20
7.82298
 11
239.085
 21
7.46472
  0
LINE
  8
0
 10
239.085
 20
7.46472
 11
239.2
 21
7
  0
LINE
  8
0
 10
239.2
 20
7
 11
239.2
 21
-7
  0
LINE
  8
0
 10
239.2
 20
-7
 11
239.085
 21
-7.46472
  0
LINE
  8
0
 10
239.085
 20
-7.46472
 11
238.768
 21
-7.82298
  0
LINE
  8
0
 10
238.768
 20
-7.82298
 11
238.321
 21
-7.99271
  0
LINE
  8
0
 10
238.321
 20
-7.99271
 11
238.2
 21
-7.97807
  0
LINE
  8
0
 10
238.2
 20
-7.97807
 11
238.2
 21
-8
  0
LINE
  8
0
 10
238.2
 20
-8
 11
237
 21
-8
  0
LINE
  8
0
 10
254.6
 20
-8
 11
254.6
 21
-7.97807
  0
LINE
  8
0
 10
254.6
 20
-7.97807
 11
254.479
 21
-7.99271
  0
LINE
  8
0
 10
254.479
 20
-7.99271
 11
254.032
 21
-7.82298
  0
LINE
  8
0
 10
254.032
 20
-7.82298
 11
253.715
 21
-7.46472
  0
LINE
  8
0
 10
253.715
 20
-7.46472
 11
253.6
 21
-7
  0
LINE
  8
0
 10
253.6
 20
-7
 11
253.6
 21
7
  0
LINE
  8
0
 10
253.6
 20
7
 11
253.715
 21
7.46472
  0
LINE
  8
0
 10
253.715
 20
7.46472
 11
254.032
 21
7.82298
  0
LINE
  8
0
 10
254.032
 20
7.82298
 11
254.479
 21
7.99271
  0
LINE
  8
0
 10
254.479
 20
7.99271
 11
254.6
 21
7.97807
  0
LINE
  8
0
 10
254.6
 20
7.97807
 11
254.6
 21
8
  0
LINE
  8
0
 10
254.6
 20
8
 11
268.6
 21
8
  0
LINE
  8
0
 10
268.6
 20
8
 11
268.6
 21
7.97807
  0
LINE
  8
0
 10
268.6
 20
7.97807
 11
268.721
 21
7.99271
  0
LINE
  8
0
 10
268.721
 20
7.99271
 11
269.168
 21
7.82298
  0
LINE
  8
0
 10
269.168
 20
7.82298
 11
269.485
 21
7.46472
  0
LINE
  8
0
 10
269.485
 20
7.46472
 11
269.6
 21
7
  0
LINE
  8
0
 10
269.6
 20
7
 11
269.6
 21
2.66666
  0
LINE
  8
0
 10
269.6
 20
2.66666
 11
263.6
 21
2.66666
  0
LINE
  8
0
 10
263.6
 20
2.66666
 11
263.6
 21
2.65208
  0
LINE
  8
0
 10
263.6
 20
2.65208
 11
263.359
 21
2.65208
  0
LINE
  8
0
 10
263.359
 20
2.65208
 11
262.891
 21
2.5367
  0
LINE
  8
0
 10
262.891
 20
2.5367
 11
262.464
 21
2.31262
  0
LINE
  8
0
 10
262.464
 20
2.31262
 11
262.103
 21
1.9929
  0
LINE
  8
0
 10
262.103
 20
1.9929
 11
261.829
 21
1.5961
  0
LINE
  8
0
 10
261.829
 20
1.5961
 11
261.658
 21
1.14529
  0
LINE
  8
0
 10
261.658
 20
1.14529
 11
261.6
 21
0.666656
  0
LINE
  8
0
 10
261.6
 20
0.666656
 11
261.6
 21
-0.666656
  0
LINE
  8
0
 10
261.6
 20
-0.666656
 11
261.658
 21
-1.14529
  0
LINE
  8
0
 10
261.658
 20
-1.14529
 11
261.829
 21
-1.5961
  0
LINE
  8
0
 10
261.829
 20
-1.5961
 11
262.103
 21
-1.9929
  0
LINE
  8
0
 10
262.103
 20
-1.9929
 11
262.464
 21
-2.31262
  0
LINE
  8
0
 10
262.464
 20
-2.31262
 11
262.891
 21
-2.5367
  0
LINE
  8
0
 10
262.891
 20
-2.5367
 11
263.359
 21
-2.65208
  0
LINE
  8
0
 10
263.359
 20
-2.65208
 11
263.6
 21
-2.65208
  0
LINE
  8
0
 10
263.6
 20
-2.65208
 11
263.6
 21
-2.66666
  0
LINE
  8
0
 10
263.6
 20
-2.66666
 11
269.6
 21
-2.66666
  0
LINE
  8
0
 10
269.6
 20
-2.66666
 11
269.6
 21
-7
  0
LINE
  8
0
 10
269.6
 20
-7
 11
269.485
 21
-7.46472
  0
LINE
  8
0
 10
269.485
 20
-7.46472
 11
269.168
 21
-7.82298
  0
LINE
  8
0
 10
269.168
 20
-7.82298
 11
268.721
 21
-7.99271
  0
LINE
  8
0
 10
268.721
 20
-7.99271
 11
268.6
 21
-7.97807
  0
LINE
  8
0
 10
268.6
 20
-7.97807
 11
268.6
 21
-8
  0
LINE
  8
0
 10
268.6
 20
-8
 11
254.6
 21
-8
  0
LINE
  8
0
 10
213
 20
-8
 11
213
 21
-7.97807
  0
LINE
  8
0
 10
213
 20
-7.97807
 11
212.879
 21
-7.99271
  0
LINE
  8
0
 10
212.879
 20
-7.99271
 11
212.432
 21
-7.82298
  0
LINE
  8
0
 10
212.432
 20
-7.82298
 11
212.115
 21
-7.46472
  0
LINE
  8
0
 10
212.115
 20
-7.46472
 11
212
 21
-7
  0
LINE
  8
0
 10
212
 20
-7
 11
212
 21
7
  0
LINE
  8
0
 10
212
 20
7
 11
212.115
 21
7.46472
  0
LINE
  8
0
 10
212.115
 20
7.46472
 11
212.432
 21
7.82298
  0
LINE
  8
0
 10
212.432
 20
7.82298
 11
212.879
 21
7.99271
  0
LINE
  8
0
 10
212.879
 20
7.99271
 11
213
 21
7.97807
  0
LINE
  8
0
 10
213
 20
7.97807
 11
213
 21
8
  0
LINE
  8
0
 10
213
 20
8
 11
214.2
 21
8
  0
LINE
  8
0
 10
214.2
 20
8
 11
214.2
 21
7.97807
  0
LINE
  8
0
 10
214.2
 20
7.97807
 11
214.321
 21
7.99271
  0
LINE
  8
0
 10
214.321
 20
7.99271
 11
214.768
 21
7.82298
  0
LINE
  8
0
 10
214.768
 20
7.82298
 11
215.085
 21
7.46472
  0
LINE
  8
0
 10
215.085
 20
7.46472
 11
215.2
 21
7
  0
LINE
  8
0
 10
215.2
 20
7
 11
215.2
 21
-7
  0
LINE
  8
0
 10
215.2
 20
-7
 11
215.085
 21
-7.46472
  0
LINE
  8
0
 10
215.085
 20
-7.46472
 11
214.768
 21
-7.82298
  0
LINE
  8
0
 10
214.768
 20
-7.82298
 11
214.321
 21
-7.99271
  0
LINE
  8
0
 10
214.321
 20
-7.99271
 11
214.2
 21
-7.97807
  0
LINE
  8
0
 10
214.2
 20
-7.97807
 11
214.2
 21
-8
  0
LINE
  8
0
 10
214.2
 20
-8
 11
213
 21
-8
  0
LINE
  8
0
 10
-378.7
 20
-2.66666
 11
-378.7
 21
-2.62872
  0
LINE
  8
0
 10
-378.7
 20
-2.62872
 11
-379.012
 21
-2.55757
  0
LINE
  8
0
 10
-379.012
 20
-2.55757
 11
-379.2
 21
-2.16666
  0
LINE
  8
0
 10
-379.2
 20
-2.16666
 11
-379.2
 21
2.16666
  0
LINE
  8
0
 10
-379.2
 20
2.16666
 11
-379.012
 21
2.55757
  0
LINE
  8
0
 10
-379.012
 20
2.55757
 11
-378.7
 21
2.62872
  0
LINE
  8
0
 10
-378.7
 20
2.62872
 11
-378.7
 21
2.66666
  0
LINE
  8
0
 10
-378.7
 20
2.66666
 11
-373.3
 21
2.66666
  0
LINE
  8
0
 10
-373.3
 20
2.66666
 11
-373.3
 21
2.62872
  0
LINE
  8
0
 10
-373.3
 20
2.62872
 11
-372.988
 21
2.55757
  0
LINE
  8
0
 10
-372.988
 20
2.55757
 11
-372.8
 21
2.16666
  0
LINE
  8
0
 10
-372.8
 20
2.16666
 11
-372.8
 21
-2.16666
  0
LINE
  8
0
 10
-372.8
 20
-2.16666
 11
-372.988
 21
-2.55757
  0
LINE
  8
0
 10
-372.988
 20
-2.55757
 11
-373.3
 21
-2.62872
  0
LINE
  8
0
 10
-373.3
 20
-2.62872
 11
-373.3
 21
-2.66666
  0
LINE
  8
0
 10
-373.3
 20
-2.66666
 11
-378.7
 21
-2.66666
  0
LINE
  8
0
 10
-362.7
 20
-2.66666
 11
-362.7
 21
-2.62872
  0
LINE
  8
0
 10
-362.7
 20
-2.62872
 11
-363.012
 21
-2.55757
  0
LINE
  8
0
 10
-363.012
 20
-2.55757
 11
-363.2
 21
-2.16666
  0
LINE
  8
0
 10
-363.2
 20
-2.16666
 11
-363.2
 21
2.16666
  0
LINE
  8
0
 10
-363.2
 20
2.16666
 11
-363.012
 21
2.55757
  0
LINE
  8
0
 10
-363.012
 20
2.55757
 11
-362.7
 21
2.62872
  0
LINE
  8
0
 10
-362.7
 20
2.62872
 11
-362.7
 21
2.66666
  0
LINE
  8
0
 10
-362.7
 20
2.66666
 11
-357.3
 21
2.66666
  0
LINE
  8
0
 10
-357.3
 20
2.66666
 11
-357.3
 21
2.62872
  0
LINE
  8
0
 10
-357.3
 20
2.62872
 11
-356.988
 21
2.55757
  0
LINE
  8
0
 10
-356.988
 20
2.55757
 11
-356.8
 21
2.16666
  0
LINE
  8
0
 10
-356.8
 20
2.16666
 11
-356.8
 21
-2.16666
  0
LINE
  8
0
 10
-356.8
 20
-2.16666
 11
-356.988
 21
-2.55757
  0
LINE
  8
0
 10
-356.988
 20
-2.55757
 11
-357.3
 21
-2.62872
  0
LINE
  8
0
 10
-357.3
 20
-2.62872
 11
-357.3
 21
-2.66666
  0
LINE
  8
0
 10
-357.3
 20
-2.66666
 11
-362.7
 21
-2.66666
  0
LINE
  8
0
 10
-250.7
 20
-2.66666
 11
-250.7
 21
-2.62872
  0
LINE
  8
0
 10
-250.7
 20
-2.62872
 11
-251.012
 21
-2.55757
  0
LINE
  8
0
 10
-251.012
 20
-2.55757
 11
-251.2
 21
-2.16666
  0
LINE
  8
0
 10
-251.2
 20
-2.16666
 11
-251.2
 21
2.16666
  0
LINE
  8
0
 10
-251.2
 20
2.16666
 11
-251.012
 21
2.55757
  0
LINE
  8
0
 10
-251.012
 20
2.55757
 11
-250.7
 21
2.62872
  0
LINE
  8
0
 10
-250.7
 20
2.62872
 11
-250.7
 21
2.66666
  0
LINE
  8
0
 10
-250.7
 20
2.66666
 11
-245.3
 21
2.66666
  0
LINE
  8
0
 10
-245.3
 20
2.66666
 11
-245.3
 21
2.62872
  0
LINE
  8
0
 10
-245.3
 20
2.62872
 11
-244.988
 21
2.55757
  0
LINE
  8
0
 10
-244.988
 20
2.55757
 11
-244.8
 21
2.16666
  0
LINE
  8
0
 10
-244.8
 20
2.16666
 11
-244.8
 21
-2.16666
  0
LINE
  8
0
 10
-244.8
 20
-2.16666
 11
-244.988
 21
-2.55757
  0
LINE
  8
0
 10
-244.988
 20
-2.55757
 11
-245.3
 21
-2.62872
  0
LINE
  8
0
 10
-245.3
 20
-2.62872
 11
-245.3
 21
-2.66666
  0
LINE
  8
0
 10
-245.3
 20
-2.66666
 11
-250.7
 21
-2.66666
  0
LINE
  8
0
 10
-218.7
 20
-2.66666
 11
-218.7
 21
-2.62872
  0
LINE
  8
0
 10
-218.7
 20
-2.62872
 11
-219.012
 21
-2.55757
  0
LINE
  8
0
 10
-219.012
 20
-2.55757
 11
-219.2
 21
-2.16666
  0
LINE
  8
0
 10
-219.2
 20
-2.16666
 11
-219.2
 21
2.16666
  0
LINE
  8
0
 10
-219.2
 20
2.16666
 11
-219.012
 21
2.55757
  0
LINE
  8
0
 10
-219.012
 20
2.55757
 11
-218.7
 21
2.62872
  0
LINE
  8
0
 10
-218.7
 20
2.62872
 11
-218.7
 21
2.66666
  0
LINE
  8
0
 10
-218.7
 20
2.66666
 11
-213.3
 21
2.66666
  0
LINE
  8
0
 10
-213.3
 20
2.66666
 11
-213.3
 21
2.62872
  0
LINE
  8
0
 10
-213.3
 20
2.62872
 11
-212.988
 21
2.55757
  0
LINE
  8
0
 10
-212.988
 20
2.55757
 11
-212.8
 21
2.16666
  0
LINE
  8
0
 10
-212.8
 20
2.16666
 11
-212.8
 21
-2.16666
  0
LINE
  8
0
 10
-212.8
 20
-2.16666
 11
-212.988
 21
-2.55757
  0
LINE
  8
0
 10
-212.988
 20
-2.55757
 11
-213.3
 21
-2.62872
  0
LINE
  8
0
 10
-213.3
 20
-2.62872
 11
-213.3
 21
-2.66666
  0
LINE
  8
0
 10
-213.3
 20
-2.66666
 11
-218.7
 21
-2.66666
  0
LINE
  8
0
 10
-202.7
 20
-2.66666
 11
-202.7
 21
-2.62872
  0
LINE
  8
0
 10
-202.7
 20
-2.62872
 11
-203.012
 21
-2.55757
  0
LINE
  8
0
 10
-203.012
 20
-2.55757
 11
-203.2
 21
-2.16666
  0
LINE
  8
0
 10
-203.2
 20
-2.16666
 11
-203.2
 21
2.16666
  0
LINE
  8
0
 10
-203.2
 20
2.16666
 11
-203.012
 21
2.55757
  0
LINE
  8
0
 10
-203.012
 20
2.55757
 11
-202.7
 21
2.62872
  0
LINE
  8
0
 10
-202.7
 20
2.62872
 11
-202.7
 21
2.66666
  0
LINE
  8
0
 10
-202.7
 20
2.66666
 11
-197.3
 21
2.66666
  0
LINE
  8
0
 10
-197.3
 20
2.66666
 11
-197.3
 21
2.62872
  0
LINE
  8
0
 10
-197.3
 20
2.62872
 11
-196.988
 21
2.55757
  0
LINE
  8
0
 10
-196.988
 20
2.55757
 11
-196.8
 21
2.16666
  0
LINE
  8
0
 10
-196.8
 20
2.16666
 11
-196.8
 21
-2.16666
  0
LINE
  8
0
 10
-196.8
 20
-2.16666
 11
-196.988
 21
-2.55757
  0
LINE
  8
0
 10
-196.988
 20
-2.55757
 11
-197.3
 21
-2.62872
  0
LINE
  8
0
 10
-197.3
 20
-2.62872
 11
-197.3
 21
-2.66666
  0
LINE
  8
0
 10
-197.3
 20
-2.66666
 11
-202.7
 21
-2.66666
  0
LINE
  8
0
 10
-346.7
 20
-2.66666
 11
-346.7
 21
-2.62872
  0
LINE
  8
0
 10
-346.7
 20
-2.62872
 11
-347.012
 21
-2.55757
  0
LINE
  8
0
 10
-347.012
 20
-2.55757
 11
-347.2
 21
-2.16666
  0
LINE
  8
0
 10
-347.2
 20
-2.16666
 11
-347.2
 21
2.16666
  0
LINE
  8
0
 10
-347.2
 20
2.16666
 11
-347.012
 21
2.55757
  0
LINE
  8
0
 10
-347.012
 20
2.55757
 11
-346.7
 21
2.62872
  0
LINE
  8
0
 10
-346.7
 20
2.62872
 11
-346.7
 21
2.66666
  0
LINE
  8
0
 10
-346.7
 20
2.66666
 11
-341.3
 21
2.66666
  0
LINE
  8
0
 10
-341.3
 20
2.66666
 11
-341.3
 21
2.62872
  0
LINE
  8
0
 10
-341.3
 20
2.62872
 11
-340.988
 21
2.55757
  0
LINE
  8
0
 10
-340.988
 20
2.55757
 11
-340.8
 21
2.16666
  0
LINE
  8
0
 10
-340.8
 20
2.16666
 11
-340.8
 21
-2.16666
  0
LINE
  8
0
 10
-340.8
 20
-2.16666
 11
-340.988
 21
-2.55757
  0
LINE
  8
0
 10
-340.988
 20
-2.55757
 11
-341.3
 21
-2.62872
  0
LINE
  8
0
 10
-341.3
 20
-2.62872
 11
-341.3
 21
-2.66666
  0
LINE
  8
0
 10
-341.3
 20
-2.66666
 11
-346.7
 21
-2.66666
  0
LINE
  8
0
 10
-314.7
 20
-2.66666
 11
-314.7
 21
-2.62872
  0
LINE
  8
0
 10
-314.7
 20
-2.62872
 11
-315.012
 21
-2.55757
  0
LINE
  8
0
 10
-315.012
 20
-2.55757
 11
-315.2
 21
-2.16666
  0
LINE
  8
0
 10
-315.2
 20
-2.16666
 11
-315.2
 21
2.16666
  0
LINE
  8
0
 10
-315.2
 20
2.16666
 11
-315.012
 21
2.55757
  0
LINE
  8
0
 10
-315.012
 20
2.55757
 11
-314.7
 21
2.62872
  0
LINE
  8
0
 10
-314.7
 20
2.62872
 11
-314.7
 21
2.66666
  0
LINE
  8
0
 10
-314.7
 20
2.66666
 11
-309.3
 21
2.66666
  0
LINE
  8
0
 10
-309.3
 20
2.66666
 11
-309.3
 21
2.62872
  0
LINE
  8
0
 10
-309.3
 20
2.62872
 11
-308.988
 21
2.55757
  0
LINE
  8
0
 10
-308.988
 20
2.55757
 11
-308.8
 21
2.16666
  0
LINE
  8
0
 10
-308.8
 20
2.16666
 11
-308.8
 21
-2.16666
  0
LINE
  8
0
 10
-308.8
 20
-2.16666
 11
-308.988
 21
-2.55757
  0
LINE
  8
0
 10
-308.988
 20
-2.55757
 11
-309.3
 21
-2.62872
  0
LINE
  8
0
 10
-309.3
 20
-2.62872
 11
-309.3
 21
-2.66666
  0
LINE
  8
0
 10
-309.3
 20
-2.66666
 11
-314.7
 21
-2.66666
  0
LINE
  8
0
 10
-282.7
 20
-2.66666
 11
-282.7
 21
-2.62872
  0
LINE
  8
0
 10
-282.7
 20
-2.62872
 11
-283.012
 21
-2.55757
  0
LINE
  8
0
 10
-283.012
 20
-2.55757
 11
-283.2
 21
-2.16666
  0
LINE
  8
0
 10
-283.2
 20
-2.16666
 11
-283.2
 21
2.16666
  0
LINE
  8
0
 10
-283.2
 20
2.16666
 11
-283.012
 21
2.55757
  0
LINE
  8
0
 10
-283.012
 20
2.55757
 11
-282.7
 21
2.62872
  0
LINE
  8
0
 10
-282.7
 20
2.62872
 11
-282.7
 21
2.66666
  0
LINE
  8
0
 10
-282.7
 20
2.66666
 11
-277.3
 21
2.66666
  0
LINE
  8
0
 10
-277.3
 20
2.66666
 11
-277.3
 21
2.62872
  0
LINE
  8
0
 10
-277.3
 20
2.62872
 11
-276.988
 21
2.55757
  0
LINE
  8
0
 10
-276.988
 20
2.55757
 11
-276.8
 21
2.16666
  0
LINE
  8
0
 10
-276.8
 20
2.16666
 11
-276.8
 21
-2.16666
  0
LINE
  8
0
 10
-276.8
 20
-2.16666
 11
-276.988
 21
-2.55757
  0
LINE
  8
0
 10
-276.988
 20
-2.55757
 11
-277.3
 21
-2.62872
  0
LINE
  8
0
 10
-277.3
 20
-2.62872
 11
-277.3
 21
-2.66666
  0
LINE
  8
0
 10
-277.3
 20
-2.66666
 11
-282.7
 21
-2.66666
  0
LINE
  8
0
 10
-234.7
 20
-2.66666
 11
-234.7
 21
-2.62872
  0
LINE
  8
0
 10
-234.7
 20
-2.62872
 11
-235.012
 21
-2.55757
  0
LINE
  8
0
 10
-235.012
 20
-2.55757
 11
-235.2
 21
-2.16666
  0
LINE
  8
0
 10
-235.2
 20
-2.16666
 11
-235.2
 21
2.16666
  0
LINE
  8
0
 10
-235.2
 20
2.16666
 11
-235.012
 21
2.55757
  0
LINE
  8
0
 10
-235.012
 20
2.55757
 11
-234.7
 21
2.62872
  0
LINE
  8
0
 10
-234.7
 20
2.62872
 11
-234.7
 21
2.66666
  0
LINE
  8
0
 10
-234.7
 20
2.66666
 11
-229.3
 21
2.66666
  0
LINE
  8
0
 10
-229.3
 20
2.66666
 11
-229.3
 21
2.62872
  0
LINE
  8
0
 10
-229.3
 20
2.62872
 11
-228.988
 21
2.55757
  0
LINE
  8
0
 10
-228.988
 20
2.55757
 11
-228.8
 21
2.16666
  0
LINE
  8
0
 10
-228.8
 20
2.16666
 11
-228.8
 21
-2.16666
  0
LINE
  8
0
 10
-228.8
 20
-2.16666
 11
-228.988
 21
-2.55757
  0
LINE
  8
0
 10
-228.988
 20
-2.55757
 11
-229.3
 21
-2.62872
  0
LINE
  8
0
 10
-229.3
 20
-2.62872
 11
-229.3
 21
-2.66666
  0
LINE
  8
0
 10
-229.3
 20
-2.66666
 11
-234.7
 21
-2.66666
  0
LINE
  8
0
 10
-186.7
 20
-2.66666
 11
-186.7
 21
-2.62872
  0
LINE
  8
0
 10
-186.7
 20
-2.62872
 11
-187.012
 21
-2.55757
  0
LINE
  8
0
 10
-187.012
 20
-2.55757
 11
-187.2
 21
-2.16666
  0
LINE
  8
0
 10
-187.2
 20
-2.16666
 11
-187.2
 21
2.16666
  0
LINE
  8
0
 10
-187.2
 20
2.16666
 11
-187.012
 21
2.55757
  0
LINE
  8
0
 10
-187.012
 20
2.55757
 11
-186.7
 21
2.62872
  0
LINE
  8
0
 10
-186.7
 20
2.62872
 11
-186.7
 21
2.66666
  0
LINE
  8
0
 10
-186.7
 20
2.66666
 11
-181.3
 21
2.66666
  0
LINE
  8
0
 10
-181.3
 20
2.66666
 11
-181.3
 21
2.62872
  0
LINE
  8
0
 10
-181.3
 20
2.62872
 11
-180.988
 21
2.55757
  0
LINE
  8
0
 10
-180.988
 20
2.55757
 11
-180.8
 21
2.16666
  0
LINE
  8
0
 10
-180.8
 20
2.16666
 11
-180.8
 21
-2.16666
  0
LINE
  8
0
 10
-180.8
 20
-2.16666
 11
-180.988
 21
-2.55757
  0
LINE
  8
0
 10
-180.988
 20
-2.55757
 11
-181.3
 21
-2.62872
  0
LINE
  8
0
 10
-181.3
 20
-2.62872
 11
-181.3
 21
-2.66666
  0
LINE
  8
0
 10
-181.3
 20
-2.66666
 11
-186.7
 21
-2.66666
  0
LINE
  8
0
 10
-298.7
 20
-2.66666
 11
-298.7
 21
-2.62872
  0
LINE
  8
0
 10
-298.7
 20
-2.62872
 11
-299.012
 21
-2.55757
  0
LINE
  8
0
 10
-299.012
 20
-2.55757
 11
-299.2
 21
-2.16666
  0
LINE
  8
0
 10
-299.2
 20
-2.16666
 11
-299.2
 21
2.16666
  0
LINE
  8
0
 10
-299.2
 20
2.16666
 11
-299.012
 21
2.55757
  0
LINE
  8
0
 10
-299.012
 20
2.55757
 11
-298.7
 21
2.62872
  0
LINE
  8
0
 10
-298.7
 20
2.62872
 11
-298.7
 21
2.66666
  0
LINE
  8
0
 10
-298.7
 20
2.66666
 11
-293.3
 21
2.66666
  0
LINE
  8
0
 10
-293.3
 20
2.66666
 11
-293.3
 21
2.62872
  0
LINE
  8
0
 10
-293.3
 20
2.62872
 11
-292.988
 21
2.55757
  0
LINE
  8
0
 10
-292.988
 20
2.55757
 11
-292.8
 21
2.16666
  0
LINE
  8
0
 10
-292.8
 20
2.16666
 11
-292.8
 21
-2.16666
  0
LINE
  8
0
 10
-292.8
 20
-2.16666
 11
-292.988
 21
-2.55757
  0
LINE
  8
0
 10
-292.988
 20
-2.55757
 11
-293.3
 21
-2.62872
  0
LINE
  8
0
 10
-293.3
 20
-2.62872
 11
-293.3
 21
-2.66666
  0
LINE
  8
0
 10
-293.3
 20
-2.66666
 11
-298.7
 21
-2.66666
  0
LINE
  8
0
 10
-330.7
 20
-2.66666
 11
-330.7
 21
-2.62872
  0
LINE
  8
0
 10
-330.7
 20
-2.62872
 11
-331.012
 21
-2.55757
  0
LINE
  8
0
 10
-331.012
 20
-2.55757
 11
-331.2
 21
-2.16666
  0
LINE
  8
0
 10
-331.2
 20
-2.16666
 11
-331.2
 21
2.16666
  0
LINE
  8
0
 10
-331.2
 20
2.16666
 11
-331.012
 21
2.55757
  0
LINE
  8
0
 10
-331.012
 20
2.55757
 11
-330.7
 21
2.62872
  0
LINE
  8
0
 10
-330.7
 20
2.62872
 11
-330.7
 21
2.66666
  0
LINE
  8
0
 10
-330.7
 20
2.66666
 11
-325.3
 21
2.66666
  0
LINE
  8
0
 10
-325.3
 20
2.66666
 11
-325.3
 21
2.62872
  0
LINE
  8
0
 10
-325.3
 20
2.62872
 11
-324.988
 21
2.55757
  0
LINE
  8
0
 10
-324.988
 20
2.55757
 11
-324.8
 21
2.16666
  0
LINE
  8
0
 10
-324.8
 20
2.16666
 11
-324.8
 21
-2.16666
  0
LINE
  8
0
 10
-324.8
 20
-2.16666
 11
-324.988
 21
-2.55757
  0
LINE
  8
0
 10
-324.988
 20
-2.55757
 11
-325.3
 21
-2.62872
  0
LINE
  8
0
 10
-325.3
 20
-2.62872
 11
-325.3
 21
-2.66666
  0
LINE
  8
0
 10
-325.3
 20
-2.66666
 11
-330.7
 21
-2.66666
  0
LINE
  8
0
 10
-266.7
 20
-2.66666
 11
-266.7
 21
-2.62872
  0
LINE
  8
0
 10
-266.7
 20
-2.62872
 11
-267.012
 21
-2.55757
  0
LINE
  8
0
 10
-267.012
 20
-2.55757
 11
-267.2
 21
-2.16666
  0
LINE
  8
0
 10
-267.2
 20
-2.16666
 11
-267.2
 21
2.16666
  0
LINE
  8
0
 10
-267.2
 20
2.16666
 11
-267.012
 21
2.55757
  0
LINE
  8
0
 10
-267.012
 20
2.55757
 11
-266.7
 21
2.62872
  0
LINE
  8
0
 10
-266.7
 20
2.62872
 11
-266.7
 21
2.66666
  0
LINE
  8
0
 10
-266.7
 20
2.66666
 11
-261.3
 21
2.66666
  0
LINE
  8
0
 10
-261.3
 20
2.66666
 11
-261.3
 21
2.62872
  0
LINE
  8
0
 10
-261.3
 20
2.62872
 11
-260.988
 21
2.55757
  0
LINE
  8
0
 10
-260.988
 20
2.55757
 11
-260.8
 21
2.16666
  0
LINE
  8
0
 10
-260.8
 20
2.16666
 11
-260.8
 21
-2.16666
  0
LINE
  8
0
 10
-260.8
 20
-2.16666
 11
-260.988
 21
-2.55757
  0
LINE
  8
0
 10
-260.988
 20
-2.55757
 11
-261.3
 21
-2.62872
  0
LINE
  8
0
 10
-261.3
 20
-2.62872
 11
-261.3
 21
-2.66666
  0
LINE
  8
0
 10
-261.3
 20
-2.66666
 11
-266.7
 21
-2.66666
  0
LINE
  8
0
 10
-170.7
 20
-2.66666
 11
-170.7
 21
-2.62872
  0
LINE
  8
0
 10
-170.7
 20
-2.62872
 11
-171.012
 21
-2.55757
  0
LINE
  8
0
 10
-171.012
 20
-2.55757
 11
-171.2
 21
-2.16666
  0
LINE
  8
0
 10
-171.2
 20
-2.16666
 11
-171.2
 21
2.16666
  0
LINE
  8
0
 10
-171.2
 20
2.16666
 11
-171.012
 21
2.55757
  0
LINE
  8
0
 10
-171.012
 20
2.55757
 11
-170.7
 21
2.62872
  0
LINE
  8
0
 10
-170.7
 20
2.62872
 11
-170.7
 21
2.66666
  0
LINE
  8
0
 10
-170.7
 20
2.66666
 11
-165.3
 21
2.66666
  0
LINE
  8
0
 10
-165.3
 20
2.66666
 11
-165.3
 21
2.62872
  0
LINE
  8
0
 10
-165.3
 20
2.62872
 11
-164.988
 21
2.55757
  0
LINE
  8
0
 10
-164.988
 20
2.55757
 11
-164.8
 21
2.16666
  0
LINE
  8
0
 10
-164.8
 20
2.16666
 11
-164.8
 21
-2.16666
  0
LINE
  8
0
 10
-164.8
 20
-2.16666
 11
-164.988
 21
-2.55757
  0
LINE
  8
0
 10
-164.988
 20
-2.55757
 11
-165.3
 21
-2.62872
  0
LINE
  8
0
 10
-165.3
 20
-2.62872
 11
-165.3
 21
-2.66666
  0
LINE
  8
0
 10
-165.3
 20
-2.66666
 11
-170.7
 21
-2.66666
  0
LINE
  8
0
 10
104.521
 20
-1.47414
 11
104.089
 21
-1.25397
  0
LINE
  8
0
 10
104.089
 20
-1.25397
 11
103.746
 21
-0.911057
  0
LINE
  8
0
 10
103.746
 20
-0.911057
 11
103.526
 21
-0.478973
  0
LINE
  8
0
 10
103.526
 20
-0.478973
 11
103.45
 21
0
  0
LINE
  8
0
 10
103.45
 20
0
 11
103.526
 21
0.478973
  0
LINE
  8
0
 10
103.526
 20
0.478973
 11
103.746
 21
0.911057
  0
LINE
  8
0
 10
103.746
 20
0.911057
 11
104.089
 21
1.25397
  0
LINE
  8
0
 10
104.089
 20
1.25397
 11
104.521
 21
1.47414
  0
LINE
  8
0
 10
104.521
 20
1.47414
 11
105
 21
1.54999
  0
LINE
  8
0
 10
105
 20
1.54999
 11
105.479
 21
1.47414
  0
LINE
  8
0
 10
105.479
 20
1.47414
 11
105.911
 21
1.25397
  0
LINE
  8
0
 10
105.911
 20
1.25397
 11
106.254
 21
0.911057
  0
LINE
  8
0
 10
106.254
 20
0.911057
 11
106.474
 21
0.478973
  0
LINE
  8
0
 10
106.474
 20
0.478973
 11
106.55
 21
0
  0
LINE
  8
0
 10
106.55
 20
0
 11
106.474
 21
-0.478973
  0
LINE
  8
0
 10
106.474
 20
-0.478973
 11
106.254
 21
-0.911057
  0
LINE
  8
0
 10
106.254
 20
-0.911057
 11
105.911
 21
-1.25397
  0
LINE
  8
0
 10
105.911
 20
-1.25397
 11
105.479
 21
-1.47414
  0
LINE
  8
0
 10
105.479
 20
-1.47414
 11
105
 21
-1.54999
  0
LINE
  8
0
 10
105
 20
-1.54999
 11
104.521
 21
-1.47414
  0
LINE
  8
0
 10
-105.479
 20
-1.47414
 11
-105.911
 21
-1.25397
  0
LINE
  8
0
 10
-105.911
 20
-1.25397
 11
-106.254
 21
-0.911057
  0
LINE
  8
0
 10
-106.254
 20
-0.911057
 11
-106.474
 21
-0.478973
  0
LINE
  8
0
 10
-106.474
 20
-0.478973
 11
-106.55
 21
0
  0
LINE
  8
0
 10
-106.55
 20
0
 11
-106.474
 21
0.478973
  0
LINE
  8
0
 10
-106.474
 20
0.478973
 11
-106.254
 21
0.911057
  0
LINE
  8
0
 10
-106.254
 20
0.911057
 11
-105.911
 21
1.25397
  0
LINE
  8
0
 10
-105.911
 20
1.25397
 11
-105.479
 21
1.47414
  0
LINE
  8
0
 10
-105.479
 20
1.47414
 11
-105
 21
1.54999
  0
LINE
  8
0
 10
-105
 20
1.54999
 11
-104.521
 21
1.47414
  0
LINE
  8
0
 10
-104.521
 20
1.47414
 11
-104.089
 21
1.25397
  0
LINE
  8
0
 10
-104.089
 20
1.25397
 11
-103.746
 21
0.911057
  0
LINE
  8
0
 10
-103.746
 20
0.911057
 11
-103.526
 21
0.478973
  0
LINE
  8
0
 10
-103.526
 20
0.478973
 11
-103.45
 21
0
  0
LINE
  8
0
 10
-103.45
 20
0
 11
-103.526
 21
-0.478973
  0
LINE
  8
0
 10
-103.526
 20
-0.478973
 11
-103.746
 21
-0.911057
  0
LINE
  8
0
 10
-103.746
 20
-0.911057
 11
-104.089
 21
-1.25397
  0
LINE
  8
0
 10
-104.089
 20
-1.25397
 11
-104.521
 21
-1.47414
  0
LINE
  8
0
 10
-104.521
 20
-1.47414
 11
-105
 21
-1.54999
  0
LINE
  8
0
 10
-105
 20
-1.54999
 11
-105.479
 21
-1.47414
  0
LINE
  8
0
 10
64.1811
 20
-299.781
 11
68.3165
 21
-299.126
  0
LINE
  8
0
 10
68.3165
 20
-299.126
 11
72.3607
 21
-298.042
  0
LINE
  8
0
 10
72.3607
 20
-298.042
 11
76.2695
 21
-296.542
  0
LINE
  8
0
 10
76.2695
 20
-296.542
 11
80
 21
-294.641
  0
LINE
  8
0
 10
80
 20
-294.641
 11
83.5114
 21
-292.361
  0
LINE
  8
0
 10
83.5114
 20
-292.361
 11
86.7652
 21
-289.726
  0
LINE
  8
0
 10
86.7652
 20
-289.726
 11
89.7258
 21
-286.765
  0
LINE
  8
0
 10
89.7258
 20
-286.765
 11
92.3607
 21
-283.511
  0
LINE
  8
0
 10
92.3607
 20
-283.511
 11
94.641
 21
-280
  0
LINE
  8
0
 10
94.641
 20
-280
 11
96.5418
 21
-276.269
  0
LINE
  8
0
 10
96.5418
 20
-276.269
 11
158.271
 21
-128.135
  0
LINE
  8
0
 10
158.271
 20
-128.135
 11
159.021
 21
-126.18
  0
LINE
  8
0
 10
159.021
 20
-126.18
 11
159.563
 21
-124.158
  0
LINE
  8
0
 10
159.563
 20
-124.158
 11
159.89
 21
-122.091
  0
LINE
  8
0
 10
159.89
 20
-122.091
 11
160
 21
-120
  0
LINE
  8
0
 10
160
 20
-120
 11
160
 21
-80
  0
LINE
  8
0
 10
160
 20
-80
 11
159.945
 21
-78.9547
  0
LINE
  8
0
 10
159.945
 20
-78.9547
 11
159.781
 21
-77.9209
  0
LINE
  8
0
 10
159.781
 20
-77.9209
 11
159.511
 21
-76.9098
  0
LINE
  8
0
 10
159.511
 20
-76.9098
 11
159.135
 21
-75.9326
  0
LINE
  8
0
 10
159.135
 20
-75.9326
 11
158.66
 21
-75
  0
LINE
  8
0
 10
158.66
 20
-75
 11
158.09
 21
-74.1221
  0
LINE
  8
0
 10
158.09
 20
-74.1221
 11
157.431
 21
-73.3087
  0
LINE
  8
0
 10
157.431
 20
-73.3087
 11
156.691
 21
-72.5685
  0
LINE
  8
0
 10
156.691
 20
-72.5685
 11
155.878
 21
-71.9098
  0
LINE
  8
0
 10
155.878
 20
-71.9098
 11
155
 21
-71.3397
  0
LINE
  8
0
 10
155
 20
-71.3397
 11
106.136
 21
-40.354
  0
LINE
  8
0
 10
106.136
 20
-40.354
 11
105.709
 21
-40.13
  0
LINE
  8
0
 10
105.709
 20
-40.13
 11
105.241
 21
-40.0146
  0
LINE
  8
0
 10
105.241
 20
-40.0146
 11
105.14
 21
-40.0146
  0
LINE
  8
0
 10
105.14
 20
-40.0146
 11
105.121
 21
-40.0073
  0
LINE
  8
0
 10
105.121
 20
-40.0073
 11
96
 21
-40
  0
LINE
  8
0
 10
96
 20
-40
 11
94.9547
 21
-40.0548
  0
LINE
  8
0
 10
94.9547
 20
-40.0548
 11
93.9209
 21
-40.2185
  0
LINE
  8
0
 10
93.9209
 20
-40.2185
 11
92.9098
 21
-40.4894
  0
LINE
  8
0
 10
92.9098
 20
-40.4894
 11
91.9326
 21
-40.8645
  0
LINE
  8
0
 10
91.9326
 20
-40.8645
 11
91
 21
-41.3397
  0
LINE
  8
0
 10
91
 20
-41.3397
 11
90.1221
 21
-41.9098
  0
LINE
  8
0
 10
90.1221
 20
-41.9098
 11
89.3087
 21
-42.5685
  0
LINE
  8
0
 10
89.3087
 20
-42.5685
 11
88.5685
 21
-43.3087
  0
LINE
  8
0
 10
88.5685
 20
-43.3087
 11
87.9098
 21
-44.1221
  0
LINE
  8
0
 10
87.9098
 20
-44.1221
 11
87.3397
 21
-45
  0
LINE
  8
0
 10
87.3397
 20
-45
 11
86.8645
 21
-45.9326
  0
LINE
  8
0
 10
86.8645
 20
-45.9326
 11
86.4894
 21
-46.9098
  0
LINE
  8
0
 10
86.4894
 20
-46.9098
 11
86.2185
 21
-47.9209
  0
LINE
  8
0
 10
86.2185
 20
-47.9209
 11
86.0548
 21
-48.9547
  0
LINE
  8
0
 10
86.0548
 20
-48.9547
 11
86
 21
-50
  0
LINE
  8
0
 10
86
 20
-50
 11
86.0548
 21
-51.0453
  0
LINE
  8
0
 10
86.0548
 20
-51.0453
 11
86.2185
 21
-52.0791
  0
LINE
  8
0
 10
86.2185
 20
-52.0791
 11
86.4894
 21
-53.0902
  0
LINE
  8
0
 10
86.4894
 20
-53.0902
 11
86.8645
 21
-54.0674
  0
LINE
  8
0
 10
86.8645
 20
-54.0674
 11
92.8678
 21
-68.7184
  0
LINE
  8
0
 10
92.8678
 20
-68.7184
 11
93.0721
 21
-69.16
  0
LINE
  8
0
 10
93.0721
 20
-69.16
 11
100.916
 21
-80
  0
LINE
  8
0
 10
100.916
 20
-80
 11
99.6597
 21
-80
  0
LINE
  8
0
 10
99.6597
 20
-80
 11
84.0451
 21
-57.0611
  0
LINE
  8
0
 10
84.0451
 20
-57.0611
 11
84
 21
-57.0054
  0
LINE
  8
0
 10
84
 20
-57.0054
 11
84
 21
-54
  0
LINE
  8
0
 10
84
 20
-54
 11
83.9697
 21
-53.5084
  0
LINE
  8
0
 10
83.9697
 20
-53.5084
 11
83.8792
 21
-53.0243
  0
LINE
  8
0
 10
83.8792
 20
-53.0243
 11
83.7299
 21
-52.555
  0
LINE
  8
0
 10
83.7299
 20
-52.555
 11
83.524
 21
-52.1076
  0
LINE
  8
0
 10
83.524
 20
-52.1076
 11
83.2648
 21
-51.6889
  0
LINE
  8
0
 10
83.2648
 20
-51.6889
 11
82.956
 21
-51.3052
  0
LINE
  8
0
 10
82.956
 20
-51.3052
 11
82.6025
 21
-50.9624
  0
LINE
  8
0
 10
82.6025
 20
-50.9624
 11
82.2095
 21
-50.6656
  0
LINE
  8
0
 10
82.2095
 20
-50.6656
 11
81.7829
 21
-50.4193
  0
LINE
  8
0
 10
81.7829
 20
-50.4193
 11
81.3294
 21
-50.2274
  0
LINE
  8
0
 10
81.3294
 20
-50.2274
 11
80.8557
 21
-50.0926
  0
LINE
  8
0
 10
80.8557
 20
-50.0926
 11
80.3691
 21
-50.0171
  0
LINE
  8
0
 10
80.3691
 20
-50.0171
 11
80
 21
-50.0057
  0
LINE
  8
0
 10
80
 20
-50.0057
 11
79.6309
 21
-50.0171
  0
LINE
  8
0
 10
79.6309
 20
-50.0171
 11
79.1443
 21
-50.0926
  0
LINE
  8
0
 10
79.1443
 20
-50.0926
 11
78.6706
 21
-50.2274
  0
LINE
  8
0
 10
78.6706
 20
-50.2274
 11
78.217
 21
-50.4193
  0
LINE
  8
0
 10
78.217
 20
-50.4193
 11
77.7905
 21
-50.6656
  0
LINE
  8
0
 10
77.7905
 20
-50.6656
 11
77.3975
 21
-50.9624
  0
LINE
  8
0
 10
77.3975
 20
-50.9624
 11
77.044
 21
-51.3052
  0
LINE
  8
0
 10
77.044
 20
-51.3052
 11
76.7352
 21
-51.6889
  0
LINE
  8
0
 10
76.7352
 20
-51.6889
 11
76.476
 21
-52.1076
  0
LINE
  8
0
 10
76.476
 20
-52.1076
 11
76.2701
 21
-52.555
  0
LINE
  8
0
 10
76.2701
 20
-52.555
 11
76.1208
 21
-53.0243
  0
LINE
  8
0
 10
76.1208
 20
-53.0243
 11
76.0303
 21
-53.5084
  0
LINE
  8
0
 10
76.0303
 20
-53.5084
 11
76
 21
-54
  0
LINE
  8
0
 10
76
 20
-54
 11
76
 21
-57.0054
  0
LINE
  8
0
 10
76
 20
-57.0054
 11
75.9549
 21
-57.0611
  0
LINE
  8
0
 10
75.9549
 20
-57.0611
 11
60.3403
 21
-80
  0
LINE
  8
0
 10
60.3403
 20
-80
 11
59.0848
 21
-80
  0
LINE
  8
0
 10
59.0848
 20
-80
 11
66.7912
 21
-69.3616
  0
LINE
  8
0
 10
66.7912
 20
-69.3616
 11
67.042
 21
-68.9447
  0
LINE
  8
0
 10
67.042
 20
-68.9447
 11
73.1355
 21
-54.0674
  0
LINE
  8
0
 10
73.1355
 20
-54.0674
 11
73.5106
 21
-53.0902
  0
LINE
  8
0
 10
73.5106
 20
-53.0902
 11
73.7815
 21
-52.0791
  0
LINE
  8
0
 10
73.7815
 20
-52.0791
 11
73.9452
 21
-51.0453
  0
LINE
  8
0
 10
73.9452
 20
-51.0453
 11
74
 21
-50
  0
LINE
  8
0
 10
74
 20
-50
 11
73.9452
 21
-48.9547
  0
LINE
  8
0
 10
73.9452
 20
-48.9547
 11
73.7815
 21
-47.9209
  0
LINE
  8
0
 10
73.7815
 20
-47.9209
 11
73.5106
 21
-46.9098
  0
LINE
  8
0
 10
73.5106
 20
-46.9098
 11
73.1355
 21
-45.9326
  0
LINE
  8
0
 10
73.1355
 20
-45.9326
 11
72.6602
 21
-45
  0
LINE
  8
0
 10
72.6602
 20
-45
 11
72.0902
 21
-44.1221
  0
LINE
  8
0
 10
72.0902
 20
-44.1221
 11
71.4314
 21
-43.3087
  0
LINE
  8
0
 10
71.4314
 20
-43.3087
 11
70.6913
 21
-42.5685
  0
LINE
  8
0
 10
70.6913
 20
-42.5685
 11
69.8779
 21
-41.9098
  0
LINE
  8
0
 10
69.8779
 20
-41.9098
 11
69
 21
-41.3397
  0
LINE
  8
0
 10
69
 20
-41.3397
 11
68.0674
 21
-40.8645
  0
LINE
  8
0
 10
68.0674
 20
-40.8645
 11
67.0902
 21
-40.4894
  0
LINE
  8
0
 10
67.0902
 20
-40.4894
 11
66.0791
 21
-40.2185
  0
LINE
  8
0
 10
66.0791
 20
-40.2185
 11
65.0453
 21
-40.0548
  0
LINE
  8
0
 10
65.0453
 20
-40.0548
 11
64
 21
-40
  0
LINE
  8
0
 10
64
 20
-40
 11
62.9547
 21
-40.0548
  0
LINE
  8
0
 10
62.9547
 20
-40.0548
 11
61.9209
 21
-40.2185
  0
LINE
  8
0
 10
61.9209
 20
-40.2185
 11
60.9098
 21
-40.4894
  0
LINE
  8
0
 10
60.9098
 20
-40.4894
 11
55
 21
-42.1231
  0
LINE
  8
0
 10
55
 20
-42.1231
 11
55
 21
-42.0343
  0
LINE
  8
0
 10
55
 20
-42.0343
 11
41.5823
 21
-45.6295
  0
LINE
  8
0
 10
41.5823
 20
-45.6295
 11
20.9057
 21
-48.9044
  0
LINE
  8
0
 10
20.9057
 20
-48.9044
 11
0
 21
-50
  0
LINE
  8
0
 10
0
 20
-50
 11
-20.9057
 21
-48.9044
  0
LINE
  8
0
 10
-20.9057
 20
-48.9044
 11
-41.5823
 21
-45.6295
  0
LINE
  8
0
 10
-41.5823
 20
-45.6295
 11
-55
 21
-42.0343
  0
LINE
  8
0
 10
-55
 20
-42.0343
 11
-55
 21
-42.1231
  0
LINE
  8
0
 10
-55
 20
-42.1231
 11
-60.9098
 21
-40.4894
  0
LINE
  8
0
 10
-60.9098
 20
-40.4894
 11
-61.9209
 21
-40.2185
  0
LINE
  8
0
 10
-61.9209
 20
-40.2185
 11
-62.9547
 21
-40.0548
  0
LINE
  8
0
 10
-62.9547
 20
-40.0548
 11
-64
 21
-40
  0
LINE
  8
0
 10
-64
 20
-40
 11
-65.0453
 21
-40.0548
  0
LINE
  8
0
 10
-65.0453
 20
-40.0548
 11
-66.0791
 21
-40.2185
  0
LINE
  8
0
 10
-66.0791
 20
-40.2185
 11
-67.0902
 21
-40.4894
  0
LINE
  8
0
 10
-67.0902
 20
-40.4894
 11
-68.0674
 21
-40.8645
  0
LINE
  8
0
 10
-68.0674
 20
-40.8645
 11
-69
 21
-41.3397
  0
LINE
  8
0
 10
-69
 20
-41.3397
 11
-69.8779
 21
-41.9098
  0
LINE
  8
0
 10
-69.8779
 20
-41.9098
 11
-70.6913
 21
-42.5685
  0
LINE
  8
0
 10
-70.6913
 20
-42.5685
 11
-71.4314
 21
-43.3087
  0
LINE
  8
0
 10
-71.4314
 20
-43.3087
 11
-72.0902
 21
-44.1221
  0
LINE
  8
0
 10
-72.0902
 20
-44.1221
 11
-72.6602
 21
-45
  0
LINE
  8
0
 10
-72.6602
 20
-45
 11
-73.1355
 21
-45.9326
  0
LINE
  8
0
 10
-73.1355
 20
-45.9326
 11
-73.5106
 21
-46.9098
  0
LINE
  8
0
 10
-73.5106
 20
-46.9098
 11
-73.7815
 21
-47.9209
  0
LINE
  8
0
 10
-73.7815
 20
-47.9209
 11
-73.9452
 21
-48.9547
  0
LINE
  8
0
 10
-73.9452
 20
-48.9547
 11
-74
 21
-50
  0
LINE
  8
0
 10
-74
 20
-50
 11
-73.9452
 21
-51.0453
  0
LINE
  8
0
 10
-73.9452
 20
-51.0453
 11
-73.7815
 21
-52.0791
  0
LINE
  8
0
 10
-73.7815
 20
-52.0791
 11
-73.5106
 21
-53.0902
  0
LINE
  8
0
 10
-73.5106
 20
-53.0902
 11
-73.1355
 21
-54.0674
  0
LINE
  8
0
 10
-73.1355
 20
-54.0674
 11
-67.042
 21
-68.9447
  0
LINE
  8
0
 10
-67.042
 20
-68.9447
 11
-66.7912
 21
-69.3616
  0
LINE
  8
0
 10
-66.7912
 20
-69.3616
 11
-59.0848
 21
-80
  0
LINE
  8
0
 10
-59.0848
 20
-80
 11
-60.3403
 21
-80
  0
LINE
  8
0
 10
-60.3403
 20
-80
 11
-75.9549
 21
-57.0611
  0
LINE
  8
0
 10
-75.9549
 20
-57.0611
 11
-76
 21
-57.0054
  0
LINE
  8
0
 10
-76
 20
-57.0054
 11
-76
 21
-54
  0
LINE
  8
0
 10
-76
 20
-54
 11
-76.0303
 21
-53.5084
  0
LINE
  8
0
 10
-76.0303
 20
-53.5084
 11
-76.1208
 21
-53.0243
  0
LINE
  8
0
 10
-76.1208
 20
-53.0243
 11
-76.2701
 21
-52.555
  0
LINE
  8
0
 10
-76.2701
 20
-52.555
 11
-76.476
 21
-52.1076
  0
LINE
  8
0
 10
-76.476
 20
-52.1076
 11
-76.7352
 21
-51.6889
  0
LINE
  8
0
 10
-76.7352
 20
-51.6889
 11
-77.044
 21
-51.3052
  0
LINE
  8
0
 10
-77.044
 20
-51.3052
 11
-77.3975
 21
-50.9624
  0
LINE
  8
0
 10
-77.3975
 20
-50.9624
 11
-77.7905
 21
-50.6656
  0
LINE
  8
0
 10
-77.7905
 20
-50.6656
 11
-78.217
 21
-50.4193
  0
LINE
  8
0
 10
-78.217
 20
-50.4193
 11
-78.6706
 21
-50.2274
  0
LINE
  8
0
 10
-78.6706
 20
-50.2274
 11
-79.1443
 21
-50.0926
  0
LINE
  8
0
 10
-79.1443
 20
-50.0926
 11
-79.6309
 21
-50.0171
  0
LINE
  8
0
 10
-79.6309
 20
-50.0171
 11
-80
 21
-50.0057
  0
LINE
  8
0
 10
-80
 20
-50.0057
 11
-80.3691
 21
-50.0171
  0
LINE
  8
0
 10
-80.3691
 20
-50.0171
 11
-80.8557
 21
-50.0926
  0
LINE
  8
0
 10
-80.8557
 20
-50.0926
 11
-81.3294
 21
-50.2274
  0
LINE
  8
0
 10
-81.3294
 20
-50.2274
 11
-81.7829
 21
-50.4193
  0
LINE
  8
0
 10
-81.7829
 20
-50.4193
 11
-82.2095
 21
-50.6656
  0
LINE
  8
0
 10
-82.2095
 20
-50.6656
 11
-82.6025
 21
-50.9624
  0
LINE
  8
0
 10
-82.6025
 20
-50.9624
 11
-82.956
 21
-51.3052
  0
LINE
  8
0
 10
-82.956
 20
-51.3052
 11
-83.2648
 21
-51.6889
  0
LINE
  8
0
 10
-83.2648
 20
-51.6889
 11
-83.524
 21
-52.1076
  0
LINE
  8
0
 10
-83.524
 20
-52.1076
 11
-83.7299
 21
-52.555
  0
LINE
  8
0
 10
-83.7299
 20
-52.555
 11
-83.8792
 21
-53.0243
  0
LINE
  8
0
 10
-83.8792
 20
-53.0243
 11
-83.9697
 21
-53.5084
  0
LINE
  8
0
 10
-83.9697
 20
-53.5084
 11
-84
 21
-54
  0
LINE
  8
0
 10
-84
 20
-54
 11
-84
 21
-57.0054
  0
LINE
  8
0
 10
-84
 20
-57.0054
 11
-84.0451
 21
-57.0611
  0
LINE
  8
0
 10
-84.0451
 20
-57.0611
 11
-99.6597
 21
-80
  0
LINE
  8
0
 10
-99.6597
 20
-80
 11
-100.916
 21
-80
  0
LINE
  8
0
 10
-100.916
 20
-80
 11
-93.0721
 21
-69.16
  0
LINE
  8
0
 10
-93.0721
 20
-69.16
 11
-92.8678
 21
-68.7184
  0
LINE
  8
0
 10
-92.8678
 20
-68.7184
 11
-86.8645
 21
-54.0674
  0
LINE
  8
0
 10
-86.8645
 20
-54.0674
 11
-86.4894
 21
-53.0902
  0
LINE
  8
0
 10
-86.4894
 20
-53.0902
 11
-86.2185
 21
-52.0791
  0
LINE
  8
0
 10
-86.2185
 20
-52.0791
 11
-86.0548
 21
-51.0453
  0
LINE
  8
0
 10
-86.0548
 20
-51.0453
 11
-86
 21
-50
  0
LINE
  8
0
 10
-86
 20
-50
 11
-86.0548
 21
-48.9547
  0
LINE
  8
0
 10
-86.0548
 20
-48.9547
 11
-86.2185
 21
-47.9209
  0
LINE
  8
0
 10
-86.2185
 20
-47.9209
 11
-86.4894
 21
-46.9098
  0
LINE
  8
0
 10
-86.4894
 20
-46.9098
 11
-86.8645
 21
-45.9326
  0
LINE
  8
0
 10
-86.8645
 20
-45.9326
 11
-87.3397
 21
-45
  0
LINE
  8
0
 10
-87.3397
 20
-45
 11
-87.9098
 21
-44.1221
  0
LINE
  8
0
 10
-87.9098
 20
-44.1221
 11
-88.5685
 21
-43.3087
  0
LINE
  8
0
 10
-88.5685
 20
-43.3087
 11
-89.3087
 21
-42.5685
  0
LINE
  8
0
 10
-89.3087
 20
-42.5685
 11
-90.1221
 21
-41.9098
  0
LINE
  8
0
 10
-90.1221
 20
-41.9098
 11
-91
 21
-41.3397
  0
LINE
  8
0
 10
-91
 20
-41.3397
 11
-91.9326
 21
-40.8645
  0
LINE
  8
0
 10
-91.9326
 20
-40.8645
 11
-92.9098
 21
-40.4894
  0
LINE
  8
0
 10
-92.9098
 20
-40.4894
 11
-93.9209
 21
-40.2185
  0
LINE
  8
0
 10
-93.9209
 20
-40.2185
 11
-94.9547
 21
-40.0548
  0
LINE
  8
0
 10
-94.9547
 20
-40.0548
 11
-96
 21
-40
  0
LINE
  8
0
 10
-96
 20
-40
 11
-105.121
 21
-40.0073
  0
LINE
  8
0
 10
-105.121
 20
-40.0073
 11
-105.14
 21
-40.0146
  0
LINE
  8
0
 10
-105.14
 20
-40.0146
 11
-105.241
 21
-40.0146
  0
LINE
  8
0
 10
-105.241
 20
-40.0146
 11
-105.709
 21
-40.13
  0
LINE
  8
0
 10
-105.709
 20
-40.13
 11
-106.136
 21
-40.354
  0
LINE
  8
0
 10
-106.136
 20
-40.354
 11
-155
 21
-71.3397
  0
LINE
  8
0
 10
-155
 20
-71.3397
 11
-155.878
 21
-71.9098
  0
LINE
  8
0
 10
-155.878
 20
-71.9098
 11
-156.691
 21
-72.5685
  0
LINE
  8
0
 10
-156.691
 20
-72.5685
 11
-157.431
 21
-73.3087
  0
LINE
  8
0
 10
-157.431
 20
-73.3087
 11
-158.09
 21
-74.1221
  0
LINE
  8
0
 10
-158.09
 20
-74.1221
 11
-158.66
 21
-75
  0
LINE
  8
0
 10
-158.66
 20
-75
 11
-159.135
 21
-75.9326
  0
LINE
  8
0
 10
-159.135
 20
-75.9326
 11
-159.511
 21
-76.9098
  0
LINE
  8
0
 10
-159.511
 20
-76.9098
 11
-159.781
 21
-77.9209
  0
LINE
  8
0
 10
-159.781
 20
-77.9209
 11
-159.945
 21
-78.9547
  0
LINE
  8
0
 10
-159.945
 20
-78.9547
 11
-160
 21
-80
  0
LINE
  8
0
 10
-160
 20
-80
 11
-160
 21
-120
  0
LINE
  8
0
 10
-160
 20
-120
 11
-159.89
 21
-122.091
  0
LINE
  8
0
 10
-159.89
 20
-122.091
 11
-159.563
 21
-124.158
  0
LINE
  8
0
 10
-159.563
 20
-124.158
 11
-159.021
 21
-126.18
  0
LINE
  8
0
 10
-159.021
 20
-126.18
 11
-158.271
 21
-128.135
  0
LINE
  8
0
 10
-158.271
 20
-128.135
 11
-96.5418
 21
-276.269
  0
LINE
  8
0
 10
-96.5418
 20
-276.269
 11
-94.641
 21
-280
  0
LINE
  8
0
 10
-94.641
 20
-280
 11
-92.3607
 21
-283.511
  0
LINE
  8
0
 10
-92.3607
 20
-283.511
 11
-89.7258
 21
-286.765
  0
LINE
  8
0
 10
-89.7258
 20
-286.765
 11
-86.7652
 21
-289.726
  0
LINE
  8
0
 10
-86.7652
 20
-289.726
 11
-83.5114
 21
-292.361
  0
LINE
  8
0
 10
-83.5114
 20
-292.361
 11
-80
 21
-294.641
  0
LINE
  8
0
 10
-80
 20
-294.641
 11
-76.2695
 21
-296.542
  0
LINE
  8
0
 10
-76.2695
 20
-296.542
 11
-72.3607
 21
-298.042
  0
LINE
  8
0
 10
-72.3607
 20
-298.042
 11
-68.3165
 21
-299.126
  0
LINE
  8
0
 10
-68.3165
 20
-299.126
 11
-64.1811
 21
-299.781
  0
LINE
  8
0
 10
-64.1811
 20
-299.781
 11
-60
 21
-300
  0
LINE
  8
0
 10
-60
 20
-300
 11
60
 21
-300
  0
LINE
  8
0
 10
60
 20
-300
 11
64.1811
 21
-299.781
  0
LINE
  8
0
 10
-62.5226
 20
-54.9726
 11
-63.0396
 21
-54.8907
  0
LINE
  8
0
 10
-63.0396
 20
-54.8907
 11
-63.5451
 21
-54.7553
  0
LINE
  8
0
 10
-63.5451
 20
-54.7553
 11
-64.0337
 21
-54.5677
  0
LINE
  8
0
 10
-64.0337
 20
-54.5677
 11
-64.5
 21
-54.3301
  0
LINE
  8
0
 10
-64.5
 20
-54.3301
 11
-64.9389
 21
-54.0451
  0
LINE
  8
0
 10
-64.9389
 20
-54.0451
 11
-65.3456
 21
-53.7157
  0
LINE
  8
0
 10
-65.3456
 20
-53.7157
 11
-65.7157
 21
-53.3456
  0
LINE
  8
0
 10
-65.7157
 20
-53.3456
 11
-66.0451
 21
-52.9389
  0
LINE
  8
0
 10
-66.0451
 20
-52.9389
 11
-66.3301
 21
-52.5
  0
LINE
  8
0
 10
-66.3301
 20
-52.5
 11
-66.5677
 21
-52.0337
  0
LINE
  8
0
 10
-66.5677
 20
-52.0337
 11
-66.7553
 21
-51.5451
  0
LINE
  8
0
 10
-66.7553
 20
-51.5451
 11
-66.8907
 21
-51.0396
  0
LINE
  8
0
 10
-66.8907
 20
-51.0396
 11
-66.9726
 21
-50.5226
  0
LINE
  8
0
 10
-66.9726
 20
-50.5226
 11
-67
 21
-50
  0
LINE
  8
0
 10
-67
 20
-50
 11
-66.9726
 21
-49.4774
  0
LINE
  8
0
 10
-66.9726
 20
-49.4774
 11
-66.8907
 21
-48.9604
  0
LINE
  8
0
 10
-66.8907
 20
-48.9604
 11
-66.7553
 21
-48.4549
  0
LINE
  8
0
 10
-66.7553
 20
-48.4549
 11
-66.5677
 21
-47.9663
  0
LINE
  8
0
 10
-66.5677
 20
-47.9663
 11
-66.3301
 21
-47.5
  0
LINE
  8
0
 10
-66.3301
 20
-47.5
 11
-66.0451
 21
-47.0611
  0
LINE
  8
0
 10
-66.0451
 20
-47.0611
 11
-65.7157
 21
-46.6543
  0
LINE
  8
0
 10
-65.7157
 20
-46.6543
 11
-65.3456
 21
-46.2843
  0
LINE
  8
0
 10
-65.3456
 20
-46.2843
 11
-64.9389
 21
-45.9549
  0
LINE
  8
0
 10
-64.9389
 20
-45.9549
 11
-64.5
 21
-45.6699
  0
LINE
  8
0
 10
-64.5
 20
-45.6699
 11
-64.0337
 21
-45.4323
  0
LINE
  8
0
 10
-64.0337
 20
-45.4323
 11
-63.5451
 21
-45.2447
  0
LINE
  8
0
 10
-63.5451
 20
-45.2447
 11
-63.0396
 21
-45.1093
  0
LINE
  8
0
 10
-63.0396
 20
-45.1093
 11
-62.5226
 21
-45.0274
  0
LINE
  8
0
 10
-62.5226
 20
-45.0274
 11
-62
 21
-45
  0
LINE
  8
0
 10
-62
 20
-45
 11
-61.4774
 21
-45.0274
  0
LINE
  8
0
 10
-61.4774
 20
-45.0274
 11
-60.9604
 21
-45.1093
  0
LINE
  8
0
 10
-60.9604
 20
-45.1093
 11
-60.4549
 21
-45.2447
  0
LINE
  8
0
 10
-60.4549
 20
-45.2447
 11
-59.9663
 21
-45.4323
  0
LINE
  8
0
 10
-59.9663
 20
-45.4323
 11
-59.5
 21
-45.6699
  0
LINE
  8
0
 10
-59.5
 20
-45.6699
 11
-59.0611
 21
-45.9549
  0
LINE
  8
0
 10
-59.0611
 20
-45.9549
 11
-58.6543
 21
-46.2843
  0
LINE
  8
0
 10
-58.6543
 20
-46.2843
 11
-58.2843
 21
-46.6543
  0
LINE
  8
0
 10
-58.2843
 20
-46.6543
 11
-57.9549
 21
-47.0611
  0
LINE
  8
0
 10
-57.9549
 20
-47.0611
 11
-57.6699
 21
-47.5
  0
LINE
  8
0
 10
-57.6699
 20
-47.5
 11
-57.4323
 21
-47.9663
  0
LINE
  8
0
 10
-57.4323
 20
-47.9663
 11
-57.2447
 21
-48.4549
  0
LINE
  8
0
 10
-57.2447
 20
-48.4549
 11
-57.1093
 21
-48.9604
  0
LINE
  8
0
 10
-57.1093
 20
-48.9604
 11
-57.0274
 21
-49.4774
  0
LINE
  8
0
 10
-57.0274
 20
-49.4774
 11
-57
 21
-50
  0
LINE
  8
0
 10
-57
 20
-50
 11
-57.0274
 21
-50.5226
  0
LINE
  8
0
 10
-57.0274
 20
-50.5226
 11
-57.1093
 21
-51.0396
  0
LINE
  8
0
 10
-57.1093
 20
-51.0396
 11
-57.2447
 21
-51.5451
  0
LINE
  8
0
 10
-57.2447
 20
-51.5451
 11
-57.4323
 21
-52.0337
  0
LINE
  8
0
 10
-57.4323
 20
-52.0337
 11
-57.6699
 21
-52.5
  0
LINE
  8
0
 10
-57.6699
 20
-52.5
 11
-57.9549
 21
-52.9389
  0
LINE
  8
0
 10
-57.9549
 20
-52.9389
 11
-58.2843
 21
-53.3456
  0
LINE
  8
0
 10
-58.2843
 20
-53.3456
 11
-58.6543
 21
-53.7157
  0
LINE
  8
0
 10
-58.6543
 20
-53.7157
 11
-59.0611
 21
-54.0451
  0
LINE
  8
0
 10
-59.0611
 20
-54.0451
 11
-59.5
 21
-54.3301
  0
LINE
  8
0
 10
-59.5
 20
-54.3301
 11
-59.9663
 21
-54.5677
  0
LINE
  8
0
 10
-59.9663
 20
-54.5677
 11
-60.4549
 21
-54.7553
  0
LINE
  8
0
 10
-60.4549
 20
-54.7553
 11
-60.9604
 21
-54.8907
  0
LINE
  8
0
 10
-60.9604
 20
-54.8907
 11
-61.4774
 21
-54.9726
  0
LINE
  8
0
 10
-61.4774
 20
-54.9726
 11
-62
 21
-55
  0
LINE
  8
0
 10
-62
 20
-55
 11
-62.5226
 21
-54.9726
  0
LINE
  8
0
 10
97.4774
 20
-54.9726
 11
96.9604
 21
-54.8907
  0
LINE
  8
0
 10
96.9604
 20
-54.8907
 11
96.4549
 21
-54.7553
  0
LINE
  8
0
 10
96.4549
 20
-54.7553
 11
95.9663
 21
-54.5677
  0
LINE
  8
0
 10
95.9663
 20
-54.5677
 11
95.5
 21
-54.3301
  0
LINE
  8
0
 10
95.5
 20
-54.3301
 11
95.0611
 21
-54.0451
  0
LINE
  8
0
 10
95.0611
 20
-54.0451
 11
94.6543
 21
-53.7157
  0
LINE
  8
0
 10
94.6543
 20
-53.7157
 11
94.2843
 21
-53.3456
  0
LINE
  8
0
 10
94.2843
 20
-53.3456
 11
93.9549
 21
-52.9389
  0
LINE
  8
0
 10
93.9549
 20
-52.9389
 11
93.6699
 21
-52.5
  0
LINE
  8
0
 10
93.6699
 20
-52.5
 11
93.4323
 21
-52.0337
  0
LINE
  8
0
 10
93.4323
 20
-52.0337
 11
93.2447
 21
-51.5451
  0
LINE
  8
0
 10
93.2447
 20
-51.5451
 11
93.1093
 21
-51.0396
  0
LINE
  8
0
 10
93.1093
 20
-51.0396
 11
93.0274
 21
-50.5226
  0
LINE
  8
0
 10
93.0274
 20
-50.5226
 11
93
 21
-50
  0
LINE
  8
0
 10
93
 20
-50
 11
93.0274
 21
-49.4774
  0
LINE
  8
0
 10
93.0274
 20
-49.4774
 11
93.1093
 21
-48.9604
  0
LINE
  8
0
 10
93.1093
 20
-48.9604
 11
93.2447
 21
-48.4549
  0
LINE
  8
0
 10
93.2447
 20
-48.4549
 11
93.4323
 21
-47.9663
  0
LINE
  8
0
 10
93.4323
 20
-47.9663
 11
93.6699
 21
-47.5
  0
LINE
  8
0
 10
93.6699
 20
-47.5
 11
93.9549
 21
-47.0611
  0
LINE
  8
0
 10
93.9549
 20
-47.0611
 11
94.2843
 21
-46.6543
  0
LINE
  8
0
 10
94.2843
 20
-46.6543
 11
94.6543
 21
-46.2843
  0
LINE
  8
0
 10
94.6543
 20
-46.2843
 11
95.0611
 21
-45.9549
  0
LINE
  8
0
 10
95.0611
 20
-45.9549
 11
95.5
 21
-45.6699
  0
LINE
  8
0
 10
95.5
 20
-45.6699
 11
95.9663
 21
-45.4323
  0
LINE
  8
0
 10
95.9663
 20
-45.4323
 11
96.4549
 21
-45.2447
  0
LINE
  8
0
 10
96.4549
 20
-45.2447
 11
96.9604
 21
-45.1093
  0
LINE
  8
0
 10
96.9604
 20
-45.1093
 11
97.4774
 21
-45.0274
  0
LINE
  8
0
 10
97.4774
 20
-45.0274
 11
98
 21
-45
  0
LINE
  8
0
 10
98
 20
-45
 11
98.5226
 21
-45.0274
  0
LINE
  8
0
 10
98.5226
 20
-45.0274
 11
99.0396
 21
-45.1093
  0
LINE
  8
0
 10
99.0396
 20
-45.1093
 11
99.5451
 21
-45.2447
  0
LINE
  8
0
 10
99.5451
 20
-45.2447
 11
100.034
 21
-45.4323
  0
LINE
  8
0
 10
100.034
 20
-45.4323
 11
100.5
 21
-45.6699
  0
LINE
  8
0
 10
100.5
 20
-45.6699
 11
100.939
 21
-45.9549
  0
LINE
  8
0
 10
100.939
 20
-45.9549
 11
101.346
 21
-46.2843
  0
LINE
  8
0
 10
101.346
 20
-46.2843
 11
101.716
 21
-46.6543
  0
LINE
  8
0
 10
101.716
 20
-46.6543
 11
102.045
 21
-47.0611
  0
LINE
  8
0
 10
102.045
 20
-47.0611
 11
102.33
 21
-47.5
  0
LINE
  8
0
 10
102.33
 20
-47.5
 11
102.568
 21
-47.9663
  0
LINE
  8
0
 10
102.568
 20
-47.9663
 11
102.755
 21
-48.4549
  0
LINE
  8
0
 10
102.755
 20
-48.4549
 11
102.891
 21
-48.9604
  0
LINE
  8
0
 10
102.891
 20
-48.9604
 11
102.973
 21
-49.4774
  0
LINE
  8
0
 10
102.973
 20
-49.4774
 11
103
 21
-50
  0
LINE
  8
0
 10
103
 20
-50
 11
102.973
 21
-50.5226
  0
LINE
  8
0
 10
102.973
 20
-50.5226
 11
102.891
 21
-51.0396
  0
LINE
  8
0
 10
102.891
 20
-51.0396
 11
102.755
 21
-51.5451
  0
LINE
  8
0
 10
102.755
 20
-51.5451
 11
102.568
 21
-52.0337
  0
LINE
  8
0
 10
102.568
 20
-52.0337
 11
102.33
 21
-52.5
  0
LINE
  8
0
 10
102.33
 20
-52.5
 11
102.045
 21
-52.9389
  0
LINE
  8
0
 10
102.045
 20
-52.9389
 11
101.716
 21
-53.3456
  0
LINE
  8
0
 10
101.716
 20
-53.3456
 11
101.346
 21
-53.7157
  0
LINE
  8
0
 10
101.346
 20
-53.7157
 11
100.939
 21
-54.0451
  0
LINE
  8
0
 10
100.939
 20
-54.0451
 11
100.5
 21
-54.3301
  0
LINE
  8
0
 10
100.5
 20
-54.3301
 11
100.034
 21
-54.5677
  0
LINE
  8
0
 10
100.034
 20
-54.5677
 11
99.5451
 21
-54.7553
  0
LINE
  8
0
 10
99.5451
 20
-54.7553
 11
99.0396
 21
-54.8907
  0
LINE
  8
0
 10
99.0396
 20
-54.8907
 11
98.5226
 21
-54.9726
  0
LINE
  8
0
 10
98.5226
 20
-54.9726
 11
98
 21
-55
  0
LINE
  8
0
 10
98
 20
-55
 11
97.4774
 21
-54.9726
  0
LINE
  8
0
 10
61.4774
 20
-54.9726
 11
60.9604
 21
-54.8907
  0
LINE
  8
0
 10
60.9604
 20
-54.8907
 11
60.4549
 21
-54.7553
  0
LINE
  8
0
 10
60.4549
 20
-54.7553
 11
59.9663
 21
-54.5677
  0
LINE
  8
0
 10
59.9663
 20
-54.5677
 11
59.5
 21
-54.3301
  0
LINE
  8
0
 10
59.5
 20
-54.3301
 11
59.0611
 21
-54.0451
  0
LINE
  8
0
 10
59.0611
 20
-54.0451
 11
58.6543
 21
-53.7157
  0
LINE
  8
0
 10
58.6543
 20
-53.7157
 11
58.2843
 21
-53.3456
  0
LINE
  8
0
 10
58.2843
 20
-53.3456
 11
57.9549
 21
-52.9389
  0
LINE
  8
0
 10
57.9549
 20
-52.9389
 11
57.6699
 21
-52.5
  0
LINE
  8
0
 10
57.6699
 20
-52.5
 11
57.4323
 21
-52.0337
  0
LINE
  8
0
 10
57.4323
 20
-52.0337
 11
57.2447
 21
-51.5451
  0
LINE
  8
0
 10
57.2447
 20
-51.5451
 11
57.1093
 21
-51.0396
  0
LINE
  8
0
 10
57.1093
 20
-51.0396
 11
57.0274
 21
-50.5226
  0
LINE
  8
0
 10
57.0274
 20
-50.5226
 11
57
 21
-50
  0
LINE
  8
0
 10
57
 20
-50
 11
57.0274
 21
-49.4774
  0
LINE
  8
0
 10
57.0274
 20
-49.4774
 11
57.1093
 21
-48.9604
  0
LINE
  8
0
 10
57.1093
 20
-48.9604
 11
57.2447
 21
-48.4549
  0
LINE
  8
0
 10
57.2447
 20
-48.4549
 11
57.4323
 21
-47.9663
  0
LINE
  8
0
 10
57.4323
 20
-47.9663
 11
57.6699
 21
-47.5
  0
LINE
  8
0
 10
57.6699
 20
-47.5
 11
57.9549
 21
-47.0611
  0
LINE
  8
0
 10
57.9549
 20
-47.0611
 11
58.2843
 21
-46.6543
  0
LINE
  8
0
 10
58.2843
 20
-46.6543
 11
58.6543
 21
-46.2843
  0
LINE
  8
0
 10
58.6543
 20
-46.2843
 11
59.0611
 21
-45.9549
  0
LINE
  8
0
 10
59.0611
 20
-45.9549
 11
59.5
 21
-45.6699
  0
LINE
  8
0
 10
59.5
 20
-45.6699
 11
59.9663
 21
-45.4323
  0
LINE
  8
0
 10
59.9663
 20
-45.4323
 11
60.4549
 21
-45.2447
  0
LINE
  8
0
 10
60.4549
 20
-45.2447
 11
60.9604
 21
-45.1093
  0
LINE
  8
0
 10
60.9604
 20
-45.1093
 11
61.4774
 21
-45.0274
  0
LINE
  8
0
 10
61.4774
 20
-45.0274
 11
62
 21
-45
  0
LINE
  8
0
 10
62
 20
-45
 11
62.5226
 21
-45.0274
  0
LINE
  8
0
 10
62.5226
 20
-45.0274
 11
63.0396
 21
-45.1093
  0
LINE
  8
0
 10
63.0396
 20
-45.1093
 11
63.5451
 21
-45.2447
  0
LINE
  8
0
 10
63.5451
 20
-45.2447
 11
64.0337
 21
-45.4323
  0
LINE
  8
0
 10
64.0337
 20
-45.4323
 11
64.5
 21
-45.6699
  0
LINE
  8
0
 10
64.5
 20
-45.6699
 11
64.9389
 21
-45.9549
  0
LINE
  8
0
 10
64.9389
 20
-45.9549
 11
65.3456
 21
-46.2843
  0
LINE
  8
0
 10
65.3456
 20
-46.2843
 11
65.7157
 21
-46.6543
  0
LINE
  8
0
 10
65.7157
 20
-46.6543
 11
66.0451
 21
-47.0611
  0
LINE
  8
0
 10
66.0451
 20
-47.0611
 11
66.3301
 21
-47.5
  0
LINE
  8
0
 10
66.3301
 20
-47.5
 11
66.5677
 21
-47.9663
  0
LINE
  8
0
 10
66.5677
 20
-47.9663
 11
66.7553
 21
-48.4549
  0
LINE
  8
0
 10
66.7553
 20
-48.4549
 11
66.8907
 21
-48.9604
  0
LINE
  8
0
 10
66.8907
 20
-48.9604
 11
66.9726
 21
-49.4774
  0
LINE
  8
0
 10
66.9726
 20
-49.4774
 11
67
 21
-50
  0
LINE
  8
0
 10
67
 20
-50
 11
66.9726
 21
-50.5226
  0
LINE
  8
0
 10
66.9726
 20
-50.5226
 11
66.8907
 21
-51.0396
  0
LINE
  8
0
 10
66.8907
 20
-51.0396
 11
66.7553
 21
-51.5451
  0
LINE
  8
0
 10
66.7553
 20
-51.5451
 11
66.5677
 21
-52.0337
  0
LINE
  8
0
 10
66.5677
 20
-52.0337
 11
66.3301
 21
-52.5
  0
LINE
  8
0
 10
66.3301
 20
-52.5
 11
66.0451
 21
-52.9389
  0
LINE
  8
0
 10
66.0451
 20
-52.9389
 11
65.7157
 21
-53.3456
  0
LINE
  8
0
 10
65.7157
 20
-53.3456
 11
65.3456
 21
-53.7157
  0
LINE
  8
0
 10
65.3456
 20
-53.7157
 11
64.9389
 21
-54.0451
  0
LINE
  8
0
 10
64.9389
 20
-54.0451
 11
64.5
 21
-54.3301
  0
LINE
  8
0
 10
64.5
 20
-54.3301
 11
64.0337
 21
-54.5677
  0
LINE
  8
0
 10
64.0337
 20
-54.5677
 11
63.5451
 21
-54.7553
  0
LINE
  8
0
 10
63.5451
 20
-54.7553
 11
63.0396
 21
-54.8907
  0
LINE
  8
0
 10
63.0396
 20
-54.8907
 11
62.5226
 21
-54.9726
  0
LINE
  8
0
 10
62.5226
 20
-54.9726
 11
62
 21
-55
  0
LINE
  8
0
 10
62
 20
-55
 11
61.4774
 21
-54.9726
  0
LINE
  8
0
 10
-98.5226
 20
-54.9726
 11
-99.0396
 21
-54.8907
  0
LINE
  8
0
 10
-99.0396
 20
-54.8907
 11
-99.5451
 21
-54.7553
  0
LINE
  8
0
 10
-99.5451
 20
-54.7553
 11
-100.034
 21
-54.5677
  0
LINE
  8
0
 10
-100.034
 20
-54.5677
 11
-100.5
 21
-54.3301
  0
LINE
  8
0
 10
-100.5
 20
-54.3301
 11
-100.939
 21
-54.0451
  0
LINE
  8
0
 10
-100.939
 20
-54.0451
 11
-101.346
 21
-53.7157
  0
LINE
  8
0
 10
-101.346
 20
-53.7157
 11
-101.716
 21
-53.3456
  0
LINE
  8
0
 10
-101.716
 20
-53.3456
 11
-102.045
 21
-52.9389
  0
LINE
  8
0
 10
-102.045
 20
-52.9389
 11
-102.33
 21
-52.5
  0
LINE
  8
0
 10
-102.33
 20
-52.5
 11
-102.568
 21
-52.0337
  0
LINE
  8
0
 10
-102.568
 20
-52.0337
 11
-102.755
 21
-51.5451
  0
LINE
  8
0
 10
-102.755
 20
-51.5451
 11
-102.891
 21
-51.0396
  0
LINE
  8
0
 10
-102.891
 20
-51.0396
 11
-102.973
 21
-50.5226
  0
LINE
  8
0
 10
-102.973
 20
-50.5226
 11
-103
 21
-50
  0
LINE
  8
0
 10
-103
 20
-50
 11
-102.973
 21
-49.4774
  0
LINE
  8
0
 10
-102.973
 20
-49.4774
 11
-102.891
 21
-48.9604
  0
LINE
  8
0
 10
-102.891
 20
-48.9604
 11
-102.755
 21
-48.4549
  0
LINE
  8
0
 10
-102.755
 20
-48.4549
 11
-102.568
 21
-47.9663
  0
LINE
  8
0
 10
-102.568
 20
-47.9663
 11
-102.33
 21
-47.5
  0
LINE
  8
0
 10
-102.33
 20
-47.5
 11
-102.045
 21
-47.0611
  0
LINE
  8
0
 10
-102.045
 20
-47.0611
 11
-101.716
 21
-46.6543
  0
LINE
  8
0
 10
-101.716
 20
-46.6543
 11
-101.346
 21
-46.2843
  0
LINE
  8
0
 10
-101.346
 20
-46.2843
 11
-100.939
 21
-45.9549
  0
LINE
  8
0
 10
-100.939
 20
-45.9549
 11
-100.5
 21
-45.6699
  0
LINE
  8
0
 10
-100.5
 20
-45.6699
 11
-100.034
 21
-45.4323
  0
LINE
  8
0
 10
-100.034
 20
-45.4323
 11
-99.5451
 21
-45.2447
  0
LINE
  8
0
 10
-99.5451
 20
-45.2447
 11
-99.0396
 21
-45.1093
  0
LINE
  8
0
 10
-99.0396
 20
-45.1093
 11
-98.5226
 21
-45.0274
  0
LINE
  8
0
 10
-98.5226
 20
-45.0274
 11
-98
 21
-45
  0
LINE
  8
0
 10
-98
 20
-45
 11
-97.4774
 21
-45.0274
  0
LINE
  8
0
 10
-97.4774
 20
-45.0274
 11
-96.9604
 21
-45.1093
  0
LINE
  8
0
 10
-96.9604
 20
-45.1093
 11
-96.4549
 21
-45.2447
  0
LINE
  8
0
 10
-96.4549
 20
-45.2447
 11
-95.9663
 21
-45.4323
  0
LINE
  8
0
 10
-95.9663
 20
-45.4323
 11
-95.5
 21
-45.6699
  0
LINE
  8
0
 10
-95.5
 20
-45.6699
 11
-95.0611
 21
-45.9549
  0
LINE
  8
0
 10
-95.0611
 20
-45.9549
 11
-94.6543
 21
-46.2843
  0
LINE
  8
0
 10
-94.6543
 20
-46.2843
 11
-94.2843
 21
-46.6543
  0
LINE
  8
0
 10
-94.2843
 20
-46.6543
 11
-93.9549
 21
-47.0611
  0
LINE
  8
0
 10
-93.9549
 20
-47.0611
 11
-93.6699
 21
-47.5
  0
LINE
  8
0
 10
-93.6699
 20
-47.5
 11
-93.4323
 21
-47.9663
  0
LINE
  8
0
 10
-93.4323
 20
-47.9663
 11
-93.2447
 21
-48.4549
  0
LINE
  8
0
 10
-93.2447
 20
-48.4549
 11
-93.1093
 21
-48.9604
  0
LINE
  8
0
 10
-93.1093
 20
-48.9604
 11
-93.0274
 21
-49.4774
  0
LINE
  8
0
 10
-93.0274
 20
-49.4774
 11
-93
 21
-50
  0
LINE
  8
0
 10
-93
 20
-50
 11
-93.0274
 21
-50.5226
  0
LINE
  8
0
 10
-93.0274
 20
-50.5226
 11
-93.1093
 21
-51.0396
  0
LINE
  8
0
 10
-93.1093
 20
-51.0396
 11
-93.2447
 21
-51.5451
  0
LINE
  8
0
 10
-93.2447
 20
-51.5451
 11
-93.4323
 21
-52.0337
  0
LINE
  8
0
 10
-93.4323
 20
-52.0337
 11
-93.6699
 21
-52.5
  0
LINE
  8
0
 10
-93.6699
 20
-52.5
 11
-93.9549
 21
-52.9389
  0
LINE
  8
0
 10
-93.9549
 20
-52.9389
 11
-94.2843
 21
-53.3456
  0
LINE
  8
0
 10
-94.2843
 20
-53.3456
 11
-94.6543
 21
-53.7157
  0
LINE
  8
0
 10
-94.6543
 20
-53.7157
 11
-95.0611
 21
-54.0451
  0
LINE
  8
0
 10
-95.0611
 20
-54.0451
 11
-95.5
 21
-54.3301
  0
LINE
  8
0
 10
-95.5
 20
-54.3301
 11
-95.9663
 21
-54.5677
  0
LINE
  8
0
 10
-95.9663
 20
-54.5677
 11
-96.4549
 21
-54.7553
  0
LINE
  8
0
 10
-96.4549
 20
-54.7553
 11
-96.9604
 21
-54.8907
  0
LINE
  8
0
 10
-96.9604
 20
-54.8907
 11
-97.4774
 21
-54.9726
  0
LINE
  8
0
 10
-97.4774
 20
-54.9726
 11
-98
 21
-55
  0
LINE
  8
0
 10
-98
 20
-55
 11
-98.5226
 21
-54.9726
  0
LINE
  8
0
 10
-146
 20
-108
 11
-146
 21
-107.978
  0
LINE
  8
0
 10
-146
 20
-107.978
 11
-146.121
 21
-107.993
  0
LINE
  8
0
 10
-146.121
 20
-107.993
 11
-146.568
 21
-107.823
  0
LINE
  8
0
 10
-146.568
 20
-107.823
 11
-146.885
 21
-107.465
  0
LINE
  8
0
 10
-146.885
 20
-107.465
 11
-147
 21
-107
  0
LINE
  8
0
 10
-147
 20
-107
 11
-147
 21
-93
  0
LINE
  8
0
 10
-147
 20
-93
 11
-146.885
 21
-92.5353
  0
LINE
  8
0
 10
-146.885
 20
-92.5353
 11
-146.568
 21
-92.177
  0
LINE
  8
0
 10
-146.568
 20
-92.177
 11
-146.121
 21
-92.0073
  0
LINE
  8
0
 10
-146.121
 20
-92.0073
 11
-146
 21
-92.0219
  0
LINE
  8
0
 10
-146
 20
-92.0219
 11
-146
 21
-92
  0
LINE
  8
0
 10
-146
 20
-92
 11
-144
 21
-92
  0
LINE
  8
0
 10
-144
 20
-92
 11
-144
 21
-92.0219
  0
LINE
  8
0
 10
-144
 20
-92.0219
 11
-143.879
 21
-92.0073
  0
LINE
  8
0
 10
-143.879
 20
-92.0073
 11
-143.432
 21
-92.177
  0
LINE
  8
0
 10
-143.432
 20
-92.177
 11
-143.115
 21
-92.5353
  0
LINE
  8
0
 10
-143.115
 20
-92.5353
 11
-143
 21
-93
  0
LINE
  8
0
 10
-143
 20
-93
 11
-143
 21
-107
  0
LINE
  8
0
 10
-143
 20
-107
 11
-143.115
 21
-107.465
  0
LINE
  8
0
 10
-143.115
 20
-107.465
 11
-143.432
 21
-107.823
  0
LINE
  8
0
 10
-143.432
 20
-107.823
 11
-143.879
 21
-107.993
  0
LINE
  8
0
 10
-143.879
 20
-107.993
 11
-144
 21
-107.978
  0
LINE
  8
0
 10
-144
 20
-107.978
 11
-144
 21
-108
  0
LINE
  8
0
 10
-144
 20
-108
 11
-146
 21
-108
  0
LINE
  8
0
 10
-126
 20
-108
 11
-126
 21
-107.978
  0
LINE
  8
0
 10
-126
 20
-107.978
 11
-126.121
 21
-107.993
  0
LINE
  8
0
 10
-126.121
 20
-107.993
 11
-126.568
 21
-107.823
  0
LINE
  8
0
 10
-126.568
 20
-107.823
 11
-126.885
 21
-107.465
  0
LINE
  8
0
 10
-126.885
 20
-107.465
 11
-127
 21
-107
  0
LINE
  8
0
 10
-127
 20
-107
 11
-127
 21
-93
  0
LINE
  8
0
 10
-127
 20
-93
 11
-126.885
 21
-92.5353
  0
LINE
  8
0
 10
-126.885
 20
-92.5353
 11
-126.568
 21
-92.177
  0
LINE
  8
0
 10
-126.568
 20
-92.177
 11
-126.121
 21
-92.0073
  0
LINE
  8
0
 10
-126.121
 20
-92.0073
 11
-126
 21
-92.0219
  0
LINE
  8
0
 10
-126
 20
-92.0219
 11
-126
 21
-92
  0
LINE
  8
0
 10
-126
 20
-92
 11
-124
 21
-92
  0
LINE
  8
0
 10
-124
 20
-92
 11
-124
 21
-92.0219
  0
LINE
  8
0
 10
-124
 20
-92.0219
 11
-123.879
 21
-92.0073
  0
LINE
  8
0
 10
-123.879
 20
-92.0073
 11
-123.432
 21
-92.177
  0
LINE
  8
0
 10
-123.432
 20
-92.177
 11
-123.115
 21
-92.5353
  0
LINE
  8
0
 10
-123.115
 20
-92.5353
 11
-123
 21
-93
  0
LINE
  8
0
 10
-123
 20
-93
 11
-123
 21
-107
  0
LINE
  8
0
 10
-123
 20
-107
 11
-123.115
 21
-107.465
  0
LINE
  8
0
 10
-123.115
 20
-107.465
 11
-123.432
 21
-107.823
  0
LINE
  8
0
 10
-123.432
 20
-107.823
 11
-123.879
 21
-107.993
  0
LINE
  8
0
 10
-123.879
 20
-107.993
 11
-124
 21
-107.978
  0
LINE
  8
0
 10
-124
 20
-107.978
 11
-124
 21
-108
  0
LINE
  8
0
 10
-124
 20
-108
 11
-126
 21
-108
  0
LINE
  8
0
 10
124
 20
-108
 11
124
 21
-107.978
  0
LINE
  8
0
 10
124
 20
-107.978
 11
123.879
 21
-107.993
  0
LINE
  8
0
 10
123.879
 20
-107.993
 11
123.432
 21
-107.823
  0
LINE
  8
0
 10
123.432
 20
-107.823
 11
123.115
 21
-107.465
  0
LINE
  8
0
 10
123.115
 20
-107.465
 11
123
 21
-107
  0
LINE
  8
0
 10
123
 20
-107
 11
123
 21
-93
  0
LINE
  8
0
 10
123
 20
-93
 11
123.115
 21
-92.5353
  0
LINE
  8
0
 10
123.115
 20
-92.5353
 11
123.432
 21
-92.177
  0
LINE
  8
0
 10
123.432
 20
-92.177
 11
123.879
 21
-92.0073
  0
LINE
  8
0
 10
123.879
 20
-92.0073
 11
124
 21
-92.0219
  0
LINE
  8
0
 10
124
 20
-92.0219
 11
124
 21
-92
  0
LINE
  8
0
 10
124
 20
-92
 11
126
 21
-92
  0
LINE
  8
0
 10
126
 20
-92
 11
126
 21
-92.0219
  0
LINE
  8
0
 10
126
 20
-92.0219
 11
126.121
 21
-92.0073
  0
LINE
  8
0
 10
126.121
 20
-92.0073
 11
126.568
 21
-92.177
  0
LINE
  8
0
 10
126.568
 20
-92.177
 11
126.885
 21
-92.5353
  0
LINE
  8
0
 10
126.885
 20
-92.5353
 11
127
 21
-93
  0
LINE
  8
0
 10
127
 20
-93
 11
127
 21
-107
  0
LINE
  8
0
 10
127
 20
-107
 11
126.885
 21
-107.465
  0
LINE
  8
0
 10
126.885
 20
-107.465
 11
126.568
 21
-107.823
  0
LINE
  8
0
 10
126.568
 20
-107.823
 11
126.121
 21
-107.993
  0
LINE
  8
0
 10
126.121
 20
-107.993
 11
126
 21
-107.978
  0
LINE
  8
0
 10
126
 20
-107.978
 11
126
 21
-108
  0
LINE
  8
0
 10
126
 20
-108
 11
124
 21
-108
  0
LINE
  8
0
 10
144
 20
-108
 11
144
 21
-107.978
  0
LINE
  8
0
 10
144
 20
-107.978
 11
143.879
 21
-107.993
  0
LINE
  8
0
 10
143.879
 20
-107.993
 11
143.432
 21
-107.823
  0
LINE
  8
0
 10
143.432
 20
-107.823
 11
143.115
 21
-107.465
  0
LINE
  8
0
 10
143.115
 20
-107.465
 11
143
 21
-107
  0
LINE
  8
0
 10
143
 20
-107
 11
143
 21
-93
  0
LINE
  8
0
 10
143
 20
-93
 11
143.115
 21
-92.5353
  0
LINE
  8
0
 10
143.115
 20
-92.5353
 11
143.432
 21
-92.177
  0
LINE
  8
0
 10
143.432
 20
-92.177
 11
143.879
 21
-92.0073
  0
LINE
  8
0
 10
143.879
 20
-92.0073
 11
144
 21
-92.0219
  0
LINE
  8
0
 10
144
 20
-92.0219
 11
144
 21
-92
  0
LINE
  8
0
 10
144
 20
-92
 11
146
 21
-92
  0
LINE
  8
0
 10
146
 20
-92
 11
146
 21
-92.0219
  0
LINE
  8
0
 10
146
 20
-92.0219
 11
146.121
 21
-92.0073
  0
LINE
  8
0
 10
146.121
 20
-92.0073
 11
146.568
 21
-92.177
  0
LINE
  8
0
 10
146.568
 20
-92.177
 11
146.885
 21
-92.5353
  0
LINE
  8
0
 10
146.885
 20
-92.5353
 11
147
 21
-93
  0
LINE
  8
0
 10
147
 20
-93
 11
147
 21
-107
  0
LINE
  8
0
 10
147
 20
-107
 11
146.885
 21
-107.465
  0
LINE
  8
0
 10
146.885
 20
-107.465
 11
146.568
 21
-107.823
  0
LINE
  8
0
 10
146.568
 20
-107.823
 11
146.121
 21
-107.993
  0
LINE
  8
0
 10
146.121
 20
-107.993
 11
146
 21
-107.978
  0
LINE
  8
0
 10
146
 20
-107.978
 11
146
 21
-108
  0
LINE
  8
0
 10
146
 20
-108
 11
144
 21
-108
  0
LINE
  8
0
 10
134.521
 20
-101.474
 11
134.089
 21
-101.254
  0
LINE
  8
0
 10
134.089
 20
-101.254
 11
133.746
 21
-100.911
  0
LINE
  8
0
 10
133.746
 20
-100.911
 11
133.526
 21
-100.479
  0
LINE
  8
0
 10
133.526
 20
-100.479
 11
133.45
 21
-100
  0
LINE
  8
0
 10
133.45
 20
-100
 11
133.526
 21
-99.521
  0
LINE
  8
0
 10
133.526
 20
-99.521
 11
133.746
 21
-99.0889
  0
LINE
  8
0
 10
133.746
 20
-99.0889
 11
134.089
 21
-98.746
  0
LINE
  8
0
 10
134.089
 20
-98.746
 11
134.521
 21
-98.5259
  0
LINE
  8
0
 10
134.521
 20
-98.5259
 11
135
 21
-98.45
  0
LINE
  8
0
 10
135
 20
-98.45
 11
135.479
 21
-98.5259
  0
LINE
  8
0
 10
135.479
 20
-98.5259
 11
135.911
 21
-98.746
  0
LINE
  8
0
 10
135.911
 20
-98.746
 11
136.254
 21
-99.0889
  0
LINE
  8
0
 10
136.254
 20
-99.0889
 11
136.474
 21
-99.521
  0
LINE
  8
0
 10
136.474
 20
-99.521
 11
136.55
 21
-100
  0
LINE
  8
0
 10
136.55
 20
-100
 11
136.474
 21
-100.479
  0
LINE
  8
0
 10
136.474
 20
-100.479
 11
136.254
 21
-100.911
  0
LINE
  8
0
 10
136.254
 20
-100.911
 11
135.911
 21
-101.254
  0
LINE
  8
0
 10
135.911
 20
-101.254
 11
135.479
 21
-101.474
  0
LINE
  8
0
 10
135.479
 20
-101.474
 11
135
 21
-101.55
  0
LINE
  8
0
 10
135
 20
-101.55
 11
134.521
 21
-101.474
  0
LINE
  8
0
 10
-135.479
 20
-101.474
 11
-135.911
 21
-101.254
  0
LINE
  8
0
 10
-135.911
 20
-101.254
 11
-136.254
 21
-100.911
  0
LINE
  8
0
 10
-136.254
 20
-100.911
 11
-136.474
 21
-100.479
  0
LINE
  8
0
 10
-136.474
 20
-100.479
 11
-136.55
 21
-100
  0
LINE
  8
0
 10
-136.55
 20
-100
 11
-136.474
 21
-99.521
  0
LINE
  8
0
 10
-136.474
 20
-99.521
 11
-136.254
 21
-99.0889
  0
LINE
  8
0
 10
-136.254
 20
-99.0889
 11
-135.911
 21
-98.746
  0
LINE
  8
0
 10
-135.911
 20
-98.746
 11
-135.479
 21
-98.5259
  0
LINE
  8
0
 10
-135.479
 20
-98.5259
 11
-135
 21
-98.45
  0
LINE
  8
0
 10
-135
 20
-98.45
 11
-134.521
 21
-98.5259
  0
LINE
  8
0
 10
-134.521
 20
-98.5259
 11
-134.089
 21
-98.746
  0
LINE
  8
0
 10
-134.089
 20
-98.746
 11
-133.746
 21
-99.0889
  0
LINE
  8
0
 10
-133.746
 20
-99.0889
 11
-133.526
 21
-99.521
  0
LINE
  8
0
 10
-133.526
 20
-99.521
 11
-133.45
 21
-100
  0
LINE
  8
0
 10
-133.45
 20
-100
 11
-133.526
 21
-100.479
  0
LINE
  8
0
 10
-133.526
 20
-100.479
 11
-133.746
 21
-100.911
  0
LINE
  8
0
 10
-133.746
 20
-100.911
 11
-134.089
 21
-101.254
  0
LINE
  8
0
 10
-134.089
 20
-101.254
 11
-134.521
 21
-101.474
  0
LINE
  8
0
 10
-134.521
 20
-101.474
 11
-135
 21
-101.55
  0
LINE
  8
0
 10
-135
 20
-101.55
 11
-135.479
 21
-101.474
  0
ENDSEC
  0
SECTION
  2
OBJECTS
  0
DICTIONARY
  0
ENDSEC
  0
EOF
